<svg width="170" height="92" viewBox="0 0 170 92" fill="none" xmlns="http://www.w3.org/2000/svg">
<g clip-path="url(#clip0)">
<path d="M142.338 69.9853L138.421 56.4306C138.32 56.0807 137.954 55.8787 137.605 55.9793C137.255 56.0799 137.054 56.4451 137.155 56.7949L141.073 70.3496C141.174 70.6995 141.539 70.9015 141.889 70.8009C142.238 70.7003 142.44 70.3352 142.338 69.9853Z" fill="white"/>
<path d="M154.37 63.2123L152.219 55.7696C152.143 55.5077 151.869 55.3566 151.607 55.4322L151.291 55.523C151.029 55.5985 150.878 55.872 150.953 56.1339L153.104 63.5766C153.18 63.8384 153.454 63.9895 153.717 63.914L154.032 63.8232C154.294 63.7476 154.446 63.4741 154.37 63.2123Z" fill="white"/>
<path d="M169.101 56.2018C169.747 56.0158 170.12 55.3433 169.934 54.6996C169.748 54.056 169.073 53.6849 168.427 53.8709L166.168 54.5214C165.522 54.7074 165.149 55.3799 165.335 56.0236C165.521 56.6672 166.195 57.0382 166.841 56.8523L169.101 56.2018Z" fill="white"/>
<path d="M149.935 58.7845C146.663 59.0744 143.377 59.1866 140.092 59.1203L142.286 66.7172L142.938 66.3025C146.175 64.2904 149.539 62.4897 153.01 60.9118L152.328 58.5564C151.56 58.6269 150.766 58.714 149.935 58.7845Z" fill="white"/>
<path d="M169.95 54.7042C169.896 54.501 162.658 57.0927 153.671 58.3574L154.24 60.3396C163.065 56.4168 170.004 54.8991 169.95 54.7042Z" fill="white"/>
<path d="M141.151 67.4762L138.717 59.079C133.604 58.8976 128.515 58.2859 123.505 57.2502L125.125 62.865C130.697 61.8988 134.89 63.4082 135.276 65.1747C135.663 66.9412 132.613 69.8564 127.594 71.3948C128.148 73.33 128.71 75.2734 129.28 77.2252C132.917 73.605 136.892 70.3404 141.151 67.4762Z" fill="white"/>
<path d="M10.0261 60.7915C10.0125 60.8139 10.0033 60.8386 9.99928 60.8645C9.99523 60.8903 9.99633 60.9167 10.0025 60.9421C10.0087 60.9675 10.0198 60.9915 10.0353 61.0126C10.0507 61.0337 10.0702 61.0516 10.0926 61.0652L11.8419 62.1309L11.9707 63.6818C11.9802 63.7294 12.0069 63.7718 12.0456 63.8012C12.0843 63.8305 12.1324 63.8447 12.1809 63.8412C12.2293 63.8376 12.2749 63.8165 12.3088 63.7818C12.3428 63.7471 12.3629 63.7012 12.3654 63.6528L12.2283 61.9941C12.2264 61.9631 12.2171 61.933 12.2012 61.9063C12.1853 61.8796 12.1632 61.8571 12.1369 61.8407L10.3003 60.721C10.2637 60.7005 10.2216 60.6918 10.1798 60.6961C10.1484 60.6985 10.118 60.7084 10.0912 60.725C10.0645 60.7416 10.0421 60.7644 10.0261 60.7915Z" fill="white"/>
<path d="M6.14532 65.7511L12.756 69.0685L18.1368 58.3699L11.5261 55.0525L6.14532 65.7511ZM13.1341 59.5559C13.7562 59.8875 14.2208 60.4521 14.4257 61.1256C14.6306 61.799 14.5591 62.5261 14.2269 63.147L14.1978 63.1967C14.0337 63.5045 13.8103 63.7769 13.5405 63.9984C13.2707 64.2199 12.9598 64.386 12.6255 64.4874C12.2912 64.5887 11.9402 64.6231 11.5925 64.5888C11.2449 64.5545 10.9074 64.4521 10.5995 64.2873L10.5497 64.2625C9.92734 63.93 9.46269 63.3646 9.25779 62.6905C9.05289 62.0164 9.12449 61.2887 9.45689 60.6672L9.48182 60.6174C9.81572 59.9972 10.3822 59.5342 11.0574 59.3298C11.7325 59.1254 12.4614 59.1962 13.0843 59.5268L13.1341 59.5559Z" fill="white"/>
<path d="M8.39266 55.1781L4.27014 63.3762L6.14553 64.3155L10.2681 56.1174L8.39266 55.1781Z" fill="white"/>
<path d="M3.67727 63.0805L2.35596 60.157L4.80329 55.2928L7.79908 54.8823L3.67727 63.0805Z" fill="white"/>
<path d="M2.91685 59.0456L0 55.9314L4.24231 56.5783L2.91685 59.0456Z" fill="white"/>
<path d="M13.1715 67.3393L31.5784 77.2376L35.6504 69.0145L17.0149 59.6968L13.1715 67.3393ZM31.3125 71.8468C31.4396 71.9034 31.5538 71.9852 31.6483 72.0871C31.7429 72.189 31.8157 72.309 31.8625 72.4398C31.9093 72.5706 31.9291 72.7095 31.9206 72.8482C31.9122 72.9868 31.8757 73.1223 31.8133 73.2464C31.751 73.3706 31.6641 73.4809 31.5579 73.5706C31.4517 73.6604 31.3283 73.7277 31.1953 73.7686C31.0623 73.8094 30.9224 73.823 30.784 73.8084C30.6456 73.7938 30.5116 73.7515 30.3901 73.6838L16.3294 66.6343C16.0976 66.5053 15.9246 66.292 15.8466 66.0388C15.7685 65.7857 15.7912 65.5123 15.9101 65.2755C16.029 65.0387 16.2349 64.8568 16.4848 64.7677C16.7348 64.6786 17.0095 64.6892 17.2518 64.7973L31.3125 71.8468ZM32.4676 69.5495C32.6994 69.6785 32.8723 69.8918 32.9504 70.1449C33.0285 70.3981 33.0057 70.6715 32.8868 70.9083C32.7679 71.1451 32.5621 71.327 32.3121 71.4161C32.0622 71.5051 31.7875 71.4945 31.5452 71.3865L17.4845 64.337C17.3574 64.2803 17.2432 64.1986 17.1486 64.0967C17.0541 63.9947 16.9812 63.8747 16.9344 63.7439C16.8876 63.6131 16.8679 63.4743 16.8763 63.3356C16.8848 63.197 16.9213 63.0615 16.9836 62.9373C17.046 62.8132 17.1329 62.7029 17.2391 62.6132C17.3453 62.5234 17.4686 62.4561 17.6016 62.4152C17.7346 62.3743 17.8745 62.3608 18.0129 62.3753C18.1513 62.3899 18.2854 62.4323 18.4069 62.5L32.4676 69.5495Z" fill="white"/>
<path d="M78.8214 26.7922C77.4095 26.2131 76.0774 25.4564 74.8575 24.5405L69.0612 25.5814C68.762 25.6353 68.4754 25.7058 68.1887 25.7846C68.1887 25.8882 68.1887 25.9919 68.1887 26.0956C67.7644 26.634 67.3064 27.145 66.8175 27.6257C65.5213 28.915 64.0025 29.9602 62.3342 30.7109L67.2371 29.9023L69.082 35.4465L77.55 34.4513L76.7522 28.3348L81.3228 27.5801C80.4682 27.3885 79.6314 27.1249 78.8214 26.7922Z" fill="white"/>
<path d="M65.9158 14.7583C65.9231 15.1148 65.8897 15.471 65.8161 15.8199C65.6582 15.9899 65.4962 16.1599 65.3258 16.33L65.0391 16.5954L74.0805 14.974C73.5099 14.6281 72.9679 14.2371 72.46 13.8046C72.2024 12.8135 71.949 11.8224 71.6914 10.8355L76.1456 9.98126C75.0951 10.0687 74.0377 9.94215 73.0378 9.60925C72.0378 9.27635 71.116 8.74407 70.3285 8.04474C68.784 6.67435 67.6434 4.90943 67.0294 2.94006C68.226 9.30534 61.5613 12.7762 61.5613 12.7762L65.0682 12.1044C65.5981 12.8905 65.8922 13.8112 65.9158 14.7583Z" fill="white"/>
<path d="M73.8063 22.8528C73.6858 22.3759 73.5612 21.9032 73.4365 21.4263L78.4807 20.597C77.7525 20.471 77.0441 20.2493 76.3741 19.9376C74.8051 19.169 73.4474 18.0303 72.4185 16.6202C72.4203 16.4811 72.4342 16.3423 72.46 16.2056L66.0031 17.3542C66.2873 17.9259 66.4298 18.5573 66.4186 19.1954C66.4113 19.8266 66.2517 20.4468 65.9532 21.0034C64.9595 21.9142 63.8261 22.6604 62.5959 23.2136L66.9297 22.5003C67.2777 23.1686 67.4668 23.9078 67.4823 24.6608C67.366 24.8101 67.2371 24.9635 67.1083 25.1128L75.0029 23.6988C74.5625 23.4168 74.1678 23.1348 73.8063 22.8528Z" fill="white"/>
<path d="M54.6474 30.6861C53.7997 30.1164 53.0337 29.4342 52.3704 28.6583C51.0507 27.1583 50.186 25.3144 49.8774 23.3422C47.3843 24.6194 46.4203 27.5345 47.4259 30.4414C47.5512 30.8036 47.704 31.1557 47.8829 31.4947C46.7214 30.8393 45.3818 30.5678 44.0561 30.7193C43.4797 30.7759 42.9174 30.9316 42.3941 31.1795C41.8145 29.9541 41.4733 28.6299 41.3886 27.2774C39.8667 28.1368 38.6737 29.4761 37.9969 31.0852C37.3201 32.6943 37.1978 34.4821 37.649 36.1681C38.5839 39.614 41.5465 41.3184 42.8761 41.9279L54.6474 30.6861Z" fill="white"/>
<path d="M55.8938 30.6238L25.379 59.8957L31.7155 64.677L61.2455 37.1674L55.8938 30.6238ZM31.6656 60.5551L28.6865 57.4616L30.4815 55.7407L33.4606 58.8342L31.6656 60.5551ZM33.8927 58.4195L30.9177 55.326L32.7086 53.601L35.6877 56.6986L33.8927 58.4195ZM36.1697 56.1927L33.1781 53.0951L34.9731 51.3742L37.9522 54.4676L36.1697 56.1927ZM38.3968 54.053L35.4177 50.9595L37.2126 49.2386L40.1918 52.3321L38.3968 54.053Z" fill="white"/>
<path d="M25.7822 58.2578L30.5979 53.6549C30.5979 53.6341 30.5979 53.6134 30.5979 53.5927L30.5605 53.5139H30.7807L41.8332 42.9562C41.7418 42.7323 41.6296 42.4752 41.4883 42.1849C40.0465 41.4634 37.4579 39.7674 36.5978 36.5909C36.1393 34.9186 36.2519 33.1416 36.9177 31.5402C35.9843 30.9795 34.9494 30.6076 33.8721 30.4454C32.8457 30.26 31.787 30.3926 30.8384 30.8256C29.8898 31.2585 29.0968 31.971 28.5661 32.8672C29.8665 33.5266 31.0531 34.3889 32.0813 35.4216C30.3179 35.3315 28.5629 35.7177 27.0009 36.5394C25.439 37.3611 24.1281 38.588 23.2061 40.0908C25.9428 40.401 28.5256 41.5152 30.627 43.2921C29.4123 43.0205 28.1542 43.0049 26.9331 43.2465C22.7781 44.0178 20.8668 47.5467 20.5344 48.1853C22.4139 48.4593 24.1918 49.2088 25.6991 50.3623C26.1268 50.6947 26.5308 51.0563 26.9082 51.4446C26.7705 51.4246 26.6318 51.4121 26.4927 51.4073C25.1047 51.3536 23.7512 51.8466 22.7241 52.7799C20.5094 54.6708 20.551 57.6109 20.5676 58.1416C21.7809 57.6857 23.0975 57.5765 24.3695 57.8265C24.8541 57.921 25.3275 58.0655 25.7822 58.2578Z" fill="white"/>
<path d="M103.737 16.3013L90.1584 14.248L89.967 15.5084L103.546 17.5616L103.737 16.3013Z" fill="white"/>
<path d="M95.155 11.6483C95.3295 10.4913 95.7699 8.59624 96.817 8.43452C97.8641 8.27279 97.2907 10.5867 96.871 11.9012L97.5441 11.9966C97.7103 10.8396 98.1508 8.91139 99.2061 8.74552C100.262 8.57965 99.6715 10.9392 99.2519 12.2454L99.9624 12.3532C100.124 11.2087 100.557 9.18509 101.624 9.0358C102.692 8.88652 102.061 11.3331 101.624 12.6186L104.034 12.9711L106.976 6.28236L104.936 5.66448L106.81 1.78312L99.9748 0.020752L98.1424 3.61598L95.853 2.92348L92.4376 11.2709L95.155 11.6483ZM103.486 2.59589C104.932 2.36367 103.249 6.76752 103.249 6.76752L101.803 6.55604C101.803 6.55604 102.044 2.83225 103.486 2.59589ZM101.196 2.29317C102.642 2.06095 100.96 6.46481 100.96 6.46481L99.5136 6.25333C99.5136 6.25333 99.7546 2.52954 101.196 2.30147V2.29317Z" fill="white"/>
<path d="M91.378 19.4069C91.4736 18.4697 91.8808 15.4136 93.2644 15.1938C94.648 14.974 93.4514 18.6397 93.0899 19.6598L93.9666 19.7884C94.0539 18.901 94.4528 15.7577 95.853 15.5338C97.2533 15.3099 96.0151 19.071 95.6702 20.0372L96.5968 20.174C96.6633 19.4442 97.0372 16.0605 98.4956 15.8282C99.9541 15.596 98.5621 19.6308 98.2754 20.4187L100.569 20.7546L102.979 15.2767L91.4196 13.5807L89.1675 19.0834L91.378 19.4069Z" fill="white"/>
<path d="M101.14 21.7234L87.5704 19.7308L87.3848 20.9903L100.955 22.9829L101.14 21.7234Z" fill="white"/>
<path d="M88.6274 26.0001C88.752 24.9054 89.1883 22.181 90.4888 21.9736C91.7894 21.7663 90.8005 25.0505 90.3808 26.2572L91.2118 26.3816C91.3282 25.3118 91.7603 22.5251 93.0774 22.3136C94.3946 22.1022 93.3683 25.461 92.9569 26.6387L93.842 26.7673C93.9417 25.7762 94.3614 22.8237 95.7159 22.6205C97.0705 22.4173 95.9486 25.9379 95.5622 27.0327L97.6023 27.3312L99.6798 22.6454L88.324 20.9867L86.4003 25.6933L88.6274 26.0001Z" fill="white"/>
<path d="M85.8892 26.8876L82.7853 34.4762L84.3144 34.7001C84.4432 33.4561 84.9501 29.9686 86.5747 29.724C88.1994 29.4793 86.8739 33.6758 86.4002 35.0235L87.439 35.1728C87.5595 33.991 88.0581 30.3999 89.7076 30.1386C91.3572 29.8774 89.9736 34.1859 89.5165 35.4797L90.6134 35.6414C90.7132 34.5923 91.191 30.7648 92.8904 30.4911C94.5898 30.2174 93.0732 34.7996 92.6619 35.94L93.7547 36.1017L97.0787 28.5463L85.8892 26.8876Z" fill="white"/>
<path d="M97.7228 28.6543L84.153 26.6617L83.9673 27.9212L97.5371 29.9138L97.7228 28.6543Z" fill="white"/>
<path d="M96.4029 36.5071L80.0954 34.1125L79.6829 36.9105L95.9904 39.3051L96.4029 36.5071Z" fill="white"/>
<path d="M105.796 27.3064L101.757 32.382L105.888 35.6579L106.581 34.7871L108.389 34.5798L108.588 36.3297L107.874 37.2295L111.676 40.2443L115.361 35.6082L121.083 34.9281L121.735 40.8165L118.124 45.3531L121.644 48.1397L122.416 47.1693L124.161 46.962L124.357 48.7575L123.609 49.6989L127.531 52.8089L131.798 47.4472L129.875 44.9011L129.929 44.8306L130.091 44.9633L132.393 42.0605L131.761 41.5588C132.091 41.2156 132.347 40.8087 132.514 40.3629C132.68 39.9172 132.754 39.4421 132.729 38.967C132.723 38.5752 132.632 38.1892 132.464 37.8352C132.295 37.4811 132.053 37.1671 131.753 36.9144C130.922 36.3007 129.916 36.4997 129.476 36.6117C128.609 36.814 127.846 37.324 127.328 38.0465L126.912 37.7313C128.347 36.1182 129.168 34.0529 129.231 31.8968C129.273 30.9156 129.149 29.9343 128.865 28.9941L129.63 28.0362L127.847 26.6263C128.028 26.7325 128.243 26.7663 128.448 26.7206C128.654 26.675 128.834 26.5534 128.953 26.3804C129.072 26.2074 129.121 25.9958 129.09 25.7882C129.058 25.5807 128.95 25.3927 128.785 25.2621C128.621 25.1314 128.413 25.0679 128.203 25.0843C127.993 25.1007 127.798 25.1958 127.656 25.3504C127.513 25.505 127.435 25.7076 127.437 25.9175C127.438 26.1273 127.52 26.3287 127.664 26.4812L126.002 25.1625L125.466 25.8384C124.403 25.6144 123.305 25.6144 122.242 25.8384C118.81 26.4438 116.961 29.2097 116.57 29.8234L116.109 29.4544C116.699 28.7874 117.021 27.9265 117.015 27.0368C117.015 26.589 116.986 25.5606 116.184 24.8805L116.034 24.7644C115.274 24.1133 114.256 24.2917 113.915 24.3497C113.17 24.4968 112.496 24.888 112 25.4611C111.868 25.6054 111.747 25.7592 111.638 25.9213L111.002 25.4154L108.7 28.3182L108.867 28.4509L108.713 28.6458L105.796 27.3064ZM125.076 43.7648L126.821 43.5534L127.016 45.3531L125.724 46.9786L123.754 45.4194L125.076 43.7648ZM109.045 31.3785L110.853 31.1711L111.056 32.9211L109.739 34.5798L107.753 33.0081L109.045 31.3785Z" fill="white"/>
<path d="M123.497 60.2358L94.4112 39.1288L100.311 32.0793L128.632 54.5216L123.497 60.2358Z" fill="white"/>
<path d="M71.0888 36.7693C61.233 38.5394 52.1169 43.1645 44.8762 50.0685C37.6355 56.9725 32.5903 65.8501 30.3693 75.5954H32.505C35.0488 64.9019 41.1326 55.3774 49.7724 48.5623C58.4123 41.7471 69.103 38.0398 80.1157 38.0398C91.1284 38.0398 101.819 41.7471 110.459 48.5623C119.099 55.3774 125.183 64.9019 127.726 75.5954H129.862C126.953 62.82 119.22 51.6557 108.274 44.4244C97.3275 37.193 84.0091 34.4512 71.0888 36.7693V36.7693Z" stroke="white" stroke-width="10" stroke-miterlimit="10"/>
<path d="M61.1541 58.9627C61.1491 59.0306 61.1351 59.0975 61.1125 59.1618C61.0825 59.2511 61.0435 59.3373 60.9962 59.4189C60.9495 59.5037 60.8952 59.5842 60.8341 59.6594C60.7822 59.7236 60.717 59.7759 60.643 59.8128C60.5203 59.876 60.3906 59.9247 60.2566 59.958L59.8037 60.0575C59.3383 60.1487 58.8771 60.2233 58.4325 60.2855C57.9879 60.3477 57.5599 60.3975 57.1611 60.4348C56.7622 60.4721 56.4007 60.497 56.0683 60.5136C55.7359 60.5302 55.4575 60.5385 55.2373 60.5385H53.6584C53.5212 60.5385 53.3925 60.5385 53.2636 60.5385C53.2636 60.7044 53.2345 60.9076 53.2221 61.1481C53.2096 61.3886 53.193 61.6291 53.1805 61.8779C53.1681 62.1267 53.1473 62.3631 53.1348 62.5953C53.1224 62.8275 53.0974 63.01 53.0725 63.18C53.2096 63.18 53.3717 63.2049 53.5586 63.209H54.0947C54.344 63.209 54.5933 63.209 54.8384 63.18L55.4533 63.1302C55.5323 63.1302 55.6611 63.1095 55.8315 63.1012L56.3841 63.0639L56.9575 63.01C57.0975 62.9963 57.2363 62.9727 57.373 62.9395L57.6597 62.8192C57.7511 62.786 57.8342 62.757 57.9214 62.7321C58.006 62.7092 58.0921 62.6926 58.1791 62.6824C58.2663 62.6824 58.3619 62.6824 58.4658 62.6824C58.5848 62.6787 58.7025 62.7073 58.8065 62.7653C58.8949 62.8169 58.9692 62.8895 59.0225 62.9768C59.0756 63.0704 59.1108 63.1731 59.1264 63.2795C59.1482 63.3972 59.1593 63.5165 59.1597 63.6361C59.1643 63.7714 59.1201 63.9039 59.035 64.0093C58.9469 64.107 58.8412 64.1871 58.7234 64.2457C58.6028 64.3104 58.4743 64.3592 58.3411 64.3908L57.9921 64.4738C57.9048 64.4738 57.7511 64.5111 57.5309 64.5318L56.7664 64.5982C56.4755 64.5982 56.168 64.6438 55.8481 64.6604L54.9298 64.7101L54.1528 64.7475H53.6708C53.5246 64.7464 53.3785 64.7589 53.2346 64.7848L52.8191 64.8843C52.7572 65.1457 52.7087 65.41 52.6736 65.6763C52.637 65.9761 52.5843 66.2737 52.5157 66.5679C52.4908 66.6881 52.4617 66.8125 52.4368 66.9411C52.4118 67.0696 52.3828 67.1857 52.3578 67.3018C52.3329 67.418 52.3163 67.5216 52.2997 67.617C52.2831 67.7124 52.2747 67.7912 52.2706 67.8534H52.6404L53.0808 67.8326L53.542 67.7953L53.9783 67.7539L54.9049 67.6751L55.5988 67.6129C55.8065 67.6129 55.9935 67.5756 56.1722 67.5548C56.3508 67.5341 56.5337 67.5133 56.7373 67.4802L57.1237 67.4345L57.589 67.3848L58.0669 67.3267C58.2154 67.3052 58.3625 67.2747 58.5073 67.2355C58.5925 67.2162 58.6759 67.1899 58.7566 67.1567L59.0101 67.0614L59.2718 66.9867C59.3618 66.9666 59.4539 66.9569 59.5461 66.9577C59.6522 66.9573 59.7571 66.9799 59.8536 67.024C59.9531 67.0689 60.0422 67.1338 60.1153 67.2148C60.1937 67.301 60.2556 67.4008 60.2981 67.5092C60.3455 67.6265 60.3694 67.7518 60.3688 67.8783C60.3602 67.9471 60.3345 68.0127 60.294 68.069C60.242 68.1627 60.1762 68.248 60.0987 68.322C60.0063 68.4101 59.9046 68.4879 59.7954 68.5542C59.6779 68.6255 59.5484 68.6747 59.4131 68.6993C58.9685 68.7864 58.5156 68.8527 58.0669 68.8984C57.6181 68.944 57.1154 69.0062 56.5711 69.0767L55.3952 69.2135L54.3065 69.3503L53.4215 69.4623C53.1681 69.4955 52.9811 69.5245 52.8564 69.5494C52.7317 69.5719 52.6083 69.601 52.4866 69.6365L52.0711 69.7484L51.6889 69.8397C51.5809 69.8628 51.471 69.8753 51.3606 69.877C51.1978 69.8799 51.0354 69.859 50.8786 69.8148C50.7448 69.7723 50.6263 69.6915 50.5379 69.5826C50.4357 69.4534 50.3633 69.3033 50.326 69.143C50.2751 68.9144 50.2514 68.6805 50.2554 68.4464C50.2586 68.2021 50.2878 67.9588 50.3426 67.7207C50.4008 67.4553 50.4673 67.136 50.5379 66.7669C50.6086 66.3979 50.675 66.0869 50.7415 65.7924C50.808 65.498 50.8703 65.2119 50.9285 64.9299C50.9867 64.6479 51.0407 64.3742 51.0905 64.1006C51.1404 63.8269 51.1736 63.5241 51.1986 63.2048C51.1986 63.1675 51.1986 63.0846 51.2235 62.9478C51.2484 62.8109 51.2235 62.645 51.2567 62.4584C51.29 62.2718 51.2858 62.0728 51.2983 61.8572C51.3108 61.6415 51.3315 61.4425 51.344 61.2559C51.3565 61.0693 51.3731 60.9075 51.3814 60.7707C51.3897 60.6339 51.3814 60.5427 51.3814 60.5053C51.3844 60.4542 51.3844 60.403 51.3814 60.3519C51.3764 60.2981 51.3764 60.244 51.3814 60.1902C51.3829 60.0603 51.4053 59.9314 51.4479 59.8087C51.4964 59.6625 51.5634 59.5232 51.6473 59.394C51.7098 59.3015 51.7904 59.2225 51.8842 59.1618C52.0005 59.0808 52.1227 59.0088 52.2498 58.9461C52.3836 58.8808 52.5226 58.8267 52.6653 58.7844C52.7787 58.7502 52.896 58.7307 53.0143 58.7264C53.1022 58.7291 53.1897 58.7388 53.2761 58.7554L53.6501 58.8217C53.7789 58.8508 53.9035 58.8715 54.0198 58.8922C54.1034 58.9088 54.1882 58.9185 54.2733 58.9213H54.747H55.4076C55.8564 58.9213 56.3051 58.9213 56.7622 58.8715C57.2192 58.8217 57.6763 58.7844 58.1458 58.7098C58.3435 58.6748 58.539 58.6291 58.7317 58.5729L59.2677 58.4071C59.4463 58.3532 59.6209 58.3075 59.7995 58.2702C59.9854 58.2314 60.1747 58.2119 60.3646 58.2122C60.4637 58.2143 60.5614 58.2369 60.6513 58.2785C60.7499 58.3197 60.8401 58.3788 60.9172 58.4527C60.9938 58.526 61.0595 58.6098 61.1125 58.7015C61.1466 58.7841 61.1609 58.8736 61.1541 58.9627Z" fill="white"/>
<path d="M73.9683 64.0797C73.9598 64.1827 73.9345 64.2835 73.8935 64.3783C73.834 64.5204 73.766 64.6589 73.6899 64.793C73.6068 64.9478 73.5154 65.1054 73.4157 65.2657C73.3238 65.4187 73.2239 65.5668 73.1165 65.7094C72.8091 66.1241 72.5265 66.4641 72.2855 66.7793C72.0445 67.0944 71.7869 67.364 71.5709 67.6086C71.3721 67.8346 71.1538 68.0427 70.9185 68.2307C70.6707 68.4291 70.4127 68.6145 70.1457 68.7863C69.6251 69.1182 69.0182 69.2899 68.4006 69.2798C68.1859 69.2753 67.973 69.239 67.769 69.172C67.5208 69.0892 67.2804 68.9851 67.0502 68.8609C66.785 68.7199 66.5283 68.5635 66.2815 68.3924C66.0156 68.2099 65.7538 68.0067 65.4962 67.7911C65.0003 68.2296 64.6073 68.7719 64.3452 69.3793C64.2954 69.5037 64.2413 69.6447 64.1832 69.794L64.0087 70.2874C63.956 70.4538 63.8878 70.6148 63.8051 70.7685C63.722 70.9136 63.6472 71.0463 63.5765 71.1624C63.1938 71.1664 62.8188 71.0551 62.5004 70.8431C62.3724 70.7411 62.2709 70.6098 62.2044 70.4604C62.1378 70.311 62.1083 70.1479 62.1181 69.9847C62.1208 69.7835 62.1631 69.5848 62.2428 69.4C62.329 69.1889 62.4347 68.9862 62.5586 68.7946C62.691 68.5864 62.8367 68.387 62.9948 68.1975C63.1569 68.0026 63.3231 67.816 63.4893 67.6418C63.6555 67.4676 63.8134 67.2976 63.963 67.1442C64.1126 66.9908 64.2455 66.8622 64.3452 66.7295L64.1001 66.4393L63.8258 66.1116C63.7344 65.9997 63.6513 65.8919 63.5724 65.7882C63.5035 65.7002 63.441 65.6073 63.3854 65.5104C63.1818 65.1699 63.0094 64.8119 62.8702 64.4405C62.7716 64.1847 62.7168 63.9142 62.7081 63.6402C62.6881 63.3298 62.7729 63.0217 62.9491 62.7652C63.055 62.6539 63.1848 62.568 63.3287 62.5141C63.4727 62.4603 63.6271 62.4398 63.7801 62.4542C63.9505 62.4439 64.1196 62.489 64.2621 62.5827C64.3757 62.6608 64.4707 62.7627 64.5405 62.8813C64.6052 62.9901 64.6502 63.1094 64.6735 63.2338C64.6906 63.3257 64.7031 63.4185 64.7109 63.5116C64.7301 63.7937 64.7846 64.0723 64.8729 64.341C64.9347 64.5377 65.0183 64.7268 65.1222 64.9049C65.1846 65.0003 65.2552 65.104 65.3383 65.2201C65.4177 65.3302 65.5038 65.4355 65.5959 65.5353C65.7427 65.3915 65.8923 65.2339 66.0446 65.0625C66.1984 64.8967 66.3355 64.7308 66.4601 64.5691C66.5848 64.4073 66.7427 64.1876 66.8756 63.9761C67.0243 63.751 67.1536 63.5138 67.2621 63.267C67.3607 63.0587 67.5023 62.8736 67.6776 62.7237C67.8248 62.5941 68.0132 62.5207 68.2094 62.5164C68.3212 62.519 68.4319 62.5385 68.5377 62.5745C68.6541 62.6163 68.7624 62.6781 68.8576 62.7569C68.9554 62.8427 69.037 62.9452 69.0986 63.0596C69.1637 63.1881 69.1965 63.3304 69.1942 63.4743C69.1938 63.5855 69.1667 63.695 69.1152 63.7936C69.0506 63.923 68.9726 64.0453 68.8825 64.1585C68.7787 64.2954 68.6499 64.4529 68.5003 64.6312C68.3507 64.8096 68.1679 65.0169 67.9643 65.2616C67.8895 65.3528 67.8022 65.4523 67.7025 65.556L67.3867 65.8836L67.0377 66.236L66.6928 66.5927C67.0338 66.8928 67.4041 67.1582 67.7981 67.3847C67.9826 67.492 68.1792 67.5769 68.3839 67.6376C68.5328 67.6792 68.6864 67.7015 68.841 67.704C69.2327 67.6851 69.6125 67.5635 69.9421 67.3515C70.4235 67.0573 70.8589 66.6941 71.2343 66.2734C71.4255 66.0743 71.6207 65.8587 71.8285 65.6058C72.0362 65.3528 72.244 65.0625 72.5224 64.7308C73.0542 64.0507 73.4032 63.7107 73.5778 63.7107C73.6768 63.7098 73.7733 63.7418 73.852 63.8019C73.8954 63.8328 73.9292 63.8752 73.9497 63.9243C73.9703 63.9734 73.9767 64.0272 73.9683 64.0797Z" fill="white"/>
<path d="M84.651 63.7855C84.6452 63.9809 84.5909 64.1718 84.4931 64.3412C84.3639 64.5624 84.1949 64.7578 83.9945 64.9175C83.4926 65.3385 82.9577 65.7184 82.3948 66.0538C81.7487 66.4404 81.0815 66.7907 80.3962 67.1029C79.6857 67.4305 79.0084 67.7166 78.3768 67.9322C77.7453 68.1479 77.1303 68.3718 76.4987 68.5377L76.3408 68.5667C76.2675 68.5714 76.1939 68.5714 76.1206 68.5667C75.958 68.5672 75.7966 68.5406 75.6428 68.4879C75.5065 68.4413 75.3787 68.3726 75.2647 68.2847C75.1604 68.2015 75.0754 68.0969 75.0154 67.9779C74.9569 67.8607 74.9269 67.7314 74.9281 67.6005C74.9289 67.5504 74.9399 67.5009 74.9607 67.4553C74.9814 67.4096 75.0114 67.3687 75.0486 67.3351C75.1431 67.2456 75.251 67.1715 75.3685 67.1153C75.5225 67.0401 75.6807 66.9736 75.8422 66.9163L76.4073 66.7297L76.6234 66.6758L76.8768 66.6219L77.1428 66.5638L77.3754 66.5099C77.6065 66.3806 77.8143 66.2139 77.9904 66.0164C78.1867 65.8039 78.3607 65.5718 78.5098 65.3239C78.6535 65.0868 78.7719 64.8352 78.863 64.5734C78.9416 64.3649 78.9851 64.145 78.9918 63.9223C78.9918 63.4081 78.8754 63.1469 78.6427 63.1469C78.5199 63.1518 78.3989 63.1784 78.2854 63.2257C78.1285 63.281 77.9757 63.3475 77.8284 63.4247C77.6705 63.5077 77.5084 63.603 77.3505 63.7025C77.1926 63.8021 77.043 63.9057 76.9101 64.0094C76.6851 64.1927 76.4753 64.3938 76.2827 64.6107C76.05 64.8678 75.8215 65.1456 75.5888 65.44C75.3561 65.7345 75.14 66.0538 74.9364 66.3689C74.7328 66.6841 74.5625 66.9785 74.4254 67.248C74.4004 67.4761 74.3755 67.7249 74.3506 67.9986C74.3256 68.2723 74.3007 68.5667 74.2716 68.8901C74.2425 69.2136 74.2218 69.5453 74.2093 69.8854C74.1968 70.2254 74.1802 70.5489 74.1678 70.8682C74.1553 71.1875 74.1345 71.4902 74.1137 71.7805C74.0968 72.0366 74.0635 72.2915 74.014 72.5434C74.0344 72.7858 73.9697 73.0276 73.8312 73.2277C73.766 73.2995 73.6855 73.3558 73.5956 73.3924C73.5057 73.429 73.4087 73.445 73.3118 73.4392C73.1787 73.4379 73.0472 73.4096 72.9254 73.3562C72.79 73.3029 72.6616 73.2333 72.5431 73.1489C72.4348 73.0721 72.337 72.9814 72.2523 72.8793C72.1862 72.8026 72.1469 72.7066 72.1401 72.6057C72.1343 72.4993 72.1343 72.3927 72.1401 72.2863C72.1401 72.1661 72.1692 72.0375 72.1816 71.8965C72.1941 71.7556 72.2315 71.5067 72.2523 71.3201C72.273 71.1335 72.2897 70.9677 72.3104 70.8101C72.3312 70.6525 72.3437 70.5074 72.3603 70.3954C72.3769 70.2835 72.3852 70.1632 72.3977 70.0844C72.4683 69.591 72.5307 69.0477 72.5847 68.4506C72.6387 67.8535 72.6802 67.2314 72.7093 66.5846C72.7384 65.9377 72.7509 65.4235 72.7592 64.9258C72.7621 64.4818 72.7955 64.0384 72.8589 63.5989C72.8948 63.2892 72.9968 62.9909 73.1581 62.7239C73.2306 62.619 73.3294 62.5348 73.4445 62.4795C73.5596 62.4243 73.6871 62.3999 73.8146 62.4088C73.9375 62.4052 74.0593 62.4338 74.1678 62.4917C74.2711 62.5452 74.364 62.6169 74.442 62.7032C74.5165 62.7891 74.5756 62.8874 74.6165 62.9935C74.6538 63.0958 74.6735 63.2038 74.6747 63.3128C74.6717 63.5443 74.6452 63.7749 74.5957 64.0011C74.5417 64.2624 74.4918 64.5692 74.442 64.9175C74.5459 64.7351 74.6622 64.5526 74.7869 64.366C74.9115 64.1794 75.0403 64.0011 75.1691 63.8311C75.2979 63.6611 75.4267 63.4952 75.5555 63.3418C75.6843 63.1884 75.8132 63.0598 75.9337 62.9271C76.3652 62.5141 76.8622 62.175 77.4045 61.9236C77.6621 61.8101 77.9329 61.7292 78.2106 61.6831C78.5197 61.633 78.8324 61.6094 79.1455 61.6126C79.3663 61.6108 79.5804 61.6889 79.748 61.8324C79.9288 61.9832 80.082 62.1642 80.2009 62.3673C80.3252 62.5779 80.4215 62.8037 80.4876 63.0391C80.546 63.2429 80.5782 63.4533 80.5832 63.6652C80.58 63.8756 80.5435 64.0841 80.4751 64.2831C80.3978 64.5205 80.3034 64.7519 80.1926 64.9756C80.0779 65.2068 79.9474 65.4299 79.802 65.6432C79.6809 65.833 79.5417 66.0108 79.3865 66.174C79.7397 66.0247 80.1136 65.8464 80.5084 65.6515C80.9031 65.4566 81.2812 65.2369 81.6552 65.0295C82.0291 64.8222 82.3781 64.6148 82.7147 64.3702C83.0512 64.1255 83.3338 63.9265 83.5789 63.7192C83.6884 63.6217 83.8134 63.5432 83.9488 63.4869C84.0655 63.4364 84.1913 63.4096 84.3186 63.4081C84.4069 63.4008 84.495 63.4242 84.5679 63.4745C84.6055 63.516 84.6326 63.5659 84.6471 63.62C84.6615 63.674 84.6628 63.7308 84.651 63.7855Z" fill="white"/>
<path d="M90.0692 63.8021C90.0638 63.8865 90.0379 63.9684 89.9937 64.0406C89.9496 64.1128 89.8885 64.1733 89.8158 64.2167C89.5605 64.3701 89.2786 64.4742 88.9848 64.5236C88.8144 64.5651 88.6524 64.6066 88.4986 64.6522C88.3379 64.696 88.182 64.7557 88.0333 64.8305C87.8626 64.917 87.6999 65.0183 87.5471 65.1332C87.3461 65.2873 87.1559 65.455 86.9779 65.635C86.7119 65.9037 86.47 66.195 86.2549 66.5058C86.0389 66.816 85.8512 67.1449 85.694 67.4886C85.5263 67.8475 85.3873 68.2191 85.2785 68.5999C85.159 69.0082 85.066 69.4237 85.0001 69.8439C84.9855 69.8762 84.9674 69.9068 84.9461 69.9352L84.9045 69.9973L84.8712 70.0388C84.7916 70.1312 84.6902 70.2024 84.5763 70.2462C84.443 70.2931 84.302 70.3142 84.1607 70.3083C84.0773 70.3127 83.9939 70.3002 83.9153 70.2717C83.8368 70.2433 83.7648 70.1993 83.7037 70.1425C83.5929 70.0356 83.5101 69.9032 83.4627 69.7568C83.4124 69.608 83.3816 69.4533 83.3713 69.2965C83.3713 69.139 83.3713 69.0063 83.3713 68.9067C83.3713 68.8072 83.3713 68.6455 83.4004 68.4423C83.4295 68.2391 83.4336 68.0276 83.4544 67.7913C83.4752 67.5549 83.4959 67.3268 83.5126 67.0905C83.5292 66.8541 83.5375 66.6509 83.5375 66.4726C83.5375 66.2943 83.5375 66.1616 83.5375 65.9377C83.5375 65.7137 83.5375 65.4774 83.5126 65.2244C83.4876 64.9715 83.5126 64.7185 83.5126 64.4697C83.5126 64.2209 83.5126 64.0136 83.5126 63.8394C83.5114 63.7054 83.5383 63.5726 83.5915 63.4496C83.6434 63.3332 83.7151 63.2265 83.8034 63.1345C83.8896 63.0466 83.9909 62.975 84.1026 62.923C84.2131 62.8711 84.3336 62.8442 84.4557 62.8442C84.5989 62.8377 84.7416 62.8661 84.8712 62.9271C84.9829 62.9787 85.0821 63.0536 85.1621 63.1469C85.2409 63.2375 85.3029 63.3414 85.3449 63.4538C85.383 63.5688 85.4027 63.6892 85.4031 63.8104C85.4031 63.8643 85.4031 63.9555 85.4031 64.0799C85.4031 64.2043 85.4031 64.3412 85.3699 64.4946C85.3366 64.648 85.3408 64.8097 85.3242 64.9756C85.3075 65.1415 85.2909 65.2991 85.2743 65.4359C85.2577 65.5727 85.2452 65.6972 85.2286 65.7925C85.2226 65.8545 85.21 65.9156 85.1912 65.975C85.4092 65.5389 85.665 65.1226 85.9557 64.731C86.2175 64.3761 86.5216 64.0544 86.8615 63.7731C87.1718 63.5163 87.5174 63.3055 87.8878 63.1469C88.2402 62.9985 88.6189 62.9223 89.0014 62.923C89.1271 62.9249 89.2523 62.9388 89.3753 62.9644C89.5043 62.9907 89.6279 63.0383 89.741 63.1054C89.8505 63.1693 89.9453 63.2555 90.0194 63.3584C90.0882 63.4957 90.1059 63.653 90.0692 63.8021Z" fill="white"/>
<path d="M99.9499 64.3121C99.9174 64.4916 99.8481 64.6624 99.7463 64.8138C99.4804 65.1912 99.1854 65.5686 98.8654 65.9418C98.5409 66.3148 98.1954 66.6692 97.8308 67.0033C97.4683 67.3361 97.0868 67.6476 96.6882 67.9364C96.3059 68.2138 95.9031 68.4619 95.4832 68.6786C95.0934 68.8789 94.6859 69.0427 94.2658 69.1679C93.8819 69.2847 93.4829 69.3447 93.0816 69.3463C92.7107 69.3681 92.3393 69.3143 91.9899 69.1881C91.6406 69.0619 91.3207 68.866 91.0498 68.6123C90.565 68.123 90.3226 67.3835 90.3226 66.3938C90.3209 66.0038 90.3487 65.6143 90.4057 65.2285C90.4616 64.8417 90.5548 64.4612 90.6841 64.0923C90.9611 63.2984 91.3949 62.568 91.9597 61.9443C92.0792 61.8103 92.2114 61.6881 92.3544 61.5794C92.5046 61.4624 92.6645 61.3584 92.8323 61.2684C93.0034 61.1768 93.1829 61.1019 93.3683 61.0445C93.5476 60.9906 93.7337 60.9626 93.9209 60.9615C94.1625 60.9564 94.4018 61.009 94.619 61.1149C94.8104 61.2129 94.9757 61.3551 95.101 61.5296C95.231 61.7051 95.3269 61.9035 95.3835 62.1143C95.4455 62.3413 95.4763 62.5757 95.4749 62.811C95.4554 63.3199 95.2799 63.8105 94.9721 64.2167C94.5714 64.7696 94.1023 65.2698 93.576 65.7054C93.3849 65.8671 93.1605 66.0413 92.9071 66.2321L92.0511 66.8706C92.0631 66.996 92.1013 67.1175 92.1633 67.2273C92.2281 67.342 92.3158 67.4422 92.4209 67.5217C92.5402 67.61 92.6737 67.6773 92.8157 67.7207C92.983 67.7694 93.1566 67.7931 93.3309 67.7912C93.5981 67.7885 93.8643 67.7565 94.1245 67.6958C94.4073 67.6318 94.685 67.5472 94.9555 67.4429C95.2296 67.3351 95.4973 67.2119 95.7574 67.0738C96.0026 66.9412 96.2399 66.7945 96.468 66.6343C96.8443 66.3629 97.2062 66.0722 97.5524 65.7635C97.9014 65.4525 98.238 65.1332 98.5621 64.8097L98.9776 64.395C99.1664 64.191 99.4206 64.059 99.6964 64.0218C99.7369 64.0176 99.7777 64.0247 99.8144 64.0423C99.8511 64.0599 99.8822 64.0872 99.9042 64.1213C99.937 64.1794 99.9528 64.2455 99.9499 64.3121ZM94.004 62.9105C94.0039 62.8032 93.9927 62.6962 93.9708 62.5912C93.9667 62.5533 93.9545 62.5167 93.9352 62.4838C93.9159 62.4509 93.8897 62.4225 93.8586 62.4004C93.6556 62.4129 93.4619 62.4899 93.306 62.6202C93.0844 62.797 92.8947 63.0101 92.745 63.2505C92.5489 63.5575 92.3886 63.8859 92.2672 64.2292C92.1221 64.6435 92.019 65.0714 91.9597 65.5064C92.2007 65.3267 92.4417 65.1401 92.6827 64.9465C92.9148 64.758 93.1328 64.5529 93.3351 64.3328C93.5243 64.1308 93.6863 63.9049 93.817 63.6611C93.9405 63.4301 94.0048 63.1723 94.004 62.9105Z" fill="white"/>
<path d="M106.623 64.0674C106.606 64.2514 106.543 64.4282 106.44 64.5816C106.3 64.8079 106.146 65.0254 105.979 65.2326C105.792 65.4607 105.563 65.6929 105.356 65.9251C105.148 66.1573 104.907 66.3854 104.691 66.5928C104.566 66.713 104.375 66.883 104.13 67.0987L103.299 67.8119L102.335 68.6122C101.998 68.8901 101.683 69.1472 101.383 69.3835C101.084 69.6199 100.822 69.8314 100.594 70.0097C100.365 70.188 100.203 70.3083 100.108 70.3746C99.8359 70.5612 99.5464 70.7209 99.2435 70.8515C99.0143 70.9541 98.7674 71.0118 98.5164 71.0215C98.3639 71.0245 98.2116 71.0077 98.0635 70.9717C97.9584 70.9464 97.8585 70.9029 97.7685 70.8432C97.6982 70.7977 97.641 70.7348 97.6023 70.6607C97.5669 70.5958 97.5483 70.5231 97.5482 70.4493C97.5457 70.2867 97.5783 70.1254 97.6438 69.9765C97.7158 69.817 97.8222 69.6754 97.9554 69.5618C98.118 69.4236 98.2966 69.3053 98.4873 69.2094C98.7033 69.0933 98.961 68.9772 99.256 68.8528C99.4471 68.7781 99.6216 68.7035 99.7754 68.633C99.9214 68.5699 100.061 68.4921 100.191 68.4008C100.297 68.3244 100.386 68.227 100.453 68.1146C100.518 67.9968 100.549 67.8634 100.544 67.729C100.532 67.6584 100.507 67.5907 100.469 67.5299C100.413 67.4149 100.35 67.3028 100.282 67.1941L100.029 66.7794L99.7504 66.3398L99.4928 65.9251C99.4097 65.7966 99.3474 65.6929 99.3017 65.6058C99.101 65.2439 98.9939 64.8377 98.9901 64.424C98.9893 64.2461 99.0046 64.0684 99.0357 63.8932C99.0666 63.7034 99.1167 63.5172 99.1853 63.3375C99.2571 63.0941 99.3664 62.8632 99.5094 62.6533C99.653 62.4365 99.8203 62.2363 100.008 62.0562C100.176 61.8977 100.361 61.7586 100.561 61.6415C100.706 61.5479 100.874 61.4936 101.047 61.484C101.198 61.4812 101.348 61.4965 101.496 61.5296C101.598 61.5513 101.691 61.602 101.765 61.6756C101.838 61.7492 101.889 61.8425 101.911 61.9442C101.938 62.0668 101.951 62.192 101.948 62.3175C101.946 62.4431 101.914 62.5664 101.857 62.6782C101.795 62.7942 101.72 62.9027 101.633 63.0017C101.551 63.1046 101.459 63.1991 101.358 63.2836L101.109 63.5117L100.802 63.7854C100.722 63.8534 100.646 63.9253 100.573 64.001C100.579 64.3103 100.66 64.6135 100.81 64.8843C100.889 65.0129 100.984 65.1787 101.097 65.3695L101.446 65.9583L101.786 66.5347L102.04 66.9494C102.155 66.893 102.265 66.8264 102.368 66.7503L102.879 66.3937L103.498 65.9251L104.167 65.3902C104.387 65.2077 104.583 65.0294 104.815 64.847C105.048 64.6645 105.21 64.4945 105.376 64.3328C105.543 64.1711 105.638 64.0798 105.734 63.9803C105.829 63.8808 105.908 63.802 105.975 63.7356C106.031 63.6836 106.091 63.6352 106.153 63.5905C106.204 63.5578 106.263 63.5405 106.324 63.5407C106.355 63.5398 106.385 63.546 106.414 63.559C106.442 63.5719 106.466 63.5913 106.486 63.6154C106.53 63.6608 106.565 63.7143 106.59 63.773C106.612 63.8267 106.63 63.8822 106.644 63.9388C106.615 64.0259 106.623 64.0549 106.623 64.0674Z" fill="white"/>
<path d="M109.785 67.787C109.784 68.0539 109.734 68.3184 109.635 68.5666C109.536 68.8237 109.405 69.0675 109.245 69.2923C109.079 69.5228 108.89 69.7355 108.68 69.9267C108.475 70.1121 108.252 70.2774 108.015 70.4202C107.798 70.5514 107.569 70.6599 107.329 70.7436C107.124 70.8178 106.908 70.857 106.689 70.8597C106.567 70.8708 106.444 70.8567 106.327 70.8182C106.211 70.7796 106.104 70.7176 106.012 70.6358C105.864 70.47 105.786 70.2526 105.796 70.0304C105.796 69.9132 105.816 69.7969 105.854 69.6862C105.889 69.5789 105.945 69.48 106.02 69.3959C106.093 69.3119 106.182 69.244 106.282 69.1969C106.394 69.1489 106.514 69.1249 106.635 69.1264H106.773C106.889 69.1239 107.005 69.1086 107.117 69.0808C107.281 69.0295 107.431 68.9432 107.558 68.8278C107.703 68.7139 107.815 68.5637 107.882 68.3924C107.945 68.2526 107.98 68.1019 107.986 67.9487C107.985 67.837 107.957 67.7272 107.903 67.6294C107.84 67.5249 107.766 67.4275 107.683 67.3391C107.582 67.2366 107.476 67.1411 107.363 67.053C107.246 66.9576 107.117 66.8623 106.989 66.7669C106.86 66.6715 106.64 66.4973 106.465 66.3522C106.294 66.2102 106.134 66.0549 105.987 65.8878C105.849 65.7309 105.734 65.5549 105.647 65.3653C105.559 65.1785 105.513 64.9745 105.514 64.7681C105.517 64.5395 105.556 64.3129 105.63 64.0964C105.709 63.8558 105.812 63.6238 105.937 63.4039C106.067 63.1749 106.217 62.9584 106.386 62.757C106.544 62.5635 106.718 62.3832 106.906 62.2179C107.071 62.0714 107.254 61.946 107.45 61.8447C107.608 61.761 107.782 61.7142 107.961 61.7078C108.176 61.6919 108.389 61.7604 108.555 61.8986C108.628 61.9811 108.684 62.0778 108.718 62.1827C108.753 62.2876 108.765 62.3983 108.755 62.5081C108.753 62.6521 108.719 62.794 108.655 62.9228C108.582 63.0695 108.494 63.2084 108.393 63.3375C108.286 63.4753 108.169 63.6055 108.044 63.7273C107.915 63.8558 107.786 63.972 107.666 64.0798C107.571 64.1658 107.469 64.2448 107.363 64.3162C107.271 64.3751 107.183 64.4402 107.101 64.511C107.156 64.6112 107.223 64.7044 107.3 64.7889C107.382 64.8861 107.471 64.9776 107.566 65.0626C107.662 65.1538 107.761 65.2367 107.861 65.3197L108.14 65.5477C108.327 65.7012 108.518 65.8587 108.709 66.0287C108.899 66.1905 109.077 66.3666 109.241 66.5554C109.394 66.7336 109.526 66.93 109.631 67.1401C109.732 67.341 109.785 67.5624 109.785 67.787Z" fill="white"/>
<path d="M60.3148 87.3764C60.2572 87.4539 60.1869 87.5212 60.107 87.5755C60.0254 87.6298 59.9392 87.677 59.8494 87.7165C59.7592 87.7522 59.6661 87.7799 59.571 87.7994C59.4874 87.8149 59.4026 87.8232 59.3175 87.8243H58.1666C57.9064 87.8262 57.6468 87.847 57.3896 87.8865C57.1071 87.9279 56.8245 87.9777 56.5337 88.0358C56.2428 88.0938 55.9561 88.1685 55.6694 88.2431L54.8633 88.4546C54.4478 88.5748 54.0656 88.6744 53.7082 88.7614C53.4055 88.8406 53.0945 88.8837 52.7816 88.89C52.5883 88.8942 52.3956 88.8648 52.2124 88.8029C52.0679 88.7531 51.936 88.6724 51.826 88.5666C51.729 88.471 51.6551 88.3548 51.6099 88.2265C51.5608 88.0939 51.5369 87.9532 51.5393 87.8118C51.5463 87.499 51.5769 87.1871 51.6307 86.8788C51.693 86.5139 51.7637 86.1324 51.8468 85.7343C51.8468 85.6265 51.9008 85.4233 51.9548 85.1164C52.0088 84.8096 52.0711 84.453 52.1376 84.0466C52.2041 83.6402 52.2789 83.2172 52.3537 82.7445C52.4285 82.2718 52.495 81.8446 52.5614 81.43C52.6279 81.0153 52.6819 80.6421 52.7276 80.3145C52.7733 79.9869 52.8066 79.7547 52.8191 79.6178C52.844 79.369 52.8647 79.1327 52.8772 78.9088C52.8897 78.6848 52.9063 78.4941 52.9312 78.2992C52.9516 78.1299 52.9835 77.9623 53.0268 77.7974C53.0636 77.6618 53.1271 77.5349 53.2138 77.4242C53.3018 77.3176 53.4165 77.236 53.5462 77.1878C53.714 77.1281 53.8916 77.0999 54.0697 77.1049C54.2335 77.0979 54.3964 77.1321 54.5434 77.2044C54.6604 77.2663 54.7603 77.3561 54.8342 77.4657C54.9073 77.575 54.9581 77.6976 54.9838 77.8264C55.0107 77.9631 55.0246 78.1019 55.0254 78.2411C55.0165 78.3593 55.0012 78.477 54.9797 78.5936L54.855 79.2778C54.8052 79.5515 54.747 79.8542 54.6847 80.1859C54.6223 80.5177 54.5559 80.8577 54.4894 81.2019C54.4229 81.5461 54.3606 81.882 54.3024 82.2137C54.2442 82.5455 54.1944 82.8399 54.1487 83.1011C54.1029 83.3624 54.0531 83.6112 53.9908 83.8931C53.9285 84.1751 53.8703 84.4654 53.8204 84.7557L53.7082 85.3984C53.6708 85.6141 53.6376 85.8131 53.6043 86.008C53.5711 86.2029 53.5503 86.3771 53.5337 86.5388C53.5171 86.7005 53.5088 86.8291 53.5088 86.9286C53.5043 86.981 53.5043 87.0337 53.5088 87.0862C53.5088 87.1359 53.542 87.1566 53.5711 87.1566C53.7108 87.1525 53.8499 87.1358 53.9866 87.1069C54.157 87.0737 54.3481 87.0322 54.5517 86.9825L55.1791 86.8166L55.7775 86.6424L56.0351 86.5844L56.4838 86.489L57.024 86.3812L57.5641 86.2817L58.017 86.2112C58.108 86.1982 58.1995 86.1899 58.2913 86.1863C58.4221 86.1792 58.5524 86.1654 58.6818 86.1448C58.9024 86.1179 59.1245 86.1055 59.3466 86.1075C59.6492 86.0883 59.9522 86.1394 60.2317 86.2568C60.3229 86.3083 60.3974 86.385 60.446 86.4777C60.4947 86.5703 60.5155 86.6751 60.5059 86.7793C60.5053 86.8835 60.4885 86.9871 60.456 87.0862C60.4291 87.1914 60.381 87.2902 60.3148 87.3764Z" fill="white"/>
<path d="M68.5543 85.9207L68.0806 86.3935C67.931 86.5428 67.7773 86.6796 67.6277 86.8082L67.1665 87.198C67.0086 87.3224 66.8466 87.4509 66.6721 87.5753C66.3526 87.8142 66.0052 88.0133 65.6374 88.1683C65.331 88.2985 65.0023 88.3689 64.6693 88.3756C64.3511 88.384 64.035 88.3231 63.7427 88.1973C63.4879 88.0824 63.259 87.9174 63.0696 87.7122C62.8827 87.5006 62.7299 87.2614 62.6167 87.003C62.4995 86.7354 62.4063 86.4578 62.3383 86.1737C62.2704 85.8774 62.2232 85.5767 62.1971 85.2739C62.1721 84.967 62.1597 84.6809 62.1597 84.4072C62.1597 84.2994 62.168 84.1459 62.1846 83.9469C62.1846 83.7437 62.2178 83.5322 62.2469 83.3124C62.276 83.0927 62.3051 82.8978 62.3383 82.6697C62.363 82.5005 62.3977 82.333 62.4422 82.1679C62.4846 82.0317 62.5507 81.9039 62.6375 81.7906C62.7323 81.6663 62.8442 81.556 62.9699 81.463C63.2157 81.2547 63.5283 81.1414 63.8508 81.1437C64.1832 81.1437 64.3494 81.3386 64.3494 81.7367C64.3464 81.8993 64.3311 82.0615 64.3037 82.2218C64.2704 82.4085 64.2455 82.5992 64.2164 82.7941C64.1873 82.989 64.1582 83.2088 64.1333 83.4037C64.1084 83.5986 64.0876 83.7478 64.071 83.893C64.0544 84.0381 64.0378 84.1667 64.0294 84.2828C64.0234 84.3947 64.0234 84.5068 64.0294 84.6187C64.0302 84.8349 64.0441 85.051 64.071 85.2656C64.0974 85.4906 64.1391 85.7137 64.1957 85.9332C64.2423 86.1128 64.3121 86.2857 64.4034 86.4474C64.4262 86.5053 64.4647 86.5557 64.5146 86.5931C64.5645 86.6304 64.6238 86.6532 64.6859 86.6589C64.8646 86.6559 65.0427 86.6364 65.2178 86.6008C65.441 86.5545 65.6546 86.4704 65.8494 86.352C66.0654 86.2317 66.2649 86.0908 66.5183 85.9373C66.7661 85.7618 67.0047 85.5735 67.233 85.3734L67.9061 84.7804C68.1263 84.5813 68.3507 84.3657 68.5709 84.1335L68.8493 83.8432C68.9366 83.7561 69.0113 83.6732 69.082 83.5944L69.2939 83.3664L69.51 83.1341L69.5847 83.047L69.6845 82.9475C69.7215 82.9176 69.7604 82.8899 69.8008 82.8646C69.8377 82.844 69.879 82.8326 69.9213 82.8314C69.9827 82.8322 70.0434 82.8449 70.1 82.8687C70.1678 82.8986 70.2215 82.9536 70.2495 83.0222C70.283 83.0868 70.3041 83.1571 70.3119 83.2295C70.3119 83.3 70.3119 83.358 70.3119 83.4037C70.2999 83.4903 70.2702 83.5736 70.2246 83.6483C70.1706 83.7644 70.0958 83.8971 70.0044 84.063C69.913 84.2289 69.805 84.374 69.6845 84.5482C69.564 84.7223 69.4393 84.8924 69.3105 85.0665C69.1817 85.2407 69.057 85.4024 68.9282 85.5558C68.7994 85.7093 68.6665 85.8129 68.5543 85.9207ZM65.5876 77.0964C65.5891 77.2588 65.5624 77.4201 65.5086 77.5733C65.4563 77.7217 65.3821 77.8614 65.2884 77.988C65.1861 78.1261 65.0507 78.2364 64.8946 78.3088C64.7386 78.3812 64.5668 78.4135 64.3951 78.4027C64.256 78.4012 64.1171 78.3901 63.9796 78.3695C63.8373 78.3498 63.6979 78.3137 63.5641 78.2617C63.4575 78.2195 63.3591 78.1592 63.2732 78.0834C63.237 78.0536 63.2079 78.0163 63.1878 77.974C63.1677 77.9317 63.1571 77.8855 63.1569 77.8387C63.1603 77.6651 63.2044 77.4946 63.2857 77.3411C63.3696 77.1652 63.4757 77.0008 63.6015 76.8518C63.7195 76.7075 63.8597 76.5829 64.017 76.4827C64.1489 76.3906 64.3048 76.3388 64.4657 76.3334C64.6243 76.3306 64.7828 76.3417 64.9394 76.3666C65.0614 76.3857 65.1794 76.4249 65.2884 76.4827C65.3828 76.5379 65.4581 76.6203 65.5045 76.7191C65.5601 76.8371 65.5885 76.966 65.5876 77.0964Z" fill="white"/>
<path d="M82.4072 82.8274C82.4058 82.9347 82.3876 83.041 82.3532 83.1426C82.3187 83.2582 82.2743 83.3706 82.2202 83.4785C82.168 83.588 82.1097 83.6946 82.0457 83.7978C81.9904 83.8824 81.9308 83.964 81.867 84.0424C81.705 84.2456 81.5222 84.4571 81.3227 84.6893C81.1233 84.9215 80.9072 85.1455 80.6911 85.3694C80.4751 85.5933 80.2507 85.7841 80.0222 86.0121C79.806 86.2057 79.577 86.3844 79.3366 86.5471L78.8214 86.8871C78.6565 86.9894 78.4858 87.0821 78.3103 87.1649C78.1312 87.245 77.9448 87.3075 77.7535 87.3516C77.5423 87.3996 77.3262 87.4232 77.1095 87.422C76.7786 87.4355 76.4505 87.3566 76.1621 87.194C75.9115 87.0425 75.7006 86.8335 75.5472 86.5844C75.3822 86.3146 75.2603 86.0208 75.1857 85.7136C75.0999 85.3764 75.0347 85.0344 74.9904 84.6893C74.942 84.3035 74.8684 83.9212 74.7702 83.5448C74.6871 83.2684 74.5874 83.1302 74.471 83.1302C74.3681 83.1308 74.2668 83.1564 74.176 83.2048C74.0365 83.2841 73.9126 83.388 73.8104 83.5117C73.6691 83.6692 73.4863 83.8973 73.2619 84.2C73.0375 84.5027 72.755 84.905 72.3977 85.4067C72.2772 85.5767 72.1276 85.7716 71.9531 85.9831C71.7786 86.1946 71.5916 86.3978 71.4004 86.5968C71.2185 86.7811 71.0257 86.9542 70.8229 87.1152C70.6655 87.2463 70.4871 87.35 70.2952 87.422C69.6553 87.2811 69.3354 86.6673 69.3354 85.5892C69.3441 85.1842 69.3746 84.78 69.4268 84.3783C69.4559 84.1419 69.4891 83.889 69.5265 83.6236C69.5639 83.3582 69.6138 83.097 69.6719 82.8316C69.7301 82.5662 69.8008 82.3049 69.8839 82.0478C69.9589 81.803 70.0534 81.5645 70.1664 81.3346C70.2164 81.2277 70.2853 81.1308 70.37 81.0485C70.4377 80.9817 70.5164 80.927 70.6027 80.8868C70.6812 80.8502 70.7656 80.8278 70.852 80.8204C70.9377 80.8141 71.0238 80.8141 71.1096 80.8204C71.187 80.8189 71.2633 80.839 71.3298 80.8785C71.4045 80.918 71.4697 80.9731 71.521 81.0402C71.5807 81.117 71.6258 81.2042 71.6539 81.2973C71.6888 81.4115 71.7056 81.5304 71.7038 81.6498C71.7048 81.7624 71.695 81.8749 71.6747 81.9857C71.6747 82.0893 71.6248 82.2013 71.5916 82.3132L71.4794 82.674C71.442 82.8026 71.4005 82.9477 71.3631 83.1094C71.3257 83.2711 71.3007 83.3541 71.2509 83.5241C71.201 83.6941 71.1553 83.8641 71.1054 84.0466C71.0556 84.229 71.014 84.4032 70.9725 84.5732C70.9372 84.7094 70.9122 84.848 70.8977 84.9879C70.9891 84.8801 71.093 84.7474 71.2135 84.5732C71.334 84.3991 71.4586 84.2415 71.5916 84.0549C71.7245 83.8683 71.8575 83.6817 72.0071 83.4868C72.1567 83.2919 72.2813 83.1136 72.4226 82.9394C72.5639 82.7652 72.7758 82.5247 72.9503 82.3091C73.1091 82.1209 73.2874 81.9499 73.4821 81.799C73.671 81.6555 73.8795 81.5396 74.1012 81.4549C74.3439 81.3689 74.6 81.3268 74.8575 81.3305C75.1403 81.3177 75.4207 81.3884 75.6635 81.5336C75.8791 81.6711 76.0529 81.8647 76.1663 82.0935C76.2989 82.355 76.3927 82.6344 76.4447 82.9228C76.5029 83.2504 76.5527 83.607 76.5859 83.9927C76.5859 84.1917 76.6358 84.4074 76.6691 84.6023C76.6986 84.795 76.7487 84.9841 76.8187 85.1662C76.8735 85.3214 76.9614 85.4628 77.0763 85.5809C77.1288 85.6377 77.1933 85.6821 77.2652 85.7108C77.3371 85.7395 77.4145 85.7518 77.4918 85.7468C77.7583 85.7395 78.0203 85.6759 78.2604 85.5602C78.5673 85.4173 78.8595 85.2451 79.133 85.046C79.4584 84.8089 79.7705 84.5542 80.0679 84.2829C80.3878 83.9968 80.7119 83.6858 81.0319 83.3582C81.1316 83.2504 81.2313 83.1467 81.3227 83.0389C81.4141 82.9311 81.5097 82.844 81.5928 82.7611C81.6686 82.6832 81.7537 82.615 81.8463 82.5579C81.9194 82.5106 82.0043 82.4848 82.0914 82.4833H82.1953C82.2361 82.4925 82.2754 82.5079 82.3116 82.5289C82.354 82.558 82.3877 82.598 82.4089 82.6448C82.4301 82.6916 82.4381 82.7433 82.4321 82.7943L82.4072 82.8274Z" fill="white"/>
<path d="M86.7784 82.7817C86.7784 83.0429 86.7784 83.3664 86.7493 83.7437C86.7202 84.1211 86.6994 84.5731 86.6579 85.0624C86.633 85.3734 86.5956 85.7383 86.5499 86.153C86.5042 86.5677 86.4501 86.9823 86.3795 87.4343C86.3089 87.8863 86.2341 88.2886 86.1468 88.6784C86.0733 89.0423 85.9762 89.4011 85.856 89.7524C85.7492 90.0436 85.6098 90.3218 85.4405 90.5817C85.277 90.8473 85.0754 91.0877 84.8421 91.295C84.6096 91.5018 84.3424 91.666 84.0527 91.7801C83.742 91.9027 83.4103 91.9633 83.0762 91.9584C82.7659 91.9581 82.4571 91.9163 82.158 91.8341C81.8567 91.7528 81.5644 91.6417 81.2854 91.5023C81.0185 91.3706 80.764 91.2152 80.525 91.0379C80.3056 90.8723 80.1012 90.6877 79.9142 90.4864C79.7498 90.3188 79.6099 90.129 79.4987 89.9224C79.4106 89.7632 79.3609 89.5857 79.3533 89.4041C79.3436 89.3438 79.3482 89.2821 79.3667 89.2239C79.3853 89.1657 79.4173 89.1127 79.4602 89.0691C79.503 89.0255 79.5555 88.9926 79.6135 88.973C79.6714 88.9534 79.7332 88.9476 79.7937 88.9562C79.8617 88.9536 79.9292 88.9693 79.989 89.0018C80.0453 89.0305 80.0982 89.0653 80.1469 89.1055C80.1916 89.1466 80.2333 89.191 80.2716 89.2382C80.3031 89.2782 80.3378 89.3157 80.3754 89.3501C80.5796 89.5424 80.8007 89.7159 81.0361 89.8685C81.2406 90.0002 81.4578 90.1113 81.6843 90.2002C81.9007 90.2818 82.1248 90.3416 82.3532 90.3785C82.5843 90.4136 82.8176 90.4316 83.0513 90.4324C83.3115 90.4425 83.5671 90.3618 83.7743 90.2044C83.9689 90.0424 84.1238 89.8381 84.2272 89.6072C84.3494 89.3423 84.44 89.0639 84.4973 88.7779C84.561 88.4793 84.615 88.1849 84.6593 87.8946C84.7133 87.5297 84.7632 87.1772 84.8047 86.8372C84.8463 86.4972 84.8795 86.1696 84.9044 85.8503C84.6943 86.0698 84.4586 86.2633 84.2022 86.4267C83.9278 86.6043 83.6387 86.7584 83.338 86.887C83.0422 87.0139 82.7365 87.1166 82.4239 87.1938C82.1518 87.2607 81.8731 87.2969 81.5929 87.3016C81.4715 87.2993 81.3506 87.2868 81.2314 87.2643C81.0881 87.2409 80.9484 87.1991 80.8159 87.1399C80.6883 87.0857 80.5736 87.0051 80.4793 86.9035C80.4326 86.8544 80.396 86.7964 80.3717 86.7331C80.3475 86.6698 80.336 86.6023 80.338 86.5345C80.3434 86.1965 80.3923 85.8607 80.4835 85.5351C80.5833 85.1438 80.7068 84.7588 80.8533 84.3823C81.0087 84.0234 81.1835 83.6732 81.3768 83.3332C81.5347 83.0166 81.7196 82.7141 81.9294 82.4292C82.1686 82.1028 82.4355 81.7976 82.7272 81.5169C82.9988 81.2574 83.2921 81.0216 83.6039 80.812C83.8634 80.6289 84.142 80.4746 84.4349 80.3517C84.6645 80.2564 84.9094 80.203 85.1579 80.1941C85.3431 80.1958 85.528 80.2125 85.7105 80.2439C85.9033 80.2751 86.0917 80.3294 86.2715 80.4056C86.43 80.4795 86.5715 80.5854 86.687 80.7166C86.8045 80.8488 86.867 81.0209 86.8615 81.1976C86.8615 81.293 86.8615 81.4049 86.8615 81.5293C86.8615 81.6537 86.8366 81.7864 86.8241 81.9233C86.8116 82.0601 86.8241 82.2053 86.7909 82.338C86.7576 82.4707 86.7784 82.6282 86.7784 82.7817ZM85.0499 83.9386C85.0499 83.8142 85.0914 83.6732 85.1122 83.5239C85.133 83.3746 85.1579 83.1798 85.1745 82.989C85.1912 82.7983 85.2078 82.5743 85.2161 82.3836C85.2244 82.1928 85.2161 81.9689 85.2161 81.7408C85.2152 81.7117 85.2071 81.6832 85.1926 81.6579C85.1781 81.6326 85.1577 81.6113 85.133 81.5957C85.0748 81.5544 85.0049 81.5326 84.9335 81.5335C84.7772 81.5666 84.6333 81.6427 84.518 81.7533C84.2931 81.9366 84.0833 82.1377 83.8906 82.3546C83.6346 82.6368 83.3946 82.933 83.1718 83.242C82.9225 83.5852 82.6975 83.9455 82.4987 84.3201C82.4335 84.4351 82.3793 84.5559 82.3366 84.6809C82.2868 84.8177 82.241 84.9629 82.1995 85.0956C82.1579 85.2283 82.1247 85.3983 82.0956 85.5517C82.0665 85.7051 82.0499 85.842 82.0333 85.9664C82.3372 85.9013 82.6368 85.8182 82.9308 85.7176C83.2273 85.6204 83.5138 85.4954 83.7867 85.3444C83.9324 85.2583 84.0713 85.1613 84.2022 85.0541C84.3371 84.9449 84.4636 84.8257 84.5804 84.6975C84.6874 84.5779 84.7834 84.4488 84.8671 84.3118C84.9511 84.1995 85.0144 84.0731 85.054 83.9386H85.0499Z" fill="white"/>
<path d="M102.206 82.164C102.191 82.4985 102.088 82.8232 101.907 83.1053C101.682 83.4744 101.419 83.819 101.122 84.1337C100.783 84.492 100.421 84.8272 100.037 85.1372C99.6564 85.4502 99.2568 85.7397 98.8405 86.0039C98.4791 86.233 98.1014 86.4353 97.7103 86.6093C97.4324 86.7405 97.1321 86.8179 96.8253 86.8374C96.5338 86.8474 96.2454 86.774 95.9943 86.6259C95.7651 86.4871 95.5716 86.2968 95.4292 86.0702C95.273 85.825 95.154 85.5581 95.076 85.2782C94.9884 84.9782 94.9245 84.6717 94.8849 84.3617C94.7961 84.5654 94.6949 84.7635 94.5816 84.9547C94.4528 85.1704 94.3157 85.3694 94.1661 85.5892C94.0165 85.809 93.8711 86.0039 93.7215 86.178C93.5719 86.3522 93.4348 86.5222 93.306 86.6549C93.1217 86.8474 92.926 87.0288 92.7201 87.1981C92.5055 87.3713 92.2761 87.5253 92.0346 87.6584C91.7878 87.7914 91.5273 87.897 91.2576 87.9736C90.9874 88.0509 90.7076 88.09 90.4265 88.0897C90.1969 88.0949 89.9696 88.0421 89.7659 87.9362C89.5791 87.8332 89.4162 87.6919 89.288 87.5216C89.1604 87.3476 89.0647 87.1525 89.0055 86.9452C88.941 86.7342 88.9088 86.5147 88.9099 86.2941C88.9107 86.0941 88.9274 85.8944 88.9598 85.697C88.993 85.4938 89.0263 85.2823 89.0678 85.075C89.1094 84.8677 89.1468 84.6603 89.1883 84.4488C89.2299 84.2373 89.2507 84.0342 89.2673 83.8517C89.2839 83.6692 89.2673 83.549 89.2964 83.379C89.3254 83.2089 89.3171 83.0431 89.3296 82.8731C89.3421 82.703 89.3296 82.533 89.3711 82.3671C89.4127 82.2013 89.4086 82.0354 89.4335 81.8903C89.4537 81.7857 89.4829 81.683 89.5207 81.5834C89.5608 81.49 89.617 81.4043 89.6869 81.3305C89.7627 81.2529 89.855 81.1934 89.957 81.1563C90.0894 81.1058 90.2309 81.0832 90.3725 81.0899C90.5005 81.0766 90.6297 81.0958 90.7481 81.1458C90.8666 81.1959 90.9704 81.2751 91.0498 81.3761C91.1957 81.6391 91.2621 81.9387 91.2409 82.2386C91.2488 82.3767 91.2488 82.5152 91.2409 82.6533C91.2409 82.8067 91.2035 82.9643 91.1786 83.1302C91.1537 83.296 91.1246 83.4619 91.0913 83.6278C91.0581 83.7936 91.0207 83.9554 90.9833 84.1088C90.8961 84.4488 90.813 84.7806 90.7382 85.0999C90.667 85.3835 90.628 85.6742 90.6218 85.9665C90.6144 86.11 90.6445 86.2529 90.7091 86.3812C90.7275 86.4253 90.7579 86.4634 90.7968 86.4912C90.8357 86.5191 90.8815 86.5355 90.9293 86.5388C91.1698 86.5322 91.4046 86.4636 91.6107 86.3398C91.8571 86.1962 92.0881 86.0281 92.3005 85.838C92.5269 85.6341 92.7393 85.4152 92.9362 85.1828C93.1398 84.9464 93.3101 84.7308 93.4514 84.5318C93.609 84.3187 93.7481 84.0926 93.8669 83.8558C94.004 83.5863 94.137 83.3043 94.2824 83.0265C94.4279 82.7487 94.5359 82.4377 94.6605 82.1432C94.7852 81.8488 94.8891 81.5958 94.9888 81.3719C95.0918 81.1122 95.2474 80.8764 95.4458 80.6794C95.5757 80.5364 95.7557 80.4488 95.9486 80.4348C96.0962 80.426 96.2425 80.4668 96.3641 80.5509C96.4163 80.6055 96.4557 80.6711 96.4794 80.7428C96.5031 80.8145 96.5106 80.8906 96.5012 80.9655C96.4986 81.0904 96.4889 81.215 96.4721 81.3388C96.4721 81.5046 96.4306 81.6829 96.4057 81.8654C96.3807 82.0478 96.3558 82.2303 96.335 82.4003C96.3181 82.5268 96.3084 82.6542 96.3059 82.7818C96.3059 82.8648 96.3059 82.9643 96.3059 83.0804C96.3059 83.1965 96.3059 83.3168 96.3059 83.4412C96.3059 83.5656 96.3059 83.6858 96.335 83.8019C96.3641 83.918 96.3599 84.0176 96.3766 84.1005C96.3932 84.1834 96.4306 84.2954 96.4763 84.4364C96.5219 84.5789 96.5789 84.7176 96.6467 84.8511C96.7107 84.9698 96.7858 85.0823 96.871 85.1869C96.9023 85.2271 96.9419 85.26 96.9871 85.2836C97.0322 85.3073 97.0819 85.3209 97.1328 85.3238C97.4212 85.3167 97.7047 85.2474 97.9638 85.1206C98.2844 84.9709 98.5904 84.7918 98.8779 84.5857C99.1854 84.3617 99.497 84.1129 99.8086 83.8351C100.12 83.5573 100.428 83.2753 100.723 83.0057L101.084 82.6533C101.193 82.5402 101.308 82.4335 101.429 82.334C101.527 82.2486 101.631 82.1709 101.741 82.1017C101.815 82.0487 101.903 82.0172 101.994 82.0105C102.03 82.0089 102.066 82.0147 102.1 82.0275C102.133 82.0404 102.164 82.06 102.19 82.0852C102.2 82.1102 102.205 82.1369 102.206 82.164Z" fill="white"/>
<path d="M109.216 85.7841C109.214 85.8926 109.195 86.0002 109.162 86.1034C109.121 86.2328 109.059 86.3546 108.979 86.4641C108.871 86.6431 108.744 86.8099 108.601 86.9618C108.438 87.1371 108.257 87.2942 108.061 87.4303C107.858 87.5734 107.637 87.6891 107.404 87.7745C107.168 87.8647 106.917 87.9097 106.664 87.9072C106.391 87.9138 106.121 87.851 105.879 87.7248C105.647 87.6018 105.444 87.4324 105.281 87.2272C105.105 87.0071 104.965 86.7608 104.865 86.4973C104.763 86.216 104.695 85.9237 104.662 85.6265C104.443 85.9459 104.198 86.2469 103.93 86.5264C103.67 86.8058 103.385 87.0611 103.079 87.2893C102.8 87.498 102.497 87.6733 102.177 87.8118C101.903 87.9359 101.606 88.0022 101.304 88.0067C101.109 88.0086 100.917 87.9631 100.744 87.8741C100.564 87.7869 100.404 87.6642 100.274 87.5133C100.135 87.3583 100.026 87.18 99.9499 86.9866C99.8664 86.7899 99.824 86.5783 99.8253 86.3646C99.8262 86.1591 99.8428 85.9539 99.8751 85.7509C99.9125 85.5148 99.9681 85.2819 100.041 85.0542C100.126 84.7725 100.226 84.4957 100.34 84.2249C100.465 83.9305 100.619 83.607 100.802 83.2587C101.01 82.8631 101.258 82.4893 101.541 82.1432C101.813 81.8122 102.109 81.5018 102.426 81.2144C102.693 80.9732 102.984 80.7605 103.295 80.5799C103.501 80.4466 103.736 80.3655 103.98 80.3435C104.044 80.3436 104.107 80.3534 104.167 80.3726C104.238 80.3726 104.3 80.4099 104.363 80.4306L104.525 80.497C104.553 80.5122 104.584 80.522 104.616 80.526L104.666 80.497L104.782 80.4306C104.831 80.4081 104.881 80.3887 104.932 80.3726C104.984 80.3529 105.039 80.343 105.094 80.3435C105.191 80.3464 105.287 80.3719 105.372 80.4182C105.476 80.4682 105.573 80.5324 105.659 80.6089C105.75 80.6867 105.832 80.7743 105.904 80.8702C105.97 80.9558 106.017 81.0549 106.041 81.1604C106.049 81.2032 106.061 81.2449 106.079 81.2848L106.108 81.3429C106.172 81.4005 106.226 81.4676 106.27 81.5419C106.314 81.6393 106.334 81.7461 106.328 81.8529C106.321 81.9631 106.305 82.0726 106.282 82.1805C106.249 82.3423 106.207 82.5247 106.166 82.7279C106.124 82.9311 106.083 83.1426 106.05 83.3624C106.021 83.563 106.006 83.7652 106.004 83.9678C105.998 84.3663 106.028 84.7645 106.091 85.1579C106.134 85.4259 106.209 85.6877 106.315 85.9375C106.384 86.0991 106.491 86.2415 106.627 86.3522C106.727 86.4295 106.849 86.473 106.976 86.4766C107.254 86.4855 107.53 86.4196 107.774 86.2858C108.001 86.1526 108.2 85.9765 108.36 85.7675C108.405 85.7136 108.443 85.6638 108.476 85.6182C108.506 85.5795 108.54 85.5434 108.576 85.5104C108.609 85.4811 108.647 85.4573 108.688 85.4399C108.739 85.4258 108.793 85.4188 108.846 85.4192C108.933 85.4253 109.016 85.4587 109.083 85.5145C109.127 85.5437 109.162 85.5841 109.186 85.6314C109.209 85.6787 109.219 85.7314 109.216 85.7841ZM104.645 82.5206C104.657 82.2993 104.63 82.0776 104.566 81.8654C104.512 81.7285 104.45 81.6622 104.379 81.6622C104.279 81.6636 104.18 81.6863 104.088 81.7286C103.98 81.7698 103.878 81.8256 103.785 81.8944C103.689 81.9622 103.599 82.0371 103.515 82.1183C103.44 82.1927 103.369 82.2717 103.303 82.3547L102.962 82.8565C102.834 83.0431 102.705 83.2463 102.572 83.4577C102.439 83.6692 102.314 83.8724 102.189 84.1129C102.065 84.3535 101.953 84.5566 101.857 84.7723C101.766 84.9792 101.687 85.191 101.62 85.4067C101.563 85.5837 101.532 85.7681 101.529 85.9541C101.523 86.0961 101.549 86.2376 101.604 86.3688C101.628 86.4193 101.667 86.4611 101.717 86.4886C101.766 86.516 101.822 86.5278 101.878 86.5222C101.997 86.5017 102.109 86.4502 102.202 86.3729C102.367 86.2534 102.525 86.1246 102.676 85.9873C102.846 85.8338 103.016 85.6638 103.183 85.4814C103.334 85.3167 103.473 85.1406 103.598 84.9547C103.719 84.7723 103.843 84.5774 103.964 84.37C104.084 84.1627 104.196 83.9554 104.3 83.7397C104.397 83.536 104.479 83.3253 104.545 83.1094C104.609 82.9194 104.642 82.7208 104.645 82.5206Z" fill="white"/>
</g>
<defs>
<clipPath id="clip0">
<rect width="170" height="92" fill="white"/>
</clipPath>
</defs>
</svg>
