<svg width="65" height="41" viewBox="0 0 65 41" fill="none" xmlns="http://www.w3.org/2000/svg">
<path d="M59.0531 27.2348L59.0168 21.0139L65 17.6659L32.4108 0.479004L0 18.0096L12.9943 25.4703L13.0203 29.9035L13.0229 30.2575L13.1416 30.2007C13.0047 30.3866 12.9169 30.5777 12.9195 30.7689C12.9298 32.9493 21.7314 34.6748 32.5945 34.6156C43.4524 34.5587 52.241 32.7324 52.2333 30.5571C52.2333 30.3659 52.1326 30.1801 51.9983 29.9889L52.117 30.0457V29.6917L52.0937 25.2405L57.7281 21.7349L57.759 27.2427C57.139 27.5087 56.7077 28.1184 56.7127 28.8315C56.718 29.7668 57.4774 30.5235 58.4203 30.5159C59.3685 30.5106 60.1203 29.7459 60.115 28.8133C60.1097 28.1002 59.6758 27.4957 59.0531 27.2348ZM32.5866 33.1145C22.9482 33.1687 15.1308 32.1095 15.1231 30.7586C15.1155 29.4074 22.9223 28.2734 32.5609 28.2242C42.202 28.17 50.0167 29.2239 50.022 30.5724C50.0294 31.9186 42.2276 33.063 32.5866 33.1145ZM51.6492 21.6289C50.3446 20.2571 45.6687 16.6352 32.4988 16.7103C19.3107 16.7801 14.6943 20.4459 13.4052 21.8383L13.3976 20.5261C13.3976 20.5261 17.1382 14.8348 32.4888 14.7547C47.8314 14.6719 51.6418 20.3193 51.6418 20.3193L51.6492 21.6289ZM57.0486 30.8876L56.3846 40.521C58.4383 37.2944 60.1538 38.4956 60.1538 38.4956L60.1126 30.872C57.906 31.7377 57.0486 30.8876 57.0486 30.8876Z" fill="white"/>
</svg>
