<svg width="70" height="70" viewBox="0 0 70 70" fill="none" xmlns="http://www.w3.org/2000/svg">
<path d="M39.3836 10.4534C39.3983 10.3718 39.4333 10.2959 39.4333 10.2084C39.4333 9.83213 39.2933 9.49088 39.0599 9.23426L36.4583 4.03088V1.45838C36.4583 0.653379 35.8049 0 34.9999 0C34.1949 0 33.5415 0.653379 33.5415 1.45838V4.03088L30.7794 9.55801C30.7735 9.56963 30.7765 9.58426 30.7706 9.59588C30.6831 9.7825 30.6247 9.98963 30.6247 10.2113C30.6247 14.9421 30.2835 19.285 29.7031 23.3363H40.2935C39.7279 19.355 39.3954 15.0879 39.3836 10.4534Z" fill="url(#paint0_linear)"/>
<path d="M60.9753 67.6898L59.2837 65.3535C56.4749 61.4832 53.4649 57.2714 50.6387 52.4998H52.4996C53.3046 52.4998 53.958 51.8464 53.958 51.0414C53.958 50.2364 53.3046 49.583 52.4996 49.583H18.9578C18.1528 49.583 17.4994 50.2364 17.4994 51.0414C17.4994 51.8464 18.1528 52.4998 18.9578 52.4998H19.3574C16.5341 57.2744 13.5212 61.4832 10.7124 65.3535L9.02069 67.6898C8.70282 68.1332 8.65907 68.7223 8.90694 69.2094C9.15481 69.6966 9.65944 69.9998 10.2078 69.9998H21.9532C22.3673 69.9998 22.7611 69.8219 23.0411 69.5157C23.3182 69.2066 23.4494 68.7953 23.4057 68.381C23.3561 67.9552 23.3328 67.5207 23.3328 67.0832C23.3328 60.649 28.5653 55.4165 34.9994 55.4165C41.4336 55.4165 46.6661 60.649 46.6661 67.0832C46.6661 67.5207 46.6427 67.9553 46.5961 68.381C46.5494 68.7952 46.6836 69.2035 46.9607 69.5157C47.2378 69.8219 47.6316 69.9998 48.0486 69.9998H59.7939C60.3423 69.9998 60.8411 69.6964 61.0918 69.2094C61.3428 68.7223 61.2962 68.1332 60.9753 67.6898Z" fill="url(#paint1_linear)"/>
<path d="M29.5745 46.6666L32.1586 38.9141C32.357 38.3191 32.914 37.9166 33.5411 37.9166H36.4577C37.0849 37.9166 37.6419 38.3191 37.8402 38.9141L40.4244 46.6666H47.439C44.9481 41.6063 42.8511 35.8137 41.3986 29.1666H42.2883C43.0933 29.1666 43.7466 28.5132 43.7466 27.7082C43.7466 26.9032 43.0933 26.25 42.2883 26.25H27.7079C26.9029 26.25 26.2495 26.9034 26.2495 27.7084C26.2495 28.5134 26.9029 29.1668 27.7079 29.1668H28.5975C27.1479 35.8139 25.0479 41.6064 22.5571 46.6668H29.5745V46.6666Z" fill="url(#paint2_linear)"/>
<defs>
<linearGradient id="paint0_linear" x1="31.0031" y1="35.7291" x2="40.7036" y2="35.6969" gradientUnits="userSpaceOnUse">
<stop stop-color="#374283"/>
<stop offset="1" stop-color="#277CCF"/>
</linearGradient>
<linearGradient id="paint1_linear" x1="15.1928" y1="80.8422" x2="63.2694" y2="79.9395" gradientUnits="userSpaceOnUse">
<stop stop-color="#374283"/>
<stop offset="1" stop-color="#277CCF"/>
</linearGradient>
<linearGradient id="paint2_linear" x1="25.6115" y1="57.5092" x2="48.4011" y2="57.3064" gradientUnits="userSpaceOnUse">
<stop stop-color="#374283"/>
<stop offset="1" stop-color="#277CCF"/>
</linearGradient>
</defs>
</svg>
