<svg width="56" height="56" viewBox="0 0 56 56" fill="none" xmlns="http://www.w3.org/2000/svg">
<path d="M56 43.5119L55.6325 41.7803L47.7746 4.87766L47.3694 2.97959L45.4846 3.44343L43.0488 4.04138C42.6301 2.94776 41.9713 1.97693 41.0245 1.28847C40.1261 0.634563 39.0358 0.58765 38.1761 1.32618C37.1851 2.17725 37.0849 3.82733 37.1161 5.14073C37.1197 5.26427 37.1235 5.38103 37.1271 5.49763L35.5105 5.89541C35.462 5.7696 35.393 5.65466 35.3371 5.53202C34.9164 4.60388 34.3267 3.77257 33.4983 3.17056C32.5998 2.51695 31.5095 2.46973 30.6499 3.20812C29.7166 4.01136 29.5742 5.52373 29.5872 6.79534C29.5899 6.95976 29.5917 7.12011 29.5971 7.27488C29.5991 7.30067 29.5991 7.32405 29.6008 7.34924L27.9727 7.75019C27.9575 7.71338 27.9369 7.67944 27.9222 7.64263C27.8597 7.493 27.7849 7.35105 27.7142 7.2073C27.2993 6.36453 26.7415 5.60895 25.9749 5.05249C25.0757 4.39888 23.985 4.35167 23.1261 5.0902C22.2485 5.84517 22.0679 7.22992 22.0602 8.44965C22.0593 8.61452 22.0625 8.77336 22.067 8.93054C22.0699 9.02376 22.0717 9.11201 22.0753 9.20146L20.4349 9.60466C20.3953 9.50586 20.3421 9.41596 20.299 9.31897C20.2329 9.17114 20.1662 9.02452 20.0909 8.88348C19.6855 8.12443 19.1549 7.44699 18.4505 6.93533C17.5513 6.28187 16.4606 6.2345 15.6017 6.97304C14.7787 7.6811 14.5715 8.9414 14.5435 10.1025C14.5399 10.2669 14.5379 10.4257 14.5399 10.5847C14.5417 10.7453 14.5444 10.9016 14.55 11.0531L14.1247 11.1578L12.8844 11.4306C12.8233 11.2799 12.7471 11.1398 12.6768 10.9947C12.606 10.85 12.5486 10.6975 12.4688 10.5583C12.0766 9.88101 11.5696 9.28291 10.927 8.81635C10.0278 8.16274 8.93707 8.11553 8.07831 8.85406C7.309 9.51536 7.07851 10.6589 7.02753 11.7528C7.02014 11.9164 7.0138 12.0781 7.01229 12.2383C7.01139 12.4018 7.01456 12.5626 7.01923 12.7187L3.37921 13.5182L0 47.7176L11.7643 44.2696L11.864 44.7269L11.961 45.1872L12.101 45.8521L2.57521 48.8714L0.0441973 49.6749L2.51593 50.645L13.8701 55.0997L14.0649 55.1761L14.0668 55.1853L14.0801 55.1816L14.1637 55.2148L14.4678 55.1302L37.4077 48.707L38.3042 48.4563L38.3005 48.438L54.2974 43.9849L56 43.5119ZM39.4373 2.72572C39.5274 2.62329 39.5328 2.63566 39.5714 2.64305C39.8102 2.68891 40.0105 2.85378 40.2502 3.0891C40.5946 3.4294 40.8647 3.83397 41.086 4.27021C41.1246 4.34654 41.1651 4.41909 41.1999 4.49708L38.9891 5.04042C38.9855 4.93981 38.9855 4.83557 38.9855 4.73134C38.9836 3.9729 39.0625 3.15834 39.4373 2.72572ZM31.9606 4.60674C32.0487 4.50432 32.0304 4.51669 32.0689 4.52408C32.3078 4.57009 32.497 4.73481 32.7358 4.97013C33.0261 5.25583 33.2483 5.59281 33.4503 5.94835C33.5257 6.08064 33.6046 6.20961 33.6672 6.34975L32.5614 6.6442L31.6537 6.89083C31.6537 6.88208 31.6537 6.87288 31.6537 6.86428C31.6537 6.7071 31.5555 6.54554 31.5583 6.38293C31.5749 5.69433 31.6225 4.99622 31.9606 4.60674ZM23.9483 8.03317C23.98 7.42376 24.0894 6.83411 24.3883 6.48777C24.4779 6.38535 24.4834 6.39772 24.522 6.40511C24.7608 6.45112 24.9611 6.61584 25.2003 6.85115C25.4355 7.0827 25.6302 7.34773 25.8061 7.62589C25.8935 7.76406 25.9752 7.90646 26.0485 8.05384C26.0737 8.10482 26.106 8.15083 26.1294 8.20272L23.9387 8.74138C23.9369 8.66792 23.9369 8.5931 23.9369 8.51859C23.936 8.35703 23.9397 8.19503 23.9483 8.03317ZM16.8873 8.36895C16.9768 8.26653 16.9713 8.27889 17.0099 8.28629C17.2487 8.33229 17.4435 8.49702 17.6814 8.73218C17.86 8.90822 18.0134 9.10281 18.1571 9.30675C18.2521 9.4413 18.3294 9.58837 18.4102 9.73303C18.4713 9.84089 18.5403 9.94376 18.5935 10.0563C18.5985 10.0669 18.6023 10.0779 18.6059 10.0893L16.6054 10.5909C16.6054 10.4526 16.5067 10.3121 16.5094 10.1693C16.5122 10.0058 16.4746 9.8427 16.4888 9.68205C16.5364 9.15847 16.627 8.67034 16.8873 8.36895ZM8.8986 11.8198C8.9069 11.6536 8.92017 11.4887 8.94174 11.329C9.00102 10.8963 9.11763 10.506 9.33952 10.2501C9.42912 10.1477 9.43455 10.1601 9.47317 10.1675C9.71195 10.2135 9.91227 10.3782 10.1515 10.6134C10.2699 10.73 10.366 10.8656 10.4692 10.9941C10.5754 11.1277 10.6792 11.2641 10.77 11.4097C10.8569 11.5493 10.9395 11.6902 11.013 11.8378L8.88895 12.3043C8.88714 12.1435 8.88985 11.9829 8.8986 11.8198ZM37.8115 46.6256L37.3587 46.7514L36.9058 46.8772L15.4971 52.8402L14.1006 46.2084L14.0029 45.7472L13.9051 45.2845L13.7733 44.6598L13.6769 44.1979L13.5799 43.7368L7.46799 14.732L11.5829 13.717C11.7417 14.7807 11.6853 15.8861 11.4672 16.8349C11.1952 18.0157 13.0083 18.5167 13.2812 17.3354C13.5674 16.0941 13.6184 14.6557 13.3906 13.2733L19.112 11.8661C19.2654 12.9205 19.209 14.0131 18.9925 14.9538C18.7207 16.1346 20.5338 16.6355 20.8065 15.4543C21.0907 14.2213 21.1428 12.7943 20.9204 11.422L26.64 10.0157C26.7878 11.0611 26.7312 12.1426 26.5169 13.0735C26.2451 14.2543 28.0582 14.7552 28.331 13.5741C28.6133 12.3493 28.6663 10.9347 28.4494 9.57208L34.1685 8.16576C34.3118 9.20146 34.2548 10.2706 34.0418 11.1932C33.7698 12.3739 35.584 12.875 35.8567 11.6937C36.1377 10.4785 36.191 9.07505 35.9797 7.72062L40.7926 6.53755L41.2758 6.41914L41.6965 6.31536C41.7093 6.41461 41.7221 6.51206 41.7313 6.61207C41.8214 7.54398 41.757 8.48736 41.5659 9.31293C41.294 10.4937 43.1081 10.9947 43.3808 9.81358C43.6602 8.60668 43.7133 7.21559 43.5095 5.87082L45.9381 5.27332L53.7971 42.1753L37.8115 46.6256ZM21.3196 36.2288L15.5802 37.6047L14.2029 31.8649L19.9422 30.4881L21.3196 36.2288ZM22.5278 35.8651L21.1511 30.1252L26.8904 28.7485L28.2671 34.4873L22.5278 35.8651ZM28.0959 28.383L33.8344 27.0051L35.2122 32.7442L29.4731 34.1218L28.0959 28.383ZM40.7819 25.2664L42.1597 31.0052L39.5989 31.6198L39.1177 31.7355L38.6345 31.8513L36.4191 32.3823L35.0431 26.6424L39.1617 25.6536L39.6449 25.5383L40.1261 25.4226L40.7819 25.2664ZM41.9899 24.9031L47.7297 23.5262L49.1066 29.2655L43.3668 30.6425L41.9899 24.9031ZM27.6721 27.1934L26.2947 21.4541L32.034 20.0773L33.4118 25.8166L27.6721 27.1934ZM34.6151 25.4515L33.2391 19.7121L38.9799 18.3352L39.575 20.8184L39.9223 22.2706L40.2713 23.7228L40.3558 24.0745L40.2383 24.1026L39.7571 24.2183L39.2759 24.334L34.6151 25.4515ZM45.9257 16.5942L47.3026 22.3335L41.5627 23.7103L40.6094 19.7396L40.2621 18.287L40.1849 17.9709L40.2915 17.9457L40.7727 17.83L45.9257 16.5942ZM23.0538 42.8743L23.1228 43.1609L19.1346 44.1171L17.3834 44.5367L17.3035 44.2034L17.1726 43.6597L17.0623 43.2033L16.9525 42.7459L16.0059 38.798L21.7452 37.4212L22.6238 41.0842L22.7339 41.5406L22.8437 41.9989L22.9434 42.4169L23.0538 42.8743ZM30.0077 41.164L30.0684 41.4186L26.5063 42.2736L24.3281 42.7954L24.2556 42.4941L24.1458 42.035L24.0526 41.6435L23.9423 41.1862L23.8325 40.7297L22.9529 37.0557L28.6933 35.6799L29.5042 39.0654L29.6145 39.5228L29.7246 39.9793L29.7871 40.2457L29.8972 40.7039L30.0077 41.164ZM36.6055 37.9638L37.0178 39.677L35.9901 39.9241L35.5336 40.0334L35.0763 40.1435L31.2772 41.0546L31.2128 40.7828L31.1027 40.3235L30.9926 39.867L30.9356 39.6263L30.8255 39.1689L30.717 38.7116L29.9023 35.3158L35.6412 33.939L36.388 37.0499L36.4974 37.5074L36.6055 37.9638Z" fill="#016BC1"/>
</svg>
