<svg width="50" height="40" viewBox="0 0 50 40" fill="none" xmlns="http://www.w3.org/2000/svg">
<path d="M7.64958 0.900391C7.64824 0.900391 7.64672 0.900391 7.64537 0.900391C7.17248 0.900391 6.72769 1.08473 6.39183 1.41975C6.05227 1.75847 5.86523 2.20949 5.86523 2.68962V29.5188C5.86523 30.5027 6.66877 31.305 7.65665 31.3076C11.8213 31.3175 18.7988 32.1855 23.6123 37.2227V9.1452C23.6123 8.8117 23.5271 8.49839 23.3663 8.23913C19.4156 1.87682 11.8237 0.910155 7.64958 0.900391Z" fill="white"/>
<path d="M44.1355 29.519V2.68962C44.1355 2.20949 43.9485 1.75847 43.6089 1.41975C43.2731 1.08473 42.828 0.900391 42.3556 0.900391C42.354 0.900391 42.3525 0.900391 42.3512 0.900391C38.1773 0.910323 30.5853 1.87699 26.6345 8.2393C26.4737 8.49856 26.3887 8.81187 26.3887 9.14537V37.2227C31.2022 32.1855 38.1796 31.3175 42.3443 31.3076C43.332 31.305 44.1355 30.5027 44.1355 29.519Z" fill="white"/>
<path d="M48.2111 7.08789H46.9138V29.5191C46.9138 32.0311 44.8672 34.0794 42.3513 34.0856C38.8188 34.094 32.9942 34.7848 28.8691 38.689C36.0035 36.9422 43.5244 38.0777 47.8106 39.0545C48.3458 39.1764 48.8988 39.0505 49.3276 38.7087C49.7549 38.3678 50 37.8582 50 37.3112V8.87679C50.0002 7.89042 49.1975 7.08789 48.2111 7.08789Z" fill="white"/>
<path d="M3.08621 29.5191V7.08789H1.7889C0.802696 7.08789 0 7.89042 0 8.87679V37.3107C0 37.8579 0.245119 38.3673 0.672393 38.7082C1.10085 39.0498 1.65337 39.1762 2.1894 39.054C6.47561 38.0771 13.9967 36.9417 21.1307 38.6885C17.0058 34.7845 11.1812 34.0939 7.64868 34.0855C5.13301 34.0794 3.08621 32.0311 3.08621 29.5191Z" fill="white"/>
</svg>
