<svg width="70" height="70" viewBox="0 0 70 70" fill="none" xmlns="http://www.w3.org/2000/svg">
<g clip-path="url(#clip0)">
<path d="M26.0092 10.2288C24.3003 11.4683 22.8275 12.5385 22.0694 13.8654C21.4657 14.9181 21.3258 15.9301 21.6495 16.8662C22.3347 18.8493 24.7231 19.8174 28.6834 21.4214C29.9607 21.9404 31.3926 22.5209 32.9499 23.212C33.1424 23.2966 33.3436 23.3374 33.5419 23.3374C34.1019 23.3374 34.6355 23.0165 34.8776 22.4712C35.2042 21.7364 34.8747 20.8731 34.1368 20.5465C32.5475 19.8408 31.0836 19.2489 29.78 18.7181C27.38 17.7469 24.6592 16.6417 24.4083 15.9126C24.3733 15.8135 24.4492 15.583 24.6037 15.3118C25.0527 14.5273 26.3475 13.5883 27.7211 12.591C30.9406 10.2522 35.3558 7.05016 35 1.37225C34.9503 0.570239 34.2738 -0.0771651 33.4543 0.00745126C32.6523 0.0599435 32.0399 0.751091 32.0895 1.5531C32.3432 5.62699 28.978 8.07075 26.0092 10.2288Z" fill="url(#paint0_linear)"/>
<path d="M18.3043 35.5325C18.5289 35.6579 18.7738 35.7191 19.0217 35.7191C19.325 35.7191 19.6282 35.6257 19.8819 35.4363C22.145 33.7799 24.4429 32.2926 26.7118 31.0153C27.1783 30.7528 27.4642 30.2542 27.4554 29.7205C27.4467 29.184 27.1433 28.6969 26.668 28.4491C10.2234 19.9336 10.1534 16.5857 10.2 16.2329C10.2903 15.5476 10.5178 14.9672 10.8358 14.4423L14.3031 11.7768C15.3763 11.284 16.6157 10.8144 18.0534 10.3129L18.838 10.0388C23.3377 8.44365 27.5108 6.62392 29.0914 1.92874C29.348 1.16473 28.9368 0.339349 28.1757 0.0827664C27.4087 -0.165068 26.5863 0.237372 26.3268 0.998509C25.1661 4.45712 21.8066 5.8919 17.864 7.28595L17.0882 7.56003C12.6905 9.09981 8.17329 10.7096 7.37128 15.5885C7.36841 15.5972 7.36253 15.6031 7.35966 15.6118L7.11757 16.3642C6.20182 19.1929 4.81078 23.4653 7.58713 27.131C9.87628 30.1549 15.251 33.8119 18.3043 35.5325Z" fill="url(#paint1_linear)"/>
<path d="M68.5363 11.6724H67.0782V7.29801C67.0782 6.49313 66.4249 5.83984 65.62 5.83984H56.8713C56.0664 5.83984 55.4131 6.49313 55.4131 7.29801V11.6724H52.497V7.29801C52.497 6.49313 51.8437 5.83984 51.0388 5.83984H42.2901C41.4852 5.83984 40.8319 6.49313 40.8319 7.29801V11.6724H39.3738C38.5689 11.6724 37.9156 12.3256 37.9156 13.1305V29.4731C19.4561 34.1828 2.23867 56.352 0.302339 58.9123C0.109867 59.1661 0.00488281 59.4723 0.00488281 59.7931V68.5418C0.00488281 69.3467 0.658165 70 1.46305 70H10.2117C10.8825 70 11.4687 69.5421 11.629 68.8889C14.3383 57.8218 27.7267 39.537 47.9245 35.081C33.2588 42.5145 23.3348 61.7149 23.3348 68.5419C23.3348 69.3468 23.9881 70.0001 24.793 70.0001H45.2066C45.7518 70.0001 46.2505 69.6968 46.5014 69.2127C48.0003 66.3228 59.3298 58.0902 68.9359 55.3635C69.5629 55.1827 69.9945 54.6111 69.9945 53.9608V13.1334C69.9945 12.3255 69.3412 11.6724 68.5363 11.6724ZM58.3296 32.1326C55.1713 32.3279 52.1414 33.1503 49.2806 34.4306C49.4702 34.1828 49.5809 33.8736 49.5809 33.5441V29.1698C49.5809 26.758 51.5435 24.7954 53.9553 24.7954C56.367 24.7954 58.3296 26.758 58.3296 29.1698V32.1326Z" fill="url(#paint2_linear)"/>
</g>
<defs>
<linearGradient id="paint0_linear" x1="23.1421" y1="35.7308" x2="35.5445" y2="35.6783" gradientUnits="userSpaceOnUse">
<stop stop-color="#374283"/>
<stop offset="1" stop-color="#277CCF"/>
</linearGradient>
<linearGradient id="paint1_linear" x1="8.79769" y1="54.6827" x2="30.0669" y2="54.5817" gradientUnits="userSpaceOnUse">
<stop stop-color="#374283"/>
<stop offset="1" stop-color="#277CCF"/>
</linearGradient>
<linearGradient id="paint2_linear" x1="8.59642" y1="104.073" x2="72.7017" y2="103.562" gradientUnits="userSpaceOnUse">
<stop stop-color="#374283"/>
<stop offset="1" stop-color="#277CCF"/>
</linearGradient>
<clipPath id="clip0">
<rect width="70" height="70" fill="white"/>
</clipPath>
</defs>
</svg>
