<svg width="65" height="65" viewBox="0 0 65 65" fill="none" xmlns="http://www.w3.org/2000/svg">
<path d="M27.0321 26.6746L25.8042 29.3515H28.2599L27.0321 26.6746Z" fill="#016BC1"/>
<path d="M20.9506 12.0636V1.12134L10.0083 12.0636H20.9506Z" fill="#016BC1"/>
<path d="M54.2814 0H24.7792V13.9777C24.7792 15.035 23.9222 15.892 22.865 15.892H8.88672V63.0858C8.88672 64.1431 9.74365 65 10.8009 65H54.2814C55.3387 65 56.1956 64.1431 56.1956 63.0858V1.91422C56.1956 0.856934 55.3387 0 54.2814 0ZM38.1355 27.3306C37.0782 27.3306 36.2213 26.4737 36.2213 25.4164C36.2213 24.3596 37.0782 23.5022 38.1355 23.5022H39.4859V22.1518C39.4859 21.0946 40.3428 20.2376 41.4001 20.2376C42.4574 20.2376 43.3143 21.0946 43.3143 22.1518V23.5022H44.6647C45.722 23.5022 46.5789 24.3596 46.5789 25.4164C46.5789 26.4737 45.722 27.3306 44.6647 27.3306H43.3143V28.6815C43.3143 29.7383 42.4574 30.5957 41.4001 30.5957C40.3428 30.5957 39.4859 29.7383 39.4859 28.6815V27.3306H38.1355ZM18.6775 35.7046L25.2919 21.2855L25.2934 21.286C25.4779 20.8838 25.8002 20.5426 26.2337 20.3437C27.1947 19.9029 28.3309 20.3244 28.7717 21.2855L35.3862 35.7046C35.8271 36.6656 35.4055 37.8018 34.4445 38.2426C34.1861 38.3612 33.9148 38.4172 33.6475 38.4172C32.9225 38.4172 32.2287 38.0031 31.9064 37.3009L30.0165 33.1799H24.0477L22.1573 37.3009C21.8354 38.0031 21.1417 38.4172 20.4161 38.4172C20.1493 38.4172 19.8781 38.3612 19.6192 38.2426C18.6581 37.8018 18.2366 36.6656 18.6775 35.7046ZM20.4176 42.2169H44.6647C45.722 42.2169 46.5789 43.0738 46.5789 44.1311C46.5789 45.1884 45.722 46.0453 44.6647 46.0453H20.4176C19.3604 46.0453 18.5034 45.1884 18.5034 44.1311C18.5034 43.0738 19.3604 42.2169 20.4176 42.2169ZM20.4176 48.0587H36.4073C37.4641 48.0587 38.3215 48.9156 38.3215 49.9729C38.3215 51.0302 37.4641 51.8871 36.4073 51.8871H20.4176C19.3604 51.8871 18.5034 51.0302 18.5034 49.9729C18.5034 48.9156 19.3604 48.0587 20.4176 48.0587Z" fill="#016BC1"/>
</svg>
