<svg width="19" height="19" viewBox="0 0 19 19" fill="none" xmlns="http://www.w3.org/2000/svg">
<path d="M18.9584 14.7215C18.9047 14.5596 18.5628 14.321 17.9329 14.0064C17.7623 13.9073 17.5192 13.7725 17.2046 13.6016C16.8897 13.4306 16.6039 13.2731 16.3477 13.1291C16.091 12.9852 15.8504 12.8458 15.6257 12.711C15.5898 12.684 15.4773 12.6054 15.2884 12.4747C15.0993 12.3444 14.9399 12.2476 14.8092 12.1845C14.6788 12.1218 14.5505 12.0902 14.4245 12.0902C14.2446 12.0902 14.02 12.2185 13.7502 12.4747C13.4804 12.7313 13.2329 13.0099 13.0081 13.3116C12.7833 13.6131 12.5449 13.8917 12.2932 14.1481C12.0412 14.4046 11.8341 14.5328 11.6724 14.5328C11.5912 14.5328 11.49 14.5101 11.3686 14.4655C11.2474 14.4205 11.1551 14.382 11.0918 14.3509C11.029 14.3192 10.9213 14.2565 10.7683 14.1617C10.6149 14.0672 10.5297 14.0155 10.5117 14.0064C9.2793 13.3226 8.22234 12.5399 7.34064 11.6586C6.45921 10.7767 5.67643 9.71985 4.99276 8.4873C4.98378 8.46929 4.93193 8.38379 4.83754 8.23094C4.74302 8.07795 4.68001 7.97014 4.64854 7.907C4.61706 7.84409 4.57882 7.75183 4.53392 7.63041C4.48902 7.50899 4.46648 7.40784 4.46648 7.32679C4.46648 7.16496 4.5947 6.95794 4.85111 6.70602C5.10747 6.45425 5.38642 6.21576 5.68768 5.99102C5.98917 5.76628 6.26784 5.51881 6.5243 5.24902C6.78065 4.9791 6.90883 4.75431 6.90883 4.57443C6.90883 4.44856 6.87736 4.32024 6.81445 4.18984C6.75149 4.05916 6.65479 3.89969 6.5243 3.71068C6.39375 3.52177 6.31506 3.40942 6.28802 3.37326C6.15323 3.14853 6.01394 2.90791 5.86983 2.6515C5.72573 2.39514 5.56843 2.10938 5.39743 1.79456C5.22657 1.47988 5.09173 1.23689 4.99266 1.06599C4.67798 0.436387 4.43963 0.0943858 4.27766 0.0405996C4.21465 0.013612 4.12013 0 3.99431 0C3.75128 0 3.43423 0.0449006 3.04294 0.134985C2.6515 0.224928 2.34348 0.319267 2.11855 0.418379C1.66874 0.607198 1.19199 1.15593 0.688161 2.06439C0.229371 2.90984 0 3.74665 0 4.57419C0 4.81689 0.0157388 5.05302 0.0472165 5.28263C0.0786942 5.512 0.134938 5.77067 0.215996 6.0586C0.296911 6.34644 0.362182 6.56026 0.411526 6.6995C0.460917 6.83884 0.553128 7.08844 0.688114 7.4484C0.82291 7.80826 0.903967 8.02856 0.930955 8.10952C1.24578 8.99118 1.61912 9.77827 2.05087 10.471C2.76125 11.6225 3.73067 12.8124 4.95859 14.0404C6.18655 15.2683 7.37627 16.2377 8.52781 16.9484C9.22046 17.3801 10.0078 17.7534 10.8893 18.0684C10.9704 18.0953 11.1907 18.1761 11.5504 18.3114C11.9102 18.4463 12.1599 18.5385 12.2993 18.588C12.4387 18.6375 12.6525 18.7029 12.9401 18.7839C13.2283 18.865 13.4868 18.9212 13.7161 18.9529C13.9457 18.984 14.1818 19 14.4246 19C15.2521 19 16.0889 18.7705 16.9345 18.3117C17.8429 17.8081 18.3915 17.3313 18.5804 16.8811C18.6797 16.6564 18.7738 16.3483 18.8638 15.9569C18.954 15.5656 18.9988 15.2486 18.9988 15.0056C18.9991 14.8793 18.9855 14.785 18.9584 14.7215Z" fill="#FAFAFA"/>
</svg>
