<svg width="70" height="70" viewBox="0 0 70 70" fill="none" xmlns="http://www.w3.org/2000/svg">
<path d="M67.3757 55.457V21.8954H69.4528V20.108H67.2798V17.7483L66.453 16.8106V13.721C66.453 13.721 66.3442 13.021 65.8449 12.4997C65.5723 12.2121 65.1958 12.0593 64.9701 11.9814H64.6496C64.4229 12.0583 64.0414 12.2121 63.7738 12.4997C63.2715 13.021 63.1627 13.721 63.1627 13.721V16.8106L62.3398 17.7483V19.368L53.9397 14.5328H16.0643L7.65917 19.368V17.7483L6.83433 16.8106V13.721C6.83433 13.721 6.72149 13.021 6.2212 12.4997C5.95258 12.2121 5.57811 12.0593 5.34943 11.9814H5.03488C4.8072 12.0583 4.43273 12.2121 4.16012 12.4997C3.65982 13.021 3.54798 13.721 3.54798 13.721V16.8106L2.72115 17.7483V20.108H0.550222V21.8954H2.62828V55.457H0V58.0193H70V55.457H67.3757ZM64.341 17.7343H65.2777V19.7744H64.341V17.7343ZM60.7601 27.3976C60.7601 27.3976 60.9308 25.8119 62.4307 25.8119C63.9246 25.8119 64.0954 27.3976 64.0954 27.3976V31.4559H60.7601V27.3976ZM56.8396 35.6979C56.8396 35.6979 57.0104 34.1191 58.5112 34.1191C60.0081 34.1191 60.1719 35.6979 60.1719 35.6979V39.7642H56.8436V35.6979H56.8396ZM52.9242 27.3976C52.9242 27.3976 53.0959 25.8119 54.5958 25.8119C56.0927 25.8119 56.2704 27.3976 56.2704 27.3976V31.4559H52.9281V27.3976H52.9242ZM45.0852 27.3976C45.0852 27.3976 45.259 25.8119 46.7559 25.8119C48.2597 25.8119 48.4305 27.3976 48.4305 27.3976V31.4559H45.0952L45.0852 27.3976ZM48.4235 35.6979V39.7642H45.0852V35.6979C45.0852 35.6979 45.259 34.1191 46.7559 34.1191C48.2558 34.1191 48.4235 35.6979 48.4235 35.6979ZM47.9522 45.6079C51.1676 45.6079 51.5331 48.5637 51.5331 48.5637V55.46H44.3702V48.5637C44.3702 48.5637 44.7357 45.6079 47.9522 45.6079ZM38.9499 55.457H31.0531V48.328C31.0531 48.328 31.4635 45.0677 34.9995 45.0677C38.5475 45.0677 38.9499 48.328 38.9499 48.328V55.457ZM37.2503 27.3976C37.2503 27.3976 37.4281 25.8119 38.9269 25.8119C40.4198 25.8119 40.5976 27.3976 40.5976 27.3976V31.4559H37.2533V27.3976H37.2503ZM33.3309 35.6979C33.3309 35.6979 33.5066 34.1191 34.9995 34.1191C36.4984 34.1191 36.6731 35.6979 36.6731 35.6979V39.7642H33.3309V35.6979ZM29.4114 27.3976C29.4114 27.3976 29.5842 25.8119 31.081 25.8119C32.5759 25.8119 32.7507 27.3976 32.7507 27.3976V31.4559H29.4114V27.3976ZM21.5805 27.3976C21.5805 27.3976 21.7472 25.8119 23.2501 25.8119C24.752 25.8119 24.9158 27.3976 24.9158 27.3976V31.4559H21.5805V27.3976ZM21.5805 35.6979C21.5805 35.6979 21.7472 34.1191 23.2501 34.1191C24.752 34.1191 24.9158 35.6979 24.9158 35.6979V39.7642H21.5805V35.6979ZM13.7406 27.3976C13.7406 27.3976 13.9133 25.8119 15.4102 25.8119C16.9081 25.8119 17.0828 27.3976 17.0828 27.3976V31.4559H13.7406V27.3976ZM9.82311 35.6979C9.82311 35.6979 9.99387 34.1191 11.4917 34.1191C12.9886 34.1191 13.1614 35.6979 13.1614 35.6979V39.7642H9.82311V35.6979ZM5.90665 27.3976C5.90665 27.3976 6.0774 25.8119 7.57628 25.8119C9.07317 25.8119 9.24493 27.3976 9.24493 27.3976V31.4559H5.90665V27.3976ZM4.72432 17.7343H5.659V19.7744H4.72432V17.7343ZM18.4659 48.5637C18.4659 48.5637 18.8364 45.6079 22.0488 45.6079C25.2573 45.6079 25.6337 48.5637 25.6337 48.5637V55.46H18.4659V48.5637Z" fill="url(#paint0_linear)"/>
<defs>
<linearGradient id="paint0_linear" x1="8.59281" y1="82.468" x2="72.7038" y2="81.7562" gradientUnits="userSpaceOnUse">
<stop stop-color="#374283"/>
<stop offset="1" stop-color="#277CCF"/>
</linearGradient>
</defs>
</svg>
