<svg width="19" height="19" viewBox="0 0 19 19" fill="none" xmlns="http://www.w3.org/2000/svg">
<path d="M13.3371 13.6187C13.1629 13.5975 13.0058 13.7222 12.9855 13.8961C12.9653 14.0699 13.0894 14.2273 13.2629 14.2476C16.593 14.6396 18.3667 15.696 18.3667 16.3081C18.3667 17.1676 14.9935 18.3665 9.5 18.3665C4.00647 18.3665 0.633333 17.1676 0.633333 16.3081C0.633333 15.696 2.40698 14.6396 5.73705 14.2476C5.91058 14.2273 6.03472 14.0696 6.01445 13.8961C5.99387 13.7222 5.8368 13.5968 5.66295 13.6187C2.32877 14.0114 0 15.1172 0 16.3081C0 17.6457 3.26325 18.9998 9.5 18.9998C15.7367 18.9998 19 17.6457 19 16.3081C19 15.1172 16.6712 14.0114 13.3371 13.6187Z" fill="#FAFAFA"/>
<path d="M9.44407 17.3397L14.3021 10.3233C16.1242 7.89418 15.8607 3.90133 13.7381 1.77903C12.5911 0.63175 11.066 0 9.44407 0C7.8221 0 6.29703 0.63175 5.15007 1.77872C3.02745 3.90102 2.76398 7.89387 4.5788 10.3135L9.44407 17.3397ZM9.50012 3.8C10.7224 3.8 11.7168 4.79465 11.7168 6.01667C11.7168 7.23868 10.7224 8.23333 9.50012 8.23333C8.27778 8.23333 7.28345 7.23868 7.28345 6.01667C7.28345 4.79465 8.27778 3.8 9.50012 3.8Z" fill="#FAFAFA"/>
</svg>
