<svg width="52" height="52" viewBox="0 0 52 52" fill="none" xmlns="http://www.w3.org/2000/svg">
<path d="M49.3975 21.765C48.8714 21.765 48.4453 22.1917 48.4453 22.7172V26.1104C48.4453 28.0575 46.8609 29.642 44.9137 29.642H39.4865C39.2339 29.642 38.992 29.7419 38.8131 29.9205L32.2335 36.5004V30.5941C32.2335 30.0681 31.8071 29.642 31.2813 29.642H17.649C15.7018 29.642 14.1174 28.0578 14.1174 26.1104V11.7071C14.1174 9.75992 15.7018 8.17578 17.649 8.17578H44.9137C46.8609 8.17578 48.4453 9.75992 48.4453 11.7071V15.1C48.4453 15.626 48.8714 16.0521 49.3975 16.0521C49.9229 16.0521 50.3496 15.626 50.3496 15.1V11.7071C50.3496 8.70988 47.9112 6.27148 44.9137 6.27148H17.649C14.6515 6.27148 12.2131 8.70988 12.2131 11.7071V23.9395H5.28294C3.25218 23.9395 1.59961 25.5915 1.59961 27.6228V36.3969C1.59961 38.4282 3.25218 40.0802 5.28294 40.0802H8.19502L12.9141 44.7996C13.0965 44.982 13.3402 45.0787 13.5878 45.0787C13.7103 45.0787 13.8344 45.0549 13.9519 45.0061C14.3078 44.8588 14.5399 44.5118 14.5399 44.1265V40.0802H21.8923C23.9233 40.0802 25.5756 38.4282 25.5756 36.3969V31.5463H30.3292V38.799C30.3292 39.1843 30.5613 39.5312 30.9171 39.6785C31.0347 39.7273 31.1585 39.7511 31.2813 39.7511C31.5292 39.7511 31.7726 39.6544 31.9547 39.472L39.8807 31.5463H44.9137C47.9112 31.5463 50.3496 29.1079 50.3496 26.1104V22.7172C50.3496 22.1917 49.9229 21.765 49.3975 21.765ZM23.6716 36.3969C23.6716 37.3782 22.8736 38.1759 21.8923 38.1759H13.5878C13.0617 38.1759 12.6356 38.6026 12.6356 39.128V41.828L9.26262 38.455C9.08409 38.2765 8.84189 38.1759 8.58927 38.1759H5.28294C4.30192 38.1759 3.50391 37.3782 3.50391 36.3969V27.6228C3.50391 26.6418 4.30192 25.8438 5.28294 25.8438H12.2131V26.1104C12.2131 29.1079 14.6515 31.5463 17.649 31.5463H23.6716V36.3969Z" fill="#4E4E4E"/>
<path d="M40.5647 12.511H21.9978C21.472 12.511 21.0457 12.9374 21.0457 13.4631C21.0457 13.9892 21.472 14.4153 21.9978 14.4153H40.5647C41.0905 14.4153 41.5169 13.9892 41.5169 13.4631C41.5169 12.9374 41.0905 12.511 40.5647 12.511Z" fill="#4E4E4E"/>
<path d="M41.5169 18.6051C41.5169 18.0793 41.0905 17.653 40.5647 17.653H21.9978C21.472 17.653 21.0457 18.0793 21.0457 18.6051C21.0457 19.1312 21.472 19.5573 21.9978 19.5573H40.5647C41.0905 19.5573 41.5169 19.1312 41.5169 18.6051Z" fill="#4E4E4E"/>
<path d="M21.9978 22.7946C21.472 22.7946 21.0457 23.2209 21.0457 23.7467C21.0457 24.2728 21.472 24.6989 21.9978 24.6989H32.7095C33.2352 24.6989 33.6616 24.2728 33.6616 23.7467C33.6616 23.2209 33.2352 22.7946 32.7095 22.7946H21.9978Z" fill="#4E4E4E"/>
<path d="M49.3975 17.9564C48.8732 17.9564 48.4453 18.3843 48.4453 18.9086C48.4453 19.4331 48.8732 19.8607 49.3975 19.8607C49.9217 19.8607 50.3496 19.4331 50.3496 18.9086C50.3496 18.3843 49.9217 17.9564 49.3975 17.9564Z" fill="#4E4E4E"/>
</svg>
