<svg width="70" height="70" viewBox="0 0 70 70" fill="none" xmlns="http://www.w3.org/2000/svg">
<path d="M64.7555 65.371V54.8856H65.1006C65.1006 54.8856 65.1967 53.4802 64.9049 52.8256C64.6132 52.1744 63.7379 52.2171 63.7379 52.2171C63.7379 52.2171 63.6347 51.5198 63.0014 50.7228C62.7524 50.4168 62.3503 50.2638 61.9874 50.1713V46.0511H62.8022V44.3077H62.3574C62.8698 43.8416 64.3748 42.2298 63.987 40.0488C63.4924 37.2344 59.5395 35.9073 58.561 33.0645C58.1768 31.9472 57.9384 31.0293 57.8032 30.3141V25.7955H58.7069V25.4966H57.8032V24.6427H57.4758V25.4966H56.5614V25.7884H57.4758V29.5634C57.3584 30.307 57.12 31.4883 56.5757 33.0573C55.6008 35.9002 51.6301 37.2273 51.1533 40.0417C50.7655 42.2227 52.2634 43.8309 52.7793 44.3006H52.3345V46.0405H52.9536V50.1677C51.5411 50.3848 51.4308 52.1282 51.4308 52.1282C51.4308 52.1282 51.0145 52.0855 50.4986 52.3666V48.3638H50.5235C50.5235 48.3638 52.3025 46.8624 51.936 44.7062C51.5874 42.607 49.0256 41.4969 47.9475 39.572C47.9689 39.4546 48.0294 39.1202 48.0792 38.5153C48.1574 37.729 47.4957 36.9996 47.4957 36.9996C47.4957 36.9996 47.4245 36.4054 47.6415 35.6227C47.8621 34.8292 46.9798 34.0536 47.0545 33.7867C47.1292 33.5305 46.3962 32.2853 46.4674 31.8832C46.5279 31.5772 46.3678 30.492 46.2931 29.9797H46.688V29.389H45.0335L41.1126 14.8795V13.4563H41.383V10.674H41.6036V9.72044C41.9487 9.33974 42.6924 8.31148 42.2156 7.14801C41.8456 6.23005 39.8033 4.26248 39.5364 3.63271C39.3585 3.19508 39.3052 2.8464 39.2909 2.67205V0.903731H40.0025V0.679577H39.2909V0H39.0312V0.679577H38.3196V0.900173H39.0312V2.78235C39.0098 2.97448 38.9387 3.27336 38.7892 3.63271C38.5331 4.26604 36.4837 6.23361 36.1101 7.15157C35.6369 8.31148 36.3876 9.33974 36.7256 9.72044V10.674H36.9142V13.4528H37.2131V14.876L33.2957 29.389H31.3886V29.9797H32.1607C31.8832 30.5063 32.2248 31.6804 31.9757 32.086C31.6804 32.5379 31.8227 33.7867 31.3886 34.3845C30.951 34.968 31.168 36.4054 31.168 36.4054C31.168 36.4054 30.8763 36.6011 30.7304 36.996C30.5987 37.3625 30.8905 38.3979 30.6592 39.2127C29.2787 38.0172 27.4677 36.9533 26.8415 35.3629C26.3718 34.1639 26.1192 33.2032 25.9947 32.5379H25.9876V29.3463H26.8664V29.0831H25.9876V28.2825H25.6958V29.0831H24.9131V29.3463H25.6958V32.5628C25.5677 33.2317 25.3222 34.1745 24.8561 35.3629C24.2548 36.9 22.5506 37.9353 21.1985 39.0703C19.6793 37.7752 17.7935 36.5798 17.1211 34.8221C16.566 33.3704 16.2885 32.2319 16.1462 31.4598V27.6634H16.9787V27.4001H16.1462V26.6138H15.8544V27.4001H15.0218V27.6634H15.8544V31.4562C15.7085 32.2319 15.431 33.3704 14.876 34.8221C13.7588 37.7503 9.26856 39.1166 8.70996 42.0057C8.26521 44.2864 10.0513 45.9551 10.5886 46.4141V61.3754C9.96593 60.856 9.36463 60.3187 9.1049 59.6249C8.82382 58.8813 8.67082 58.2906 8.58899 57.8637V56.412H9.22587V56.2057H8.59255V55.6008H8.36839V56.2057H7.73507V56.412H8.36839V57.9775C8.27944 58.3938 8.13712 58.9417 7.88095 59.6249C7.26541 61.2509 4.8104 62.0194 4.50441 63.6134C4.23756 64.9868 5.40102 65.9617 5.5896 66.1147V70H65.5383V65.371H64.7555Z" fill="url(#paint0_linear)"/>
<defs>
<linearGradient id="paint0_linear" x1="11.9619" y1="107.174" x2="67.9019" y2="106.818" gradientUnits="userSpaceOnUse">
<stop stop-color="#374283"/>
<stop offset="1" stop-color="#277CCF"/>
</linearGradient>
</defs>
</svg>
