<svg width="65" height="51" viewBox="0 0 65 51" fill="none" xmlns="http://www.w3.org/2000/svg">
<path d="M60.3629 15.4584C60.1001 13.4825 60.063 10.0792 61.8983 8.93647C61.9311 8.91552 61.9555 8.88526 61.9842 8.85927C63.4847 8.37935 64.5231 7.70584 63.708 6.79955L41.5741 0.130371L5.73426 5.11324C5.73426 5.11324 1.63016 5.69985 1.99678 12.0761C2.19581 15.5465 3.28425 17.2508 4.23613 18.0896L1.29515 18.9759C0.478863 19.8822 1.51706 20.5559 3.01772 21.0351C3.04624 21.0618 3.07029 21.0919 3.10365 21.1129C4.93777 22.2566 4.90246 25.6595 4.63865 27.6358C-1.95039 29.5067 0.414848 30.1164 0.414848 30.1164L1.86022 30.4662C0.843552 31.3849 -0.166132 33.1271 0.0230017 36.4312C0.389825 42.8063 3.76087 43.2463 3.76087 43.2463L27.2143 50.8694L62.6143 42.295C62.6143 42.295 64.9803 41.6843 58.3895 39.8131C58.1246 37.8399 58.0877 34.4374 59.9261 33.2908C59.9598 33.2704 59.9845 33.2396 60.0118 33.214C61.5125 32.7341 62.5499 32.0611 61.7346 31.1548L60.1959 30.6902C61.2221 30.0714 62.7635 28.4542 63.005 24.2533C63.1716 21.3637 62.4178 19.6714 61.5453 18.6751L64.5865 17.9391C64.5867 17.9402 66.9528 17.3296 60.3629 15.4584ZM30.7529 15.3767L36.7059 14.1533L56.8235 10.0191L59.8208 9.40262C58.8631 11.1555 58.9032 13.5543 59.0617 15.0961C59.0964 15.4448 59.1364 15.7634 59.1752 16.0055L55.8945 16.8212L30.5027 23.1379L30.7529 15.3767ZM5.18141 21.5809L8.17826 22.1974L27.4984 26.1691L29.1863 26.5147L34.2479 27.5551L34.4976 35.3164L8.40018 28.8235L5.82738 28.1842C5.8652 27.9417 5.90516 27.6235 5.94144 27.2738C6.09895 25.7332 6.13988 23.3338 5.18141 21.5809ZM4.01712 11.7692C3.98085 10.0732 4.28307 8.84666 4.89393 8.22319C5.28267 7.82514 5.74144 7.74231 6.05608 7.74231C6.22233 7.74231 6.34202 7.76539 6.35016 7.76539L21.7926 12.7999L29.4971 15.3118L29.2443 23.1272L7.63026 17.0675L6.48964 16.748C6.44774 16.7362 6.3909 16.728 6.34706 16.7261C6.25802 16.7197 4.1211 16.523 4.01712 11.7692ZM27.2701 47.4834L4.51605 41.1041C4.47395 41.0919 4.4177 41.0837 4.37386 41.0816C4.28327 41.0756 2.14538 40.8791 2.04198 36.1265C2.00513 34.4283 2.3089 33.2029 2.91859 32.5789C3.30831 32.1808 3.76727 32.098 4.08133 32.098C4.24796 32.098 4.36726 32.1203 4.37599 32.1203C4.37599 32.1203 4.37696 32.1203 4.37599 32.1203L27.5213 39.6678L27.2701 47.4834ZM57.0864 39.4511C57.1222 39.8011 57.1622 40.119 57.201 40.3615L28.5279 47.4945L28.7785 39.7332L34.9086 38.4729L35.8139 38.6919L39.2071 37.5891L54.8482 34.375L57.8466 33.7581C56.8879 35.5107 56.9277 37.9105 57.0864 39.4511ZM58.6658 28.9033C58.6136 28.9044 58.5614 28.9114 58.5123 28.9269L56.3498 29.5324L35.7588 35.3061L35.507 27.4907L42.2627 25.2872L58.6208 19.9524C58.6229 19.9515 59.4813 19.7608 60.1113 20.4015C60.7212 21.025 61.0238 22.2515 60.9881 23.9475C60.8815 28.6998 58.7436 28.8972 58.6658 28.9033Z" fill="#016BC1"/>
</svg>
