<svg width="35" height="35" viewBox="0 0 35 35" fill="none" xmlns="http://www.w3.org/2000/svg">
<path d="M24.5682 25.0874C24.2474 25.0483 23.9581 25.2782 23.9207 25.5984C23.8834 25.9187 24.1121 26.2086 24.4317 26.2459C30.5661 26.9681 33.8333 28.9141 33.8333 30.0417C33.8333 31.6248 27.6197 33.8333 17.5 33.8333C7.38033 33.8333 1.16667 31.6248 1.16667 30.0417C1.16667 28.9141 4.43392 26.9681 10.5682 26.2459C10.8879 26.2086 11.1166 25.9181 11.0792 25.5984C11.0413 25.2782 10.752 25.0472 10.4317 25.0874C4.28983 25.8107 0 27.8477 0 30.0417C0 32.5057 6.01125 35 17.5 35C28.9887 35 35 32.5057 35 30.0417C35 27.8477 30.7102 25.8107 24.5682 25.0874Z" fill="url(#paint0_linear)"/>
<path d="M17.3966 31.9416L26.3455 19.0167C29.702 14.5419 29.2167 7.18667 25.3066 3.27717C23.1937 1.16375 20.3844 0 17.3966 0C14.4087 0 11.5994 1.16375 9.48657 3.27658C5.57648 7.18608 5.09115 14.5413 8.43423 18.9986L17.3966 31.9416ZM17.4998 7C19.7515 7 21.5832 8.83225 21.5832 11.0833C21.5832 13.3344 19.7515 15.1667 17.4998 15.1667C15.2482 15.1667 13.4165 13.3344 13.4165 11.0833C13.4165 8.83225 15.2482 7 17.4998 7Z" fill="url(#paint1_linear)"/>
<defs>
<linearGradient id="paint0_linear" x1="4.29641" y1="40.2665" x2="36.3346" y2="39.4409" gradientUnits="userSpaceOnUse">
<stop stop-color="#374283"/>
<stop offset="1" stop-color="#277CCF"/>
</linearGradient>
<linearGradient id="paint1_linear" x1="8.9561" y1="48.9043" x2="29.447" y2="48.7995" gradientUnits="userSpaceOnUse">
<stop stop-color="#374283"/>
<stop offset="1" stop-color="#277CCF"/>
</linearGradient>
</defs>
</svg>
