<svg width="40" height="40" viewBox="0 0 40 40" fill="none" xmlns="http://www.w3.org/2000/svg">
<path d="M2.0487 16.9864C1.77239 16.2158 1.62627 14.6291 3.76495 12.6587C3.78957 12.6365 3.80926 12.6187 3.83388 12.5964C5.1583 11.3984 7.05003 10.3228 9.1799 9.55992C9.57235 9.41977 9.95941 9.29345 10.3455 9.18589L10.3469 9.15776C10.4538 7.49449 11.8668 6.21629 13.5324 6.27625L21.6917 6.56757C22.771 6.60285 23.7908 7.07698 24.5167 7.87951L37.4456 22.1724C38.4878 23.3245 38.3985 25.1062 37.2464 26.1483L27.7441 34.7439C26.592 35.786 24.8103 35.6967 23.7682 34.5446L10.8392 20.2517C10.4696 19.8431 10.1881 19.3636 10.021 18.8523C8.63266 19.1682 7.29569 19.3033 6.1191 19.2397C3.22742 19.0713 2.32501 17.757 2.0487 16.9864ZM27.6703 16.6109C26.7706 15.6164 25.2234 15.5389 24.2289 16.4385C23.2343 17.3381 23.1568 18.8854 24.0564 19.8799C24.9561 20.8745 26.5033 20.952 27.4978 20.0524C28.4924 19.1527 28.5694 17.6149 27.6703 16.6109ZM30.4096 22.727C30.4542 22.4002 30.2294 22.1023 29.9076 22.0532L19.9906 20.6304C19.6638 20.5858 19.3659 20.8106 19.3168 21.1324C19.2722 21.4592 19.497 21.7572 19.8189 21.8062L29.7358 23.2291C30.0626 23.2737 30.3606 23.0489 30.4096 22.727ZM25.4838 27.4156C26.4783 26.5159 26.5558 24.9687 25.6562 23.9742C24.7566 22.9796 23.2093 22.9021 22.2148 23.8017C21.2202 24.7014 21.1427 26.2486 22.0424 27.2431C22.942 28.2377 24.4892 28.3152 25.4838 27.4156ZM11.4729 15.9545C12.7173 15.5092 13.8883 14.9333 14.851 14.2953C14.8866 14.3347 14.9128 14.3736 14.9485 14.413C15.8125 15.3681 17.2847 15.4419 18.2398 14.5779C19.195 13.7139 19.2688 12.2417 18.4048 11.2865C17.5408 10.3314 16.0685 10.2576 15.1134 11.1216C14.5423 11.6382 14.2895 12.3682 14.3574 13.0767C13.4301 13.6648 12.3365 14.1975 11.1685 14.6184C10.7568 14.767 10.3604 14.8928 9.97427 15.0004L10.1807 11.7252C10.1136 11.7501 10.0466 11.7749 9.97508 11.7948C8.15631 12.4463 6.50207 13.3787 5.4189 14.3585C5.40413 14.3719 5.38444 14.3897 5.36967 14.4031C4.33972 15.3526 4.20462 15.9851 4.27915 16.1863C4.50671 16.804 7.22251 17.4806 11.4729 15.9545Z" fill="url(#paint0_linear)"/>
<defs>
<linearGradient id="paint0_linear" x1="48.8083" y1="38.9372" x2="33.1315" y2="52.9714" gradientUnits="userSpaceOnUse">
<stop stop-color="#374283"/>
<stop offset="1" stop-color="#277CCF"/>
</linearGradient>
</defs>
</svg>
