<svg width="19" height="16" viewBox="0 0 19 16" fill="none" xmlns="http://www.w3.org/2000/svg">
<path d="M9.6414 9.42395C9.64763 9.42395 9.65383 9.42395 9.66006 9.42358C9.79373 9.41738 9.91886 9.37949 10.0343 9.31032C10.1551 9.23647 10.2546 9.13019 10.3405 8.96008L13.5414 0.538185C13.5858 0.421439 13.5721 0.290405 13.5045 0.184866C13.4369 0.0797355 13.3231 0.0124563 13.1975 0.00355007C12.8874 -0.0173425 12.566 0.0542044 12.2936 0.21229L0.689056 6.93287C0.395261 7.10294 0.167929 7.36119 0.0319228 7.68011C-0.0170616 7.79414 -0.0092686 7.92444 0.0525185 8.0319C0.114306 8.13937 0.223519 8.21166 0.346685 8.22751L9.59011 9.42046C9.60722 9.4228 9.62429 9.42395 9.6414 9.42395Z" fill="#FAFAFA"/>
<path d="M18.7897 8.32414L14.7785 1.35459C14.7019 1.222 14.5558 1.14663 14.4015 1.15665C14.248 1.16901 14.1151 1.26798 14.0607 1.41141L11.0661 9.29017L11.0292 9.36476C10.8947 9.6226 10.6938 9.83753 10.4474 9.98675C10.2003 10.1367 9.915 10.216 9.6189 10.216L9.53886 10.2125L0.845725 9.0903C0.69688 9.07059 0.548071 9.13747 0.463722 9.26234C0.37978 9.38758 0.373954 9.54879 0.448952 9.67945L3.07967 14.2499H1.98135C1.76158 14.2499 1.58342 14.4271 1.58342 14.6458V15.4374C1.58342 15.6561 1.76158 15.8333 1.98135 15.8333H17.011C17.2308 15.8333 17.4089 15.6561 17.4089 15.4374V14.6458C17.4089 14.4271 17.2308 14.2499 17.011 14.2499H11.7073L18.2114 10.4831C18.9645 10.0471 19.2237 9.07831 18.7897 8.32414Z" fill="#FAFAFA"/>
</svg>
