<svg width="16" height="16" viewBox="0 0 16 16" fill="none" xmlns="http://www.w3.org/2000/svg">
<path d="M15.0893 2.62506C14.8634 2.39887 14.5953 2.28576 14.2858 2.28576H13.1431V1.42858C13.1431 1.0358 13.0031 0.699469 12.7233 0.419706C12.4435 0.139944 12.1073 0 11.7143 0H11.1431C10.7501 0 10.4138 0.139944 10.1341 0.419737C9.85423 0.699469 9.71435 1.03583 9.71435 1.42861V2.28579H6.28596V1.42861C6.28596 1.03583 6.14602 0.6995 5.86622 0.419737C5.58649 0.139944 5.25019 0 4.85725 0H4.28588C3.89303 0 3.5567 0.139944 3.2769 0.419737C2.99717 0.699469 2.8572 1.03583 2.8572 1.42861V2.28579H1.71444C1.40485 2.28579 1.13703 2.3989 0.910838 2.6251C0.684645 2.85126 0.571533 3.1192 0.571533 3.4287V14.8573C0.571533 15.1666 0.684645 15.4344 0.910838 15.6608C1.137 15.8869 1.40482 16 1.71444 16H14.2856C14.5951 16 14.8632 15.8869 15.0891 15.6608C15.3153 15.4345 15.4285 15.1665 15.4285 14.8573V3.42867C15.4284 3.11907 15.3154 2.85126 15.0893 2.62506ZM10.8574 1.42871C10.8574 1.34531 10.8839 1.27679 10.9374 1.22334C10.9909 1.16984 11.0594 1.14304 11.1429 1.14304H11.7142C11.7977 1.14304 11.8659 1.16974 11.9196 1.22334C11.9732 1.27688 11.9999 1.3454 11.9999 1.42871V4.00005C11.9999 4.08342 11.9732 4.15181 11.9196 4.20541C11.8659 4.25886 11.7977 4.28572 11.7142 4.28572H11.1429C11.0594 4.28572 10.9909 4.25898 10.9374 4.20541C10.8839 4.15178 10.8574 4.08342 10.8574 4.00005V1.42871ZM4.0002 1.42871C4.0002 1.34531 4.02694 1.27679 4.08051 1.22334C4.13411 1.16984 4.2025 1.14304 4.28588 1.14304H4.85725C4.94066 1.14304 5.00917 1.16974 5.06262 1.22334C5.11613 1.27688 5.14299 1.3454 5.14299 1.42871V4.00005C5.14299 4.08342 5.11625 4.15191 5.06262 4.20541C5.00905 4.25886 4.94066 4.28572 4.85725 4.28572H4.28588C4.2025 4.28572 4.13402 4.25898 4.08051 4.20541C4.02707 4.15178 4.0002 4.08342 4.0002 4.00005V1.42871ZM14.2856 14.8571H1.71444V5.71433H14.2856V14.8571Z" fill="#4E4E4E"/>
</svg>
