<svg width="70" height="70" viewBox="0 0 70 70" fill="none" xmlns="http://www.w3.org/2000/svg">
<path d="M38.44 25.8951L35.0207 29.3072L34.9958 29.3036C34.978 29.3036 34.9709 29.3214 34.9496 29.3214L32.4519 26.8095L31.7758 27.4962L34.2985 30.0117C34.2985 30.4066 34.6151 30.7233 34.9994 30.7233C35.3908 30.7233 35.7074 30.4066 35.7074 30.0117C35.7074 30.0081 35.7003 30.001 35.7003 29.9939L39.1195 26.5782L38.44 25.8951ZM42.7558 66.3922V36.3556H43.3358V24.1019H43.5386V23.1554H42.1901V21.7322L39.0306 15.8224H39.0448V11.7129H38.9843C38.7388 11.1436 35.4014 1.48013 35.1631 0H34.8322C34.5973 1.48013 31.2493 11.1436 31.018 11.7129H30.9468V15.8188L27.8158 21.7322H27.8087V23.1554H26.4566V24.1019H26.6701V36.352H27.2465V66.3922H24.7915V70H45.2073V66.3922H42.7558ZM34.9958 36.071C31.6549 36.071 28.9437 33.3562 28.9437 30.0117C28.9437 26.6707 31.6549 23.956 34.9958 23.956C38.3368 23.956 41.0515 26.6672 41.0515 30.0117C41.0515 33.3562 38.3439 36.071 34.9958 36.071Z" fill="url(#paint0_linear)"/>
<defs>
<linearGradient id="paint0_linear" x1="27.2976" y1="107.174" x2="45.9981" y2="107.134" gradientUnits="userSpaceOnUse">
<stop stop-color="#374283"/>
<stop offset="1" stop-color="#277CCF"/>
</linearGradient>
</defs>
</svg>
