<svg width="70" height="70" viewBox="0 0 70 70" fill="none" xmlns="http://www.w3.org/2000/svg">
<path d="M66.9277 65.4434V37.9388H68.0706V30.2194H66.5098V27.4902H67.014V26.4095H51.3023V24.1858L44.6903 24.1865C44.7344 23.9672 44.5712 23.5184 44.6147 23.2329C44.6843 22.7661 44.6548 22.4591 44.6501 22.0037C44.6488 21.7803 45.2199 20.2368 45.6219 20.6174C45.5503 20.7932 45.1397 21.1865 45.5657 21.1651C45.9622 21.1463 46.1649 21.0949 46.4498 20.8287C46.6283 21.1076 46.8985 21.0674 47.0022 21.4667C47.1158 21.8967 46.8604 22.318 46.944 22.738C47.0035 23.0409 46.4351 23.2355 46.6404 23.7043C46.8758 24.2454 47.2443 23.7297 47.3686 23.4629C47.5352 23.1065 47.4262 22.4598 47.4415 22.0652C47.4556 21.7268 47.5907 21.2875 47.5519 20.9618C47.5345 20.8126 47.4649 20.6093 47.4449 20.4876C47.3914 20.489 47.1312 20.384 47.1092 20.3278C46.8677 20.41 47.0135 19.7279 47.0122 19.6925C47.0002 19.1073 47.5459 18.373 46.9674 17.9711C46.8296 17.8755 46.8256 17.4976 46.7327 17.3411C46.2672 17.1706 47.1613 16.6864 47.1894 16.6617C47.3178 16.5513 48.0514 16.2383 47.7786 15.8792C47.5298 15.5549 47.7318 15.2366 47.7177 14.8835C47.7104 14.7062 47.8836 14.5517 47.901 14.3712C47.8863 14.2354 47.8328 14.1177 47.7405 14.0174C47.6134 13.6162 47.9331 13.5901 48.0474 13.2697C47.4609 13.3747 47.1887 12.7862 46.621 12.9233C46.195 13.027 45.7315 13.564 45.5222 13.9278C45.2333 14.4274 45.0768 15.0613 44.9083 15.6064C44.8187 15.8946 44.6107 16.4316 44.4054 16.9874C44.2001 17.5431 42.6686 17.4796 42.2313 18.0988C41.2495 19.4892 42.3316 22.1675 42.3316 22.1675C42.3831 22.6731 42.1249 23.709 42.4025 24.1644C42.4065 24.1705 42.4078 24.1798 42.4118 24.1858H40.7319L40.982 23.4027L41.0094 21.88C41.8782 19.4691 40.4096 16.8369 40.4096 16.8369C40.3668 16.566 40.2758 16.2704 40.2765 15.9922C40.5239 15.8404 40.871 15.601 40.669 15.3355C40.6229 15.2753 40.5961 15.2158 40.5768 15.1556C40.6711 14.8741 40.651 14.6661 40.5975 14.5243C40.6055 14.4635 40.6102 14.4019 40.6082 14.3398C40.6008 14.1625 40.774 14.008 40.7914 13.8275C40.7767 13.6917 40.7232 13.574 40.6309 13.473C40.5039 13.0725 40.8235 13.0457 40.9379 12.7254C40.3514 12.8304 40.0792 12.2419 39.5114 12.379C39.0854 12.4819 38.622 13.019 38.4127 13.3834C38.3117 13.558 38.2308 13.7512 38.1552 13.9492C38.1197 13.7753 38.0803 13.6075 38.0067 13.4476C37.8522 13.1052 37.6095 12.9287 37.2624 12.9755C36.9086 13.0243 36.823 13.2998 36.8545 13.6315C36.8685 13.774 36.8953 13.9746 36.6659 13.9806C36.3689 13.988 36.165 13.7854 35.9657 13.6008C35.7791 13.4276 35.8406 13.2296 35.947 13.041C36.0546 12.8491 36.1824 12.6679 36.276 12.4699C36.3977 12.2118 36.3201 11.959 36.066 11.87C35.8099 11.7804 35.6875 11.3277 35.3237 11.5644C35.0595 11.7363 34.897 11.7784 34.798 11.6654V8.50285C35.5858 8.37913 36.1797 7.70235 36.1797 6.89918C36.1797 6.07259 35.5852 5.40384 34.798 5.27343L34.7151 5.2741V5.20522C36.7602 4.99188 36.5094 2.68066 36.5094 2.68066C36.5094 2.68066 35.2896 2.99097 34.897 3.81755C34.8535 3.47782 34.679 3.21099 34.4837 3.20965C34.4837 3.20965 34.4837 3.20965 34.4831 3.20965C34.4831 3.20965 34.4831 3.20965 34.4824 3.20965C34.2871 3.21032 34.1126 3.47715 34.0691 3.81755C33.6772 2.99164 32.4574 2.68066 32.4574 2.68066C32.4574 2.68066 32.2066 4.99188 34.251 5.20522V5.28681C33.4839 5.42189 32.9041 6.08196 32.9041 6.90185C32.9041 7.70837 33.4973 8.38181 34.2838 8.50486V11.5958C34.2784 11.6005 34.2764 11.6065 34.2704 11.6112C33.6712 12.0901 33.2907 12.7929 32.6353 13.2189C32.442 13.3446 32.3731 13.5406 32.3343 13.8007C32.1859 14.7858 32.3832 15.7435 32.4788 16.7098C32.4935 16.8583 32.5189 17.8808 32.5189 17.8808L31.5198 17.2569C31.4884 17.1967 31.4556 17.1352 31.4342 17.0716C31.4342 17.0703 31.4335 17.0689 31.4335 17.0669C31.4275 16.5747 31.4195 16.12 31.4309 15.8645C31.4569 15.2941 31.5238 14.6447 31.4215 14.0769C31.3479 13.6636 31.0931 13.0016 30.7273 12.7601C30.2398 12.4391 29.7837 12.9006 29.2681 12.603C29.2674 12.9434 29.5597 13.0765 29.3035 13.4109C29.1825 13.4737 29.0929 13.5673 29.032 13.6897C28.9879 13.8649 29.0982 14.0689 29.032 14.2334C28.9003 14.5604 28.9812 14.9289 28.6381 15.1496C28.2596 15.395 28.6769 15.9715 28.8709 16.2036C29.0655 16.4363 29.5302 16.3848 29.5302 16.3848C29.4915 16.538 29.4574 16.6904 29.4406 16.8422C29.4406 16.8422 27.954 18.3677 29.2333 21.67L29.4139 23.279C29.5376 23.59 29.6847 23.8882 29.8319 24.1872H27.5868C27.5909 24.1805 27.5922 24.1705 27.5962 24.1638C27.8744 23.7084 27.6163 22.6724 27.6678 22.1669C27.6678 22.1669 28.7498 19.4885 27.7681 18.0982C27.3307 17.4796 25.7993 17.5431 25.594 16.9867C25.388 16.4303 25.1807 15.8939 25.091 15.6057C24.9225 15.0607 24.766 14.4267 24.4778 13.9271C24.2678 13.5633 23.8044 13.0263 23.3784 12.9227C22.8113 12.7856 22.5384 13.3741 21.9526 13.2691C22.0669 13.5894 22.3866 13.6162 22.2589 14.0167C22.1666 14.1171 22.1131 14.2354 22.0984 14.3705C22.1158 14.5511 22.289 14.7049 22.2816 14.8828C22.2682 15.2359 22.4695 15.5542 22.2214 15.8786C21.9479 16.2377 22.6815 16.5507 22.8099 16.661C22.838 16.6851 23.7321 17.1699 23.266 17.3405C23.1737 17.4969 23.1697 17.8755 23.0319 17.9704C22.4535 18.3723 22.9985 19.1073 22.9871 19.6918C22.9865 19.7272 23.1323 20.4094 22.8902 20.3271C22.8688 20.3826 22.6086 20.4883 22.5545 20.487C22.5344 20.6087 22.4655 20.812 22.4475 20.9611C22.4093 21.2868 22.5438 21.7262 22.5578 22.0645C22.5732 22.4591 22.4642 23.1058 22.6307 23.4622C22.7551 23.7284 23.1236 24.244 23.359 23.7037C23.5636 23.2349 22.9958 23.0396 23.0547 22.7373C23.1383 22.3173 22.8835 21.896 22.9972 21.466C23.1015 21.0668 23.371 21.1069 23.5496 20.828C23.8338 21.0942 24.0371 21.1457 24.4337 21.1644C24.8597 21.1851 24.449 20.7919 24.3782 20.6167C24.7807 20.2362 25.3512 21.779 25.3499 22.003C25.3465 22.4591 25.3157 22.7654 25.386 23.2322C25.4288 23.5184 25.2649 23.9698 25.3104 24.1885L18.5974 24.1892V26.4128H2.57404V27.4969H3.56581V30.2294H1.61906V37.9462H2.73655V65.4421H0V67.3186H70V65.4421H66.9277V65.4434ZM46.7293 15.7087C47.0684 15.9227 46.7434 15.8752 46.7547 16.0036C46.7534 15.9795 46.8249 16.4156 46.8136 16.3641C46.8644 16.5894 47.1052 16.5573 46.849 16.6985C46.7795 16.77 46.7139 16.7774 46.6537 16.7199C46.6043 16.457 46.5768 15.9414 46.7293 15.7087ZM23.3469 16.7199C23.2867 16.7774 23.2212 16.77 23.1517 16.6985C22.8949 16.5573 23.1363 16.5894 23.1864 16.3641C23.1751 16.4162 23.2473 15.9795 23.2453 16.0036C23.2566 15.8745 22.933 15.922 23.272 15.7087C23.4238 15.9414 23.3964 16.457 23.3469 16.7199ZM8.9105 65.4427V38.5153H13.0407L13.0448 65.4427H8.9105ZM23.5583 65.4427H19.4267V38.5153H23.5583V65.4427ZM33.6478 7.10315C33.5501 6.92191 33.5501 6.83163 33.6478 6.6504C33.9213 6.69654 34.0805 6.70323 34.3172 6.67247C34.348 6.43573 34.3413 6.27656 34.2958 6.00371C34.477 5.90607 34.5673 5.90607 34.7486 6.00371C34.7024 6.27656 34.6957 6.4364 34.7265 6.67247C34.9632 6.70323 35.1224 6.69654 35.3959 6.6504C35.4942 6.83163 35.4942 6.92191 35.3959 7.10315C35.1224 7.05767 34.9639 7.05098 34.7265 7.08175C34.6957 7.31849 34.7024 7.47765 34.7486 7.7505C34.5673 7.84814 34.4764 7.84814 34.2958 7.7505C34.3413 7.47765 34.348 7.31782 34.3172 7.08175C34.0805 7.05098 33.9213 7.057 33.6478 7.10315ZM33.918 12.8217C34.0029 12.6498 34.0811 12.3622 34.3065 12.4171C34.5125 12.4659 34.364 12.7468 34.4209 12.918C34.3767 13.0738 34.5178 13.2804 34.3419 13.3868C34.2055 13.4697 34.049 13.3721 33.9153 13.2945C33.6471 13.1387 33.8477 12.9614 33.918 12.8217ZM38.83 65.4427H29.9442V38.5153H38.8293L38.83 65.4427ZM49.9688 65.4427H45.2092V38.5153H49.9688V65.4427ZM60.7351 65.4427H56.354V38.5153H60.7351V65.4427Z" fill="url(#paint0_linear)"/>
<defs>
<linearGradient id="paint0_linear" x1="8.59281" y1="101.645" x2="72.7077" y2="101.138" gradientUnits="userSpaceOnUse">
<stop stop-color="#374283"/>
<stop offset="1" stop-color="#277CCF"/>
</linearGradient>
</defs>
</svg>
