<svg width="70" height="65" viewBox="0 0 70 65" fill="none" xmlns="http://www.w3.org/2000/svg">
<path d="M66.9277 62.7627V35.2581H68.0706V27.5387H66.5098V24.8095H67.014V23.7288H51.3023V21.5052L44.6903 21.5058C44.7344 21.2865 44.5712 20.8378 44.6147 20.5522C44.6843 20.0854 44.6548 19.7785 44.6501 19.323C44.6488 19.0997 45.2199 17.5562 45.6219 17.9367C45.5503 18.1126 45.1397 18.5058 45.5657 18.4844C45.9622 18.4657 46.1649 18.4142 46.4498 18.148C46.6283 18.4269 46.8985 18.3868 47.0022 18.786C47.1158 19.216 46.8604 19.6373 46.944 20.0573C47.0035 20.3603 46.4351 20.5549 46.6404 21.0237C46.8758 21.5647 47.2443 21.0491 47.3686 20.7823C47.5352 20.4258 47.4262 19.7791 47.4415 19.3846C47.4556 19.0462 47.5907 18.6068 47.5519 18.2811C47.5345 18.132 47.4649 17.9287 47.4449 17.807C47.3914 17.8083 47.1312 17.7033 47.1092 17.6471C46.8677 17.7294 47.0135 17.0473 47.0122 17.0118C47.0002 16.4266 47.5459 15.6924 46.9674 15.2904C46.8296 15.1948 46.8256 14.817 46.7327 14.6605C46.2672 14.4899 47.1613 14.0058 47.1894 13.981C47.3178 13.8707 48.0514 13.5577 47.7786 13.1986C47.5298 12.8742 47.7318 12.5559 47.7177 12.2028C47.7104 12.0256 47.8836 11.8711 47.901 11.6905C47.8863 11.5548 47.8328 11.4371 47.7405 11.3367C47.6134 10.9355 47.9331 10.9094 48.0474 10.5891C47.4609 10.6941 47.1887 10.1056 46.621 10.2427C46.195 10.3463 45.7315 10.8833 45.5222 11.2471C45.2333 11.7467 45.0768 12.3807 44.9083 12.9257C44.8187 13.2139 44.6107 13.751 44.4054 14.3067C44.2001 14.8624 42.6686 14.7989 42.2313 15.4182C41.2495 16.8085 42.3316 19.4869 42.3316 19.4869C42.3831 19.9925 42.1249 21.0284 42.4025 21.4838C42.4065 21.4898 42.4078 21.4992 42.4118 21.5052H40.7319L40.982 20.7221L41.0094 19.1993C41.8782 16.7884 40.4096 14.1562 40.4096 14.1562C40.3668 13.8854 40.2758 13.5898 40.2765 13.3116C40.5239 13.1598 40.871 12.9204 40.669 12.6549C40.6229 12.5947 40.5961 12.5352 40.5768 12.475C40.6711 12.1934 40.651 11.9854 40.5975 11.8437C40.6055 11.7828 40.6102 11.7213 40.6082 11.6591C40.6008 11.4819 40.774 11.3274 40.7914 11.1468C40.7767 11.0111 40.7232 10.8934 40.6309 10.7924C40.5039 10.3918 40.8235 10.365 40.9379 10.0447C40.3514 10.1497 40.0792 9.5612 39.5114 9.6983C39.0854 9.80128 38.622 10.3383 38.4127 10.7028C38.3117 10.8773 38.2308 11.0706 38.1552 11.2685C38.1197 11.0947 38.0803 10.9268 38.0067 10.767C37.8522 10.4246 37.6095 10.248 37.2624 10.2948C36.9086 10.3436 36.823 10.6192 36.8545 10.9509C36.8685 11.0933 36.8953 11.2939 36.6659 11.3C36.3689 11.3073 36.165 11.1047 35.9657 10.9201C35.7791 10.7469 35.8406 10.549 35.947 10.3604C36.0546 10.1684 36.1824 9.9872 36.276 9.78925C36.3977 9.53111 36.3201 9.27832 36.066 9.18937C35.8099 9.09976 35.6875 8.64701 35.3237 8.88375C35.0595 9.05562 34.897 9.09775 34.798 8.98473V5.82219C35.5858 5.69847 36.1797 5.02169 36.1797 4.21851C36.1797 3.39193 35.5852 2.72317 34.798 2.59277L34.7151 2.59343V2.52455C36.7602 2.31122 36.5094 0 36.5094 0C36.5094 0 35.2896 0.310303 34.897 1.13688C34.8535 0.797157 34.679 0.530324 34.4837 0.528986C34.4837 0.528986 34.4837 0.528986 34.4831 0.528986C34.4831 0.528986 34.4831 0.528986 34.4824 0.528986C34.2871 0.529655 34.1126 0.796488 34.0691 1.13688C33.6772 0.310972 32.4574 0 32.4574 0C32.4574 0 32.2066 2.31122 34.251 2.52455V2.60614C33.4839 2.74123 32.9041 3.40129 32.9041 4.22119C32.9041 5.02771 33.4973 5.70114 34.2838 5.82419V8.91518C34.2784 8.91986 34.2764 8.92588 34.2704 8.93056C33.6712 9.40939 33.2907 10.1123 32.6353 10.5383C32.442 10.664 32.3731 10.8599 32.3343 11.1201C32.1859 12.1051 32.3832 13.0628 32.4788 14.0292C32.4935 14.1776 32.5189 15.2001 32.5189 15.2001L31.5198 14.5762C31.4884 14.516 31.4556 14.4545 31.4342 14.391C31.4342 14.3896 31.4335 14.3883 31.4335 14.3863C31.4275 13.8941 31.4195 13.4393 31.4309 13.1839C31.4569 12.6134 31.5238 11.964 31.4215 11.3963C31.3479 10.983 31.0931 10.3209 30.7273 10.0795C30.2398 9.75848 29.7837 10.2199 29.2681 9.92233C29.2674 10.2627 29.5597 10.3958 29.3035 10.7302C29.1825 10.793 29.0929 10.8867 29.032 11.0091C28.9879 11.1843 29.0982 11.3882 29.032 11.5528C28.9003 11.8798 28.9812 12.2483 28.6381 12.469C28.2596 12.7144 28.6769 13.2909 28.8709 13.5229C29.0655 13.7556 29.5302 13.7041 29.5302 13.7041C29.4915 13.8573 29.4574 14.0098 29.4406 14.1616C29.4406 14.1616 27.954 15.687 29.2333 18.9893L29.4139 20.5983C29.5376 20.9093 29.6847 21.2076 29.8319 21.5065H27.5868C27.5909 21.4998 27.5922 21.4898 27.5962 21.4831C27.8744 21.0277 27.6163 19.9918 27.6678 19.4862C27.6678 19.4862 28.7498 16.8078 27.7681 15.4175C27.3307 14.7989 25.7993 14.8624 25.594 14.306C25.388 13.7496 25.1807 13.2133 25.091 12.925C24.9225 12.38 24.766 11.746 24.4778 11.2465C24.2678 10.8827 23.8044 10.3457 23.3784 10.242C22.8113 10.1049 22.5384 10.6934 21.9526 10.5884C22.0669 10.9087 22.3866 10.9355 22.2589 11.3361C22.1666 11.4364 22.1131 11.5548 22.0984 11.6898C22.1158 11.8704 22.289 12.0242 22.2816 12.2021C22.2682 12.5552 22.4695 12.8735 22.2214 13.1979C21.9479 13.557 22.6815 13.87 22.8099 13.9803C22.838 14.0044 23.7321 14.4893 23.266 14.6598C23.1737 14.8163 23.1697 15.1948 23.0319 15.2898C22.4535 15.6917 22.9985 16.4266 22.9871 17.0111C22.9865 17.0466 23.1323 17.7287 22.8902 17.6465C22.8688 17.702 22.6086 17.8076 22.5545 17.8063C22.5344 17.928 22.4655 18.1313 22.4475 18.2804C22.4093 18.6061 22.5438 19.0455 22.5578 19.3839C22.5732 19.7785 22.4642 20.4251 22.6307 20.7816C22.7551 21.0477 23.1236 21.5634 23.359 21.023C23.5636 20.5542 22.9958 20.3589 23.0547 20.0567C23.1383 19.6367 22.8835 19.2154 22.9972 18.7853C23.1015 18.3861 23.371 18.4262 23.5496 18.1474C23.8338 18.4135 24.0371 18.465 24.4337 18.4837C24.8597 18.5045 24.449 18.1112 24.3782 17.936C24.7807 17.5555 25.3512 19.0983 25.3499 19.3224C25.3465 19.7785 25.3157 20.0847 25.386 20.5515C25.4288 20.8378 25.2649 21.2892 25.3104 21.5079L18.5974 21.5085V23.7321H2.57404V24.8162H3.56581V27.5487H1.61906V35.2655H2.73655V62.7614H0V64.6379H70V62.7614H66.9277V62.7627ZM46.7293 13.028C47.0684 13.242 46.7434 13.1946 46.7547 13.323C46.7534 13.2989 46.8249 13.7349 46.8136 13.6834C46.8644 13.9088 47.1052 13.8767 46.849 14.0178C46.7795 14.0893 46.7139 14.0967 46.6537 14.0392C46.6043 13.7764 46.5768 13.2608 46.7293 13.028ZM23.3469 14.0392C23.2867 14.0967 23.2212 14.0893 23.1517 14.0178C22.8949 13.8767 23.1363 13.9088 23.1864 13.6834C23.1751 13.7356 23.2473 13.2989 23.2453 13.323C23.2566 13.1939 22.933 13.2414 23.272 13.028C23.4238 13.2608 23.3964 13.7764 23.3469 14.0392ZM8.9105 62.7621V35.8346H13.0407L13.0448 62.7621H8.9105ZM23.5583 62.7621H19.4267V35.8346H23.5583V62.7621ZM33.6478 4.42248C33.5501 4.24125 33.5501 4.15097 33.6478 3.96973C33.9213 4.01588 34.0805 4.02257 34.3172 3.9918C34.348 3.75506 34.3413 3.5959 34.2958 3.32305C34.477 3.22541 34.5673 3.22541 34.7485 3.32305C34.7024 3.5959 34.6957 3.75573 34.7265 3.9918C34.9632 4.02257 35.1224 4.01588 35.3959 3.96973C35.4942 4.15097 35.4942 4.24125 35.3959 4.42248C35.1224 4.37701 34.9639 4.37032 34.7265 4.40108C34.6957 4.63782 34.7024 4.79698 34.7485 5.06984C34.5673 5.16748 34.4764 5.16748 34.2958 5.06984C34.3413 4.79698 34.348 4.63715 34.3172 4.40108C34.0805 4.37032 33.9213 4.37634 33.6478 4.42248ZM33.918 10.141C34.0029 9.96914 34.0811 9.68158 34.3065 9.73642C34.5125 9.78523 34.364 10.0661 34.4209 10.2373C34.3767 10.3931 34.5178 10.5998 34.3419 10.7061C34.2055 10.789 34.049 10.6914 33.9153 10.6138C33.6471 10.458 33.8477 10.2808 33.918 10.141ZM38.83 62.7621H29.9442V35.8346H38.8293L38.83 62.7621ZM49.9688 62.7621H45.2092V35.8346H49.9688V62.7621ZM60.7351 62.7621H56.354V35.8346H60.7351V62.7621Z" fill="#FF0000"/>
</svg>
