<svg width="170" height="92" viewBox="0 0 170 92" fill="none" xmlns="http://www.w3.org/2000/svg">
<g clip-path="url(#clip0)">
<path d="M142.339 69.9852L138.421 56.4306C138.32 56.0807 137.955 55.8786 137.605 55.9792C137.256 56.0798 137.054 56.445 137.155 56.7949L141.073 70.3496C141.174 70.6994 141.539 70.9015 141.889 70.8009C142.238 70.7003 142.44 70.3351 142.339 69.9852Z" fill="#2F404C"/>
<path d="M154.37 63.2123L152.219 55.7696C152.143 55.5077 151.869 55.3567 151.607 55.4322L151.292 55.523C151.029 55.5985 150.878 55.8721 150.954 56.1339L153.105 63.5766C153.18 63.8385 153.454 63.9895 153.717 63.914L154.032 63.8232C154.295 63.7477 154.446 63.4741 154.37 63.2123Z" fill="#2F404C"/>
<path d="M169.101 56.2017C169.747 56.0157 170.12 55.3432 169.934 54.6995C169.748 54.0559 169.073 53.6849 168.427 53.8708L166.168 54.5213C165.522 54.7073 165.149 55.3798 165.335 56.0235C165.521 56.6671 166.195 57.0382 166.841 56.8522L169.101 56.2017Z" fill="#2F404C"/>
<path d="M149.935 58.7845C146.663 59.0744 143.377 59.1866 140.092 59.1203L142.286 66.7172L142.938 66.3025C146.175 64.2904 149.539 62.4897 153.01 60.9117L152.328 58.5564C151.56 58.6269 150.766 58.714 149.935 58.7845Z" fill="#2F404C"/>
<path d="M169.95 54.704C169.896 54.5009 162.658 57.0926 153.67 58.3573L154.24 60.3395C163.065 56.4167 170.004 54.8989 169.95 54.704Z" fill="#2F404C"/>
<path d="M141.151 67.4761L138.717 59.0789C133.603 58.8975 128.515 58.2858 123.505 57.2501L125.125 62.8649C130.697 61.8987 134.89 63.4081 135.276 65.1746C135.663 66.9411 132.613 69.8563 127.593 71.3947C128.147 73.3299 128.71 75.2733 129.28 77.2251C132.917 73.6049 136.892 70.3403 141.151 67.4761Z" fill="#2F404C"/>
<path d="M10.0263 60.7915C10.0126 60.8138 10.0035 60.8386 9.99946 60.8644C9.99542 60.8903 9.99651 60.9167 10.0027 60.9421C10.0089 60.9675 10.02 60.9914 10.0355 61.0126C10.0509 61.0337 10.0704 61.0516 10.0928 61.0652L11.8421 62.1309L11.9709 63.6818C11.9804 63.7293 12.007 63.7718 12.0457 63.8011C12.0845 63.8305 12.1326 63.8447 12.181 63.8411C12.2295 63.8376 12.275 63.8165 12.309 63.7818C12.343 63.7471 12.3631 63.7012 12.3656 63.6527L12.2285 61.994C12.2266 61.963 12.2173 61.9329 12.2014 61.9063C12.1855 61.8796 12.1634 61.8571 12.137 61.8406L10.3005 60.721C10.2639 60.7005 10.2218 60.6918 10.18 60.6961C10.1486 60.6984 10.1182 60.7083 10.0914 60.7249C10.0646 60.7416 10.0423 60.7644 10.0263 60.7915Z" fill="#2F404C"/>
<path d="M6.14551 65.751L12.7562 69.0684L18.137 58.3698L11.5263 55.0524L6.14551 65.751ZM13.1343 59.5557C13.7564 59.8874 14.2209 60.452 14.4259 61.1254C14.6308 61.7989 14.5593 62.526 14.2271 63.1469L14.198 63.1966C14.0339 63.5044 13.8105 63.7768 13.5407 63.9983C13.2709 64.2198 12.96 64.3859 12.6257 64.4872C12.2914 64.5886 11.9404 64.623 11.5927 64.5887C11.2451 64.5544 10.9076 64.4519 10.5997 64.2872L10.5499 64.2623C9.92752 63.9299 9.46287 63.3645 9.25797 62.6904C9.05307 62.0163 9.12467 61.2885 9.45708 60.6671L9.48201 60.6173C9.8159 59.997 10.3824 59.534 11.0576 59.3296C11.7327 59.1252 12.4615 59.1961 13.0845 59.5267L13.1343 59.5557Z" fill="#2F404C"/>
<path d="M8.39254 55.178L4.27002 63.3761L6.14541 64.3154L10.2679 56.1173L8.39254 55.178Z" fill="#2F404C"/>
<path d="M3.67727 63.0805L2.35596 60.157L4.80329 55.2929L7.79908 54.8824L3.67727 63.0805Z" fill="#2F404C"/>
<path d="M2.91685 59.0457L0 55.9315L4.24231 56.5784L2.91685 59.0457Z" fill="#2F404C"/>
<path d="M13.1714 67.3392L31.5783 77.2375L35.6503 69.0145L17.0148 59.6967L13.1714 67.3392ZM31.3124 71.8467C31.4394 71.9034 31.5537 71.9852 31.6482 72.0871C31.7427 72.189 31.8156 72.309 31.8624 72.4398C31.9092 72.5706 31.929 72.7095 31.9205 72.8481C31.9121 72.9868 31.8756 73.1222 31.8132 73.2464C31.7509 73.3706 31.664 73.4809 31.5578 73.5706C31.4515 73.6603 31.3282 73.7277 31.1952 73.7685C31.0622 73.8094 30.9223 73.823 30.7839 73.8084C30.6455 73.7938 30.5115 73.7514 30.3899 73.6838L16.3292 66.6343C16.0975 66.5052 15.9245 66.2919 15.8464 66.0388C15.7683 65.7857 15.7911 65.5122 15.91 65.2754C16.0289 65.0386 16.2348 64.8568 16.4847 64.7677C16.7346 64.6786 17.0094 64.6892 17.2517 64.7973L31.3124 71.8467ZM32.4675 69.5495C32.6992 69.6785 32.8722 69.8918 32.9503 70.1449C33.0284 70.398 33.0056 70.6715 32.8867 70.9083C32.7678 71.1451 32.5619 71.3269 32.312 71.416C32.0621 71.5051 31.7874 71.4945 31.5451 71.3865L17.4843 64.337C17.3573 64.2803 17.243 64.1986 17.1485 64.0966C17.054 63.9947 16.9811 63.8747 16.9343 63.7439C16.8875 63.6131 16.8677 63.4742 16.8762 63.3356C16.8846 63.197 16.9211 63.0615 16.9835 62.9373C17.0458 62.8131 17.1327 62.7029 17.2389 62.6131C17.3452 62.5234 17.4685 62.456 17.6015 62.4152C17.7345 62.3743 17.8744 62.3607 18.0128 62.3753C18.1512 62.3899 18.2852 62.4323 18.4068 62.5L32.4675 69.5495Z" fill="#2F404C"/>
<path d="M78.8212 26.7922C77.4093 26.2131 76.0772 25.4564 74.8573 24.5405L69.061 25.5814C68.7619 25.6353 68.4752 25.7058 68.1885 25.7846C68.1885 25.8882 68.1885 25.9919 68.1885 26.0956C67.7642 26.634 67.3062 27.145 66.8173 27.6257C65.5211 28.915 64.0023 29.9602 62.334 30.7109L67.2369 29.9023L69.0818 35.4465L77.5498 34.4513L76.752 28.3348L81.3226 27.5801C80.468 27.3885 79.6312 27.1249 78.8212 26.7922Z" fill="#2F404C"/>
<path d="M65.916 14.7583C65.9233 15.1148 65.8899 15.471 65.8163 15.8199C65.6584 15.9899 65.4964 16.1599 65.326 16.3299L65.0393 16.5953L74.0807 14.974C73.51 14.6281 72.9681 14.237 72.4602 13.8046C72.2026 12.8135 71.9492 11.8224 71.6916 10.8355L76.1458 9.98125C75.0953 10.0687 74.0379 9.94213 73.0379 9.60923C72.038 9.27633 71.1162 8.74406 70.3287 8.04472C68.7842 6.67433 67.6435 4.90942 67.0296 2.94005C68.2262 9.30532 61.5615 12.7762 61.5615 12.7762L65.0684 12.1044C65.5983 12.8905 65.8924 13.8112 65.916 14.7583Z" fill="#2F404C"/>
<path d="M73.8065 22.8528C73.6861 22.3759 73.5614 21.9032 73.4367 21.4263L78.481 20.597C77.7527 20.4709 77.0443 20.2492 76.3744 19.9376C74.8054 19.1689 73.4477 18.0303 72.4187 16.6202C72.4206 16.481 72.4345 16.3423 72.4603 16.2055L66.0033 17.3542C66.2876 17.9258 66.4301 18.5573 66.4188 19.1953C66.4116 19.8266 66.252 20.4468 65.9535 21.0033C64.9598 21.9142 63.8263 22.6604 62.5962 23.2136L66.9299 22.5003C67.278 23.1685 67.4671 23.9078 67.4825 24.6608C67.3662 24.8101 67.2374 24.9635 67.1086 25.1128L75.0032 23.6987C74.5627 23.4168 74.168 23.1348 73.8065 22.8528Z" fill="#2F404C"/>
<path d="M54.6476 30.686C53.8 30.1163 53.0339 29.4341 52.3706 28.6583C51.0509 27.1583 50.1862 25.3144 49.8776 23.3421C47.3846 24.6193 46.4206 27.5345 47.4261 30.4414C47.5514 30.8035 47.7042 31.1556 47.8832 31.4946C46.7217 30.8392 45.382 30.5678 44.0564 30.7192C43.4799 30.7758 42.9176 30.9316 42.3943 31.1795C41.8148 29.954 41.4736 28.6299 41.3888 27.2774C39.8669 28.1367 38.674 29.476 37.9972 31.0851C37.3204 32.6942 37.198 34.482 37.6493 36.168C38.5842 39.614 41.5467 41.3183 42.8763 41.9279L54.6476 30.686Z" fill="#2F404C"/>
<path d="M55.8936 30.6238L25.3789 59.8958L31.7154 64.677L61.2454 37.1674L55.8936 30.6238ZM31.6655 60.5551L28.6863 57.4616L30.4813 55.7407L33.4605 58.8342L31.6655 60.5551ZM33.8926 58.4195L30.9176 55.3261L32.7084 53.601L35.6876 56.6986L33.8926 58.4195ZM36.1696 56.1927L33.178 53.0951L34.9729 51.3742L37.9521 54.4677L36.1696 56.1927ZM38.3967 54.053L35.4175 50.9595L37.2125 49.2386L40.1917 52.3321L38.3967 54.053Z" fill="#2F404C"/>
<path d="M25.782 58.2578L30.5977 53.6549C30.5977 53.6342 30.5977 53.6134 30.5977 53.5927L30.5603 53.5139H30.7805L41.833 42.9563C41.7416 42.7323 41.6294 42.4752 41.4881 42.185C40.0463 41.4634 37.4577 39.7674 36.5976 36.591C36.1391 34.9187 36.2517 33.1416 36.9176 31.5402C35.9841 30.9796 34.9492 30.6076 33.8719 30.4455C32.8455 30.26 31.7868 30.3927 30.8382 30.8256C29.8896 31.2586 29.0966 31.971 28.5659 32.8672C29.8663 33.5267 31.0529 34.389 32.0811 35.4216C30.3177 35.3316 28.5627 35.7177 27.0008 36.5395C25.4388 37.3612 24.1279 38.5881 23.2059 40.0909C25.9426 40.401 28.5254 41.5152 30.6268 43.2922C29.4121 43.0205 28.154 43.005 26.933 43.2465C22.7779 44.0178 20.8666 47.5467 20.5342 48.1853C22.4137 48.4594 24.1916 49.2088 25.6989 50.3624C26.1266 50.6947 26.5306 51.0564 26.908 51.4447C26.7703 51.4246 26.6316 51.4121 26.4925 51.4074C25.1045 51.3537 23.751 51.8467 22.7239 52.7799C20.5093 54.6709 20.5508 57.6109 20.5674 58.1417C21.7807 57.6857 23.0973 57.5766 24.3693 57.8265C24.8539 57.9211 25.3274 58.0656 25.782 58.2578Z" fill="#2F404C"/>
<path d="M103.737 16.3014L90.1582 14.2481L89.9669 15.5084L103.546 17.5617L103.737 16.3014Z" fill="#2F404C"/>
<path d="M95.1549 11.6482C95.3294 10.4913 95.7698 8.59622 96.8169 8.4345C97.864 8.27278 97.2906 10.5867 96.8709 11.9012L97.5441 11.9966C97.7103 10.8396 98.1507 8.91138 99.2061 8.74551C100.261 8.57964 99.6715 10.9391 99.2518 12.2454L99.9623 12.3532C100.124 11.2087 100.556 9.18507 101.624 9.03579C102.692 8.8865 102.061 11.3331 101.624 12.6186L104.034 12.9711L106.976 6.28235L104.936 5.66447L106.81 1.78311L99.9748 0.0207367L98.1424 3.61597L95.853 2.92347L92.4375 11.2709L95.1549 11.6482ZM103.486 2.59587C104.932 2.36365 103.249 6.76751 103.249 6.76751L101.803 6.55602C101.803 6.55602 102.044 2.83224 103.486 2.59587ZM101.196 2.29315C102.642 2.06093 100.96 6.46479 100.96 6.46479L99.5136 6.25331C99.5136 6.25331 99.7546 2.52953 101.196 2.30145V2.29315Z" fill="#2F404C"/>
<path d="M91.378 19.4068C91.4735 18.4697 91.8807 15.4135 93.2644 15.1937C94.648 14.9739 93.4513 18.6397 93.0898 19.6598L93.9666 19.7883C94.0538 18.9009 94.4527 15.7577 95.853 15.5338C97.2532 15.3098 96.015 19.0709 95.6701 20.0371L96.5967 20.174C96.6632 19.4442 97.0372 16.0604 98.4956 15.8282C99.954 15.596 98.562 19.6308 98.2753 20.4186L100.569 20.7545L102.979 15.2767L91.4195 13.5806L89.1675 19.0834L91.378 19.4068Z" fill="#2F404C"/>
<path d="M101.14 21.7234L87.5703 19.7308L87.3846 20.9903L100.954 22.9829L101.14 21.7234Z" fill="#2F404C"/>
<path d="M88.6275 26.0002C88.7522 24.9054 89.1884 22.181 90.489 21.9737C91.7895 21.7663 90.8006 25.0506 90.3809 26.2573L91.2119 26.3817C91.3283 25.3118 91.7604 22.5252 93.0776 22.3137C94.3947 22.1022 93.3684 25.4611 92.9571 26.6388L93.8421 26.7673C93.9418 25.7763 94.3615 22.8238 95.716 22.6206C97.0706 22.4174 95.9487 25.938 95.5623 27.0327L97.6024 27.3313L99.68 22.6455L88.3242 20.9868L86.4004 25.6933L88.6275 26.0002Z" fill="#2F404C"/>
<path d="M85.889 26.8876L82.7852 34.4762L84.3142 34.7001C84.443 33.4561 84.9499 29.9686 86.5746 29.724C88.1992 29.4793 86.8737 33.6758 86.4001 35.0235L87.4388 35.1728C87.5593 33.991 88.0579 30.3999 89.7075 30.1387C91.357 29.8774 89.9734 34.1859 89.5163 35.4797L90.6133 35.6414C90.713 34.5923 91.1908 30.7648 92.8902 30.4911C94.5897 30.2174 93.073 34.7996 92.6617 35.94L93.7545 36.1017L97.0785 28.5463L85.889 26.8876Z" fill="#2F404C"/>
<path d="M97.7226 28.6543L84.1528 26.6617L83.9671 27.9212L97.5369 29.9138L97.7226 28.6543Z" fill="#2F404C"/>
<path d="M96.4028 36.5071L80.0952 34.1125L79.6827 36.9105L95.9903 39.3051L96.4028 36.5071Z" fill="#2F404C"/>
<path d="M105.796 27.3064L101.757 32.382L105.887 35.658L106.581 34.7872L108.389 34.5798L108.588 36.3298L107.874 37.2296L111.675 40.2443L115.361 35.6082L121.083 34.9282L121.735 40.8166L118.124 45.3531L121.643 48.1397L122.416 47.1694L124.161 46.962L124.357 48.7576L123.609 49.6989L127.531 52.809L131.798 47.4472L129.875 44.9011L129.929 44.8306L130.091 44.9633L132.393 42.0606L131.761 41.5588C132.091 41.2157 132.347 40.8087 132.514 40.363C132.68 39.9172 132.754 39.4422 132.729 38.9671C132.723 38.5752 132.632 38.1893 132.464 37.8352C132.295 37.4812 132.053 37.1672 131.753 36.9145C130.922 36.3007 129.916 36.4998 129.476 36.6117C128.609 36.8141 127.845 37.324 127.328 38.0465L126.912 37.7314C128.347 36.1182 129.167 34.0529 129.231 31.8969C129.273 30.9157 129.149 29.9343 128.865 28.9941L129.629 28.0362L127.847 26.6263C128.028 26.7326 128.243 26.7663 128.448 26.7207C128.654 26.675 128.834 26.5535 128.953 26.3804C129.072 26.2074 129.121 25.9958 129.09 25.7883C129.058 25.5808 128.95 25.3927 128.785 25.2621C128.621 25.1315 128.412 25.068 128.203 25.0843C127.993 25.1007 127.798 25.1958 127.655 25.3504C127.513 25.505 127.435 25.7077 127.437 25.9175C127.438 26.1274 127.52 26.3288 127.664 26.4812L126.002 25.1625L125.466 25.8384C124.403 25.6144 123.305 25.6144 122.242 25.8384C118.81 26.4439 116.961 29.2098 116.57 29.8235L116.109 29.4544C116.699 28.7874 117.021 27.9266 117.015 27.0369C117.015 26.589 116.986 25.5606 116.184 24.8805L116.034 24.7644C115.274 24.1134 114.256 24.2917 113.915 24.3498C113.17 24.4969 112.496 24.888 112 25.4611C111.868 25.6054 111.747 25.7593 111.638 25.9214L111.002 25.4155L108.7 28.3182L108.867 28.4509L108.713 28.6458L105.796 27.3064ZM125.076 43.7649L126.821 43.5534L127.016 45.3531L125.724 46.9786L123.754 45.4195L125.076 43.7649ZM109.045 31.3785L110.853 31.1712L111.056 32.9211L109.739 34.5798L107.753 33.0082L109.045 31.3785Z" fill="#2F404C"/>
<path d="M123.497 60.2358L94.4111 39.1288L100.311 32.0793L128.632 54.5216L123.497 60.2358Z" fill="#2F404C"/>
<path d="M71.0887 36.7693C61.2329 38.5394 52.1167 43.1646 44.8761 50.0686C37.6354 56.9725 32.5902 65.8502 30.3691 75.5954H32.5048C35.0487 64.902 41.1325 55.3775 49.7723 48.5623C58.4121 41.7472 69.1029 38.0398 80.1156 38.0398C91.1283 38.0398 101.819 41.7472 110.459 48.5623C119.099 55.3775 125.182 64.902 127.726 75.5954H129.862C126.952 62.8201 119.22 51.6558 108.274 44.4244C97.3273 37.1931 84.009 34.4513 71.0887 36.7693V36.7693Z" stroke="#2F404C" stroke-width="10" stroke-miterlimit="10"/>
<path d="M61.154 58.9628C61.149 59.0307 61.135 59.0976 61.1125 59.1618C61.0824 59.2512 61.0435 59.3373 60.9961 59.4189C60.9494 59.5038 60.8952 59.5842 60.8341 59.6594C60.7821 59.7236 60.7169 59.776 60.6429 59.8128C60.5202 59.8761 60.3905 59.9248 60.2565 59.958L59.8036 60.0575C59.3383 60.1487 58.8771 60.2234 58.4325 60.2856C57.9879 60.3478 57.5599 60.3975 57.161 60.4349C56.7621 60.4722 56.4006 60.4971 56.0682 60.5137C55.7358 60.5302 55.4575 60.5385 55.2372 60.5385H53.6583C53.5212 60.5385 53.3924 60.5385 53.2636 60.5385C53.2636 60.7044 53.2345 60.9076 53.222 61.1481C53.2096 61.3886 53.1929 61.6291 53.1805 61.878C53.168 62.1268 53.1472 62.3631 53.1348 62.5953C53.1223 62.8276 53.0974 63.01 53.0724 63.18C53.2096 63.18 53.3716 63.2049 53.5586 63.209H54.0946C54.3439 63.209 54.5932 63.209 54.8383 63.18L55.4533 63.1303C55.5322 63.1303 55.661 63.1095 55.8314 63.1012L56.384 63.0639L56.9574 63.01C57.0974 62.9963 57.2363 62.9728 57.3729 62.9395L57.6596 62.8192C57.751 62.7861 57.8341 62.7571 57.9214 62.7322C58.0059 62.7092 58.092 62.6926 58.179 62.6824C58.2662 62.6824 58.3618 62.6824 58.4657 62.6824C58.5847 62.6787 58.7025 62.7074 58.8064 62.7653C58.8949 62.8169 58.9691 62.8896 59.0225 62.9768C59.0755 63.0705 59.1108 63.1731 59.1264 63.2796C59.1481 63.3972 59.1592 63.5165 59.1596 63.6362C59.1643 63.7715 59.12 63.9039 59.0349 64.0094C58.9469 64.107 58.8411 64.1872 58.7233 64.2457C58.6027 64.3104 58.4742 64.3593 58.341 64.3909L57.992 64.4738C57.9048 64.4738 57.751 64.5111 57.5308 64.5319L56.7663 64.5982C56.4754 64.5982 56.168 64.6438 55.848 64.6604L54.9297 64.7102L54.1527 64.7475H53.6708C53.5245 64.7465 53.3785 64.759 53.2345 64.7848L52.819 64.8844C52.7572 65.1457 52.7086 65.4101 52.6735 65.6764C52.637 65.9762 52.5843 66.2738 52.5157 66.5679C52.4907 66.6882 52.4616 66.8126 52.4367 66.9411C52.4118 67.0697 52.3827 67.1858 52.3578 67.3019C52.3328 67.418 52.3162 67.5217 52.2996 67.6171C52.283 67.7124 52.2747 67.7912 52.2705 67.8534H52.6403L53.0808 67.8327L53.542 67.7954L53.9782 67.7539L54.9048 67.6751L55.5987 67.6129C55.8065 67.6129 55.9935 67.5756 56.1721 67.5549C56.3508 67.5341 56.5336 67.5134 56.7372 67.4802L57.1236 67.4346L57.589 67.3848L58.0668 67.3268C58.2153 67.3052 58.3624 67.2748 58.5073 67.2356C58.5924 67.2163 58.6758 67.1899 58.7566 67.1568L59.01 67.0614L59.2718 66.9868C59.3618 66.9666 59.4538 66.9569 59.546 66.9577C59.6521 66.9573 59.757 66.98 59.8535 67.0241C59.953 67.0689 60.0422 67.1339 60.1153 67.2148C60.1936 67.3011 60.2556 67.4008 60.2981 67.5092C60.3454 67.6265 60.3694 67.7519 60.3687 67.8783C60.3602 67.9471 60.3344 68.0127 60.2939 68.0691C60.242 68.1627 60.1761 68.248 60.0986 68.322C60.0062 68.4101 59.9045 68.488 59.7953 68.5542C59.6779 68.6256 59.5483 68.6748 59.4131 68.6993C58.9685 68.7864 58.5156 68.8528 58.0668 68.8984C57.6181 68.944 57.1153 69.0062 56.571 69.0767L55.3951 69.2136L54.3065 69.3504L53.4215 69.4624C53.168 69.4955 52.981 69.5246 52.8564 69.5495C52.7317 69.572 52.6082 69.601 52.4866 69.6365L52.0711 69.7485L51.6888 69.8397C51.5809 69.8628 51.4709 69.8753 51.3606 69.877C51.1977 69.88 51.0353 69.859 50.8786 69.8148C50.7447 69.7723 50.6263 69.6916 50.5379 69.5826C50.4356 69.4535 50.3632 69.3034 50.326 69.1431C50.2751 68.9144 50.2514 68.6806 50.2553 68.4464C50.2585 68.2021 50.2878 67.9588 50.3426 67.7207C50.4007 67.4553 50.4672 67.136 50.5379 66.767C50.6085 66.3979 50.675 66.0869 50.7415 65.7925C50.8079 65.4981 50.8703 65.2119 50.9284 64.93C50.9866 64.648 51.0406 64.3743 51.0905 64.1006C51.1403 63.8269 51.1736 63.5242 51.1985 63.2049C51.1985 63.1676 51.1985 63.0846 51.2234 62.9478C51.2484 62.811 51.2234 62.6451 51.2567 62.4585C51.2899 62.2719 51.2858 62.0728 51.2982 61.8572C51.3107 61.6416 51.3315 61.4425 51.3439 61.2559C51.3564 61.0693 51.373 60.9076 51.3813 60.7707C51.3896 60.6339 51.3813 60.5427 51.3813 60.5054C51.3843 60.4543 51.3843 60.403 51.3813 60.3519C51.3764 60.2982 51.3764 60.244 51.3813 60.1902C51.3828 60.0603 51.4053 59.9315 51.4478 59.8087C51.4963 59.6626 51.5634 59.5232 51.6473 59.394C51.7098 59.3015 51.7903 59.2225 51.8841 59.1618C52.0004 59.0809 52.1226 59.0088 52.2498 58.9462C52.3835 58.8809 52.5225 58.8268 52.6653 58.7845C52.7786 58.7502 52.8959 58.7307 53.0143 58.7264C53.1022 58.7291 53.1897 58.7389 53.276 58.7554L53.65 58.8218C53.7788 58.8508 53.9034 58.8715 54.0198 58.8923C54.1033 58.9089 54.1881 58.9186 54.2733 58.9213H54.7469H55.4076C55.8563 58.9213 56.3051 58.9213 56.7621 58.8715C57.2192 58.8218 57.6762 58.7845 58.1458 58.7098C58.3434 58.6749 58.539 58.6292 58.7316 58.573L59.2676 58.4071C59.4463 58.3532 59.6208 58.3076 59.7995 58.2703C59.9853 58.2314 60.1747 58.212 60.3646 58.2122C60.4637 58.2144 60.5613 58.2369 60.6513 58.2786C60.7499 58.3198 60.84 58.3788 60.9172 58.4527C60.9937 58.5261 61.0594 58.6098 61.1125 58.7015C61.1466 58.7842 61.1608 58.8736 61.154 58.9628Z" fill="#2F404C"/>
<path d="M73.9683 64.0799C73.9597 64.1828 73.9344 64.2836 73.8935 64.3784C73.8339 64.5205 73.7659 64.659 73.6899 64.7931C73.6068 64.9479 73.5154 65.1055 73.4157 65.2658C73.3237 65.4188 73.2239 65.5669 73.1165 65.7095C72.809 66.1242 72.5265 66.4643 72.2855 66.7794C72.0445 67.0946 71.7869 67.3641 71.5708 67.6088C71.372 67.8347 71.1537 68.0429 70.9185 68.2308C70.6707 68.4292 70.4127 68.6147 70.1456 68.7864C69.6251 69.1184 69.0181 69.29 68.4005 69.2799C68.1858 69.2754 67.9729 69.2391 67.7689 69.1721C67.5208 69.0893 67.2803 68.9852 67.0501 68.8611C66.7849 68.72 66.5282 68.5636 66.2814 68.3925C66.0155 68.21 65.7537 68.0068 65.4961 67.7912C65.0002 68.2297 64.6072 68.772 64.3452 69.3794C64.2953 69.5038 64.2413 69.6448 64.1831 69.7941L64.0086 70.2875C63.9559 70.4539 63.8878 70.6149 63.805 70.7686C63.7219 70.9137 63.6471 71.0464 63.5765 71.1625C63.1937 71.1665 62.8187 71.0552 62.5003 70.8432C62.3724 70.7412 62.2708 70.6099 62.2043 70.4605C62.1378 70.3112 62.1082 70.148 62.1181 69.9848C62.1207 69.7837 62.163 69.585 62.2427 69.4001C62.329 69.189 62.4347 68.9863 62.5585 68.7947C62.6909 68.5865 62.8367 68.3871 62.9948 68.1976C63.1568 68.0027 63.323 67.8161 63.4892 67.6419C63.6554 67.4678 63.8133 67.2977 63.9629 67.1443C64.1125 66.9909 64.2454 66.8623 64.3452 66.7296L64.1 66.4394L63.8258 66.1118C63.7344 65.9998 63.6513 65.892 63.5723 65.7883C63.5034 65.7003 63.4409 65.6074 63.3854 65.5105C63.1817 65.17 63.0093 64.812 62.8701 64.4406C62.7715 64.1848 62.7167 63.9143 62.7081 63.6403C62.688 63.33 62.7729 63.0218 62.9491 62.7653C63.0549 62.654 63.1847 62.5681 63.3287 62.5143C63.4726 62.4604 63.627 62.4399 63.7801 62.4543C63.9504 62.444 64.1195 62.4891 64.2621 62.5829C64.3756 62.6609 64.4706 62.7628 64.5404 62.8814C64.6051 62.9902 64.6502 63.1095 64.6734 63.2339C64.6906 63.3258 64.7031 63.4186 64.7108 63.5118C64.7301 63.7939 64.7845 64.0725 64.8729 64.3411C64.9347 64.5378 65.0183 64.7269 65.1222 64.9051C65.1845 65.0004 65.2551 65.1041 65.3382 65.2202C65.4177 65.3303 65.5037 65.4356 65.5958 65.5354C65.7427 65.3916 65.8922 65.234 66.0446 65.0626C66.1983 64.8968 66.3354 64.7309 66.4601 64.5692C66.5847 64.4075 66.7426 64.1877 66.8756 63.9762C67.0243 63.7512 67.1535 63.5139 67.262 63.2671C67.3606 63.0588 67.5022 62.8737 67.6775 62.7239C67.8247 62.5942 68.0131 62.5208 68.2094 62.5165C68.3211 62.5191 68.4318 62.5387 68.5376 62.5746C68.654 62.6164 68.7623 62.6782 68.8576 62.757C68.9553 62.8428 69.0369 62.9453 69.0986 63.0598C69.1636 63.1882 69.1964 63.3305 69.1941 63.4744C69.1937 63.5856 69.1666 63.6951 69.1152 63.7937C69.0506 63.9231 68.9726 64.0454 68.8825 64.1587C68.7786 64.2955 68.6498 64.4531 68.5002 64.6314C68.3506 64.8097 68.1678 65.017 67.9642 65.2617C67.8894 65.3529 67.8022 65.4524 67.7025 65.5561L67.3867 65.8837L67.0376 66.2362L66.6928 66.5928C67.0338 66.8929 67.4041 67.1583 67.798 67.3848C67.9825 67.4921 68.1792 67.577 68.3839 67.6378C68.5328 67.6793 68.6864 67.7016 68.8409 67.7041C69.2326 67.6852 69.6124 67.5637 69.942 67.3516C70.4234 67.0574 70.8588 66.6942 71.2343 66.2735C71.4254 66.0744 71.6207 65.8588 71.8284 65.6059C72.0362 65.3529 72.2439 65.0626 72.5223 64.7309C73.0542 64.0508 73.4032 63.7108 73.5777 63.7108C73.6767 63.7099 73.7733 63.742 73.8519 63.802C73.8953 63.833 73.9291 63.8754 73.9497 63.9244C73.9702 63.9735 73.9767 64.0273 73.9683 64.0799Z" fill="#2F404C"/>
<path d="M84.651 63.7855C84.6452 63.9809 84.5909 64.1718 84.4931 64.3411C84.3639 64.5623 84.1949 64.7577 83.9945 64.9175C83.4926 65.3384 82.9577 65.7184 82.3948 66.0537C81.7487 66.4404 81.0815 66.7906 80.3962 67.1029C79.6857 67.4305 79.0084 67.7166 78.3768 67.9322C77.7453 68.1478 77.1303 68.3718 76.4987 68.5376L76.3408 68.5667C76.2675 68.5714 76.1939 68.5714 76.1206 68.5667C75.958 68.5672 75.7966 68.5405 75.6428 68.4879C75.5065 68.4413 75.3787 68.3726 75.2647 68.2847C75.1604 68.2015 75.0754 68.0968 75.0154 67.9778C74.9569 67.8607 74.9269 67.7314 74.9281 67.6005C74.9289 67.5503 74.9399 67.5009 74.9607 67.4552C74.9814 67.4096 75.0114 67.3687 75.0486 67.3351C75.1431 67.2456 75.251 67.1714 75.3685 67.1153C75.5225 67.0401 75.6807 66.9736 75.8422 66.9162L76.4073 66.7296L76.6234 66.6758L76.8768 66.6218L77.1428 66.5638L77.3754 66.5099C77.6065 66.3806 77.8143 66.2138 77.9904 66.0164C78.1867 65.8038 78.3607 65.5718 78.5098 65.3239C78.6535 65.0868 78.7719 64.8352 78.863 64.5733C78.9416 64.3649 78.9851 64.1449 78.9918 63.9223C78.9918 63.4081 78.8754 63.1469 78.6427 63.1469C78.5199 63.1517 78.3989 63.1784 78.2854 63.2256C78.1285 63.281 77.9757 63.3475 77.8284 63.4247C77.6705 63.5076 77.5084 63.603 77.3505 63.7025C77.1926 63.802 77.043 63.9057 76.9101 64.0094C76.6851 64.1926 76.4753 64.3937 76.2827 64.6107C76.05 64.8678 75.8215 65.1456 75.5888 65.44C75.3561 65.7344 75.14 66.0537 74.9364 66.3689C74.7328 66.684 74.5625 66.9784 74.4254 67.248C74.4004 67.4761 74.3755 67.7249 74.3506 67.9985C74.3256 68.2722 74.3007 68.5667 74.2716 68.8901C74.2425 69.2136 74.2218 69.5453 74.2093 69.8853C74.1968 70.2254 74.1802 70.5488 74.1678 70.8681C74.1553 71.1874 74.1345 71.4901 74.1137 71.7804C74.0968 72.0366 74.0635 72.2915 74.014 72.5434C74.0344 72.7857 73.9697 73.0276 73.8312 73.2276C73.766 73.2994 73.6855 73.3557 73.5956 73.3923C73.5057 73.4289 73.4087 73.4449 73.3118 73.4391C73.1787 73.4378 73.0472 73.4096 72.9254 73.3562C72.79 73.3029 72.6616 73.2332 72.5431 73.1488C72.4348 73.072 72.337 72.9814 72.2523 72.8793C72.1862 72.8025 72.1469 72.7065 72.1401 72.6056C72.1343 72.4993 72.1343 72.3927 72.1401 72.2863C72.1401 72.166 72.1692 72.0375 72.1816 71.8965C72.1941 71.7555 72.2315 71.5067 72.2523 71.3201C72.273 71.1335 72.2897 70.9676 72.3104 70.8101C72.3312 70.6525 72.3437 70.5073 72.3603 70.3954C72.3769 70.2834 72.3852 70.1632 72.3977 70.0844C72.4683 69.5909 72.5307 69.0477 72.5847 68.4506C72.6387 67.8534 72.6802 67.2314 72.7093 66.5845C72.7384 65.9376 72.7509 65.4234 72.7592 64.9258C72.7621 64.4817 72.7955 64.0384 72.8589 63.5988C72.8948 63.2892 72.9968 62.9909 73.1581 62.7239C73.2306 62.619 73.3294 62.5348 73.4445 62.4795C73.5596 62.4242 73.6871 62.3998 73.8146 62.4087C73.9375 62.4052 74.0593 62.4338 74.1678 62.4917C74.2711 62.5452 74.364 62.6168 74.442 62.7032C74.5165 62.7891 74.5756 62.8873 74.6165 62.9934C74.6538 63.0958 74.6735 63.2038 74.6747 63.3127C74.6717 63.5442 74.6452 63.7749 74.5957 64.0011C74.5417 64.2623 74.4918 64.5692 74.442 64.9175C74.5459 64.735 74.6622 64.5526 74.7869 64.366C74.9115 64.1794 75.0403 64.0011 75.1691 63.8311C75.2979 63.661 75.4267 63.4952 75.5555 63.3417C75.6843 63.1883 75.8132 63.0598 75.9337 62.9271C76.3652 62.514 76.8622 62.175 77.4045 61.9236C77.6621 61.81 77.9329 61.7292 78.2106 61.683C78.5197 61.6329 78.8324 61.6094 79.1455 61.6126C79.3663 61.6108 79.5804 61.6888 79.748 61.8323C79.9288 61.9832 80.082 62.1642 80.2009 62.3673C80.3252 62.5779 80.4215 62.8037 80.4876 63.039C80.546 63.2428 80.5782 63.4533 80.5832 63.6652C80.58 63.8755 80.5435 64.0841 80.4751 64.2831C80.3978 64.5204 80.3034 64.7519 80.1926 64.9756C80.0779 65.2068 79.9474 65.4299 79.802 65.6432C79.6809 65.833 79.5417 66.0108 79.3865 66.174C79.7397 66.0247 80.1136 65.8464 80.5084 65.6515C80.9031 65.4566 81.2812 65.2368 81.6552 65.0295C82.0291 64.8221 82.3781 64.6148 82.7147 64.3701C83.0512 64.1255 83.3338 63.9265 83.5789 63.7191C83.6884 63.6216 83.8134 63.5431 83.9488 63.4869C84.0655 63.4363 84.1913 63.4095 84.3186 63.4081C84.4069 63.4007 84.495 63.4242 84.5679 63.4744C84.6055 63.516 84.6326 63.5658 84.6471 63.6199C84.6615 63.674 84.6628 63.7307 84.651 63.7855Z" fill="#2F404C"/>
<path d="M90.069 63.802C90.0636 63.8865 90.0377 63.9683 89.9935 64.0405C89.9494 64.1128 89.8883 64.1732 89.8156 64.2167C89.5603 64.3701 89.2784 64.4742 88.9846 64.5236C88.8142 64.565 88.6522 64.6065 88.4984 64.6521C88.3377 64.6959 88.1818 64.7556 88.0331 64.8304C87.8624 64.9169 87.6998 65.0182 87.5469 65.1331C87.3459 65.2873 87.1557 65.4549 86.9777 65.6349C86.7117 65.9036 86.4698 66.195 86.2547 66.5057C86.0388 66.816 85.851 67.1449 85.6938 67.4885C85.5261 67.8474 85.3872 68.219 85.2783 68.5998C85.1588 69.0081 85.0658 69.4236 84.9999 69.8439C84.9853 69.8762 84.9672 69.9068 84.9459 69.9351L84.9043 69.9973L84.8711 70.0388C84.7914 70.1311 84.69 70.2024 84.5761 70.2461C84.4428 70.2931 84.3018 70.3142 84.1606 70.3083C84.0771 70.3126 83.9937 70.3002 83.9152 70.2717C83.8366 70.2432 83.7646 70.1993 83.7035 70.1424C83.5927 70.0356 83.5099 69.9031 83.4625 69.7568C83.4122 69.608 83.3814 69.4532 83.3711 69.2965C83.3711 69.1389 83.3711 69.0062 83.3711 68.9067C83.3711 68.8072 83.3711 68.6454 83.4002 68.4423C83.4293 68.2391 83.4334 68.0276 83.4542 67.7912C83.475 67.5548 83.4958 67.3268 83.5124 67.0904C83.529 66.8541 83.5373 66.6509 83.5373 66.4725C83.5373 66.2942 83.5373 66.1615 83.5373 65.9376C83.5373 65.7137 83.5373 65.4773 83.5124 65.2244C83.4874 64.9714 83.5124 64.7185 83.5124 64.4697C83.5124 64.2209 83.5124 64.0135 83.5124 63.8394C83.5112 63.7054 83.5381 63.5726 83.5913 63.4496C83.6433 63.3331 83.715 63.2265 83.8032 63.1344C83.8894 63.0466 83.9908 62.9749 84.1024 62.9229C84.2129 62.8711 84.3335 62.8442 84.4556 62.8441C84.5988 62.8376 84.7414 62.8661 84.8711 62.9271C84.9827 62.9786 85.0819 63.0536 85.1619 63.1469C85.2408 63.2374 85.3027 63.3413 85.3447 63.4537C85.3829 63.5688 85.4025 63.6891 85.4029 63.8103C85.4029 63.8642 85.4029 63.9555 85.4029 64.0799C85.4029 64.2043 85.4029 64.3411 85.3697 64.4946C85.3364 64.648 85.3406 64.8097 85.324 64.9756C85.3074 65.1414 85.2907 65.299 85.2741 65.4358C85.2575 65.5727 85.245 65.6971 85.2284 65.7925C85.2224 65.8544 85.2098 65.9156 85.191 65.9749C85.409 65.5388 85.6648 65.1225 85.9556 64.7309C86.2173 64.376 86.5215 64.0543 86.8614 63.773C87.1716 63.5163 87.5172 63.3054 87.8876 63.1469C88.24 62.9984 88.6187 62.9222 89.0012 62.9229C89.1269 62.9249 89.2521 62.9388 89.3752 62.9644C89.5041 62.9906 89.6277 63.0383 89.7408 63.1054C89.8503 63.1693 89.9452 63.2555 90.0192 63.3583C90.088 63.4957 90.1057 63.6529 90.069 63.802Z" fill="#2F404C"/>
<path d="M99.9501 64.3121C99.9176 64.4916 99.8483 64.6624 99.7465 64.8138C99.4806 65.1912 99.1856 65.5686 98.8656 65.9418C98.541 66.3148 98.1956 66.6692 97.831 67.0033C97.4685 67.3361 97.087 67.6476 96.6883 67.9364C96.3061 68.2138 95.9033 68.4619 95.4834 68.6786C95.0936 68.8789 94.686 69.0427 94.266 69.1679C93.8821 69.2847 93.4831 69.3447 93.0818 69.3462C92.7109 69.3681 92.3395 69.3143 91.9901 69.1881C91.6408 69.0619 91.3209 68.866 91.05 68.6123C90.5652 68.123 90.3228 67.3835 90.3228 66.3938C90.3211 66.0038 90.3489 65.6143 90.4059 65.2285C90.4618 64.8417 90.555 64.4612 90.6843 64.0923C90.9613 63.2984 91.3951 62.568 91.9599 61.9443C92.0794 61.8103 92.2116 61.6881 92.3546 61.5794C92.5048 61.4624 92.6647 61.3584 92.8325 61.2684C93.0036 61.1768 93.183 61.1019 93.3685 61.0445C93.5477 60.9906 93.7339 60.9626 93.9211 60.9615C94.1627 60.9564 94.402 61.009 94.6191 61.1149C94.8106 61.2129 94.9759 61.355 95.1011 61.5296C95.2312 61.7051 95.327 61.9035 95.3837 62.1143C95.4457 62.3413 95.4764 62.5757 95.4751 62.811C95.4556 63.3199 95.2801 63.8105 94.9723 64.2167C94.5715 64.7696 94.1025 65.2698 93.5762 65.7054C93.3851 65.8671 93.1607 66.0413 92.9073 66.2321L92.0513 66.8706C92.0633 66.996 92.1015 67.1175 92.1635 67.2273C92.2283 67.342 92.316 67.4422 92.4211 67.5217C92.5404 67.61 92.6739 67.6773 92.8159 67.7207C92.9832 67.7694 93.1568 67.7931 93.3311 67.7912C93.5983 67.7885 93.8644 67.7565 94.1247 67.6958C94.4075 67.6318 94.6852 67.5472 94.9557 67.4429C95.2298 67.3351 95.4975 67.2119 95.7576 67.0738C96.0028 66.9412 96.2401 66.7945 96.4681 66.6343C96.8444 66.3629 97.2064 66.0722 97.5526 65.7635C97.9016 65.4525 98.2382 65.1332 98.5623 64.8097L98.9778 64.395C99.1666 64.191 99.4208 64.059 99.6966 64.0218C99.7371 64.0176 99.7779 64.0247 99.8146 64.0423C99.8513 64.0599 99.8823 64.0872 99.9044 64.1213C99.9372 64.1794 99.953 64.2455 99.9501 64.3121ZM94.0042 62.9105C94.0041 62.8032 93.9929 62.6962 93.971 62.5912C93.9668 62.5533 93.9547 62.5167 93.9354 62.4838C93.916 62.4509 93.8899 62.4225 93.8588 62.4004C93.6557 62.4129 93.4621 62.4899 93.3062 62.6202C93.0846 62.7969 92.8949 63.0101 92.7452 63.2505C92.5491 63.5575 92.3888 63.8859 92.2674 64.2292C92.1223 64.6435 92.0192 65.0714 91.9599 65.5064C92.2009 65.3267 92.4419 65.1401 92.6829 64.9465C92.915 64.758 93.133 64.5529 93.3352 64.3328C93.5245 64.1308 93.6865 63.9049 93.8172 63.6611C93.9407 63.4301 94.005 63.1723 94.0042 62.9105Z" fill="#2F404C"/>
<path d="M106.623 64.0674C106.606 64.2514 106.544 64.4283 106.44 64.5816C106.3 64.808 106.146 65.0254 105.979 65.2326C105.792 65.4607 105.564 65.6929 105.356 65.9251C105.148 66.1574 104.907 66.3855 104.691 66.5928C104.566 66.7131 104.375 66.8831 104.13 67.0987L103.299 67.8119L102.335 68.6123C101.999 68.8901 101.683 69.1472 101.384 69.3836C101.084 69.6199 100.823 69.8314 100.594 70.0097C100.366 70.188 100.204 70.3083 100.108 70.3746C99.8361 70.5613 99.5467 70.721 99.2437 70.8515C99.0145 70.9541 98.7677 71.0119 98.5166 71.0215C98.3641 71.0245 98.2119 71.0078 98.0637 70.9718C97.9586 70.9464 97.8588 70.9029 97.7687 70.8432C97.6985 70.7977 97.6412 70.7349 97.6025 70.6608C97.5671 70.5959 97.5486 70.5232 97.5485 70.4493C97.5459 70.2867 97.5786 70.1254 97.6441 69.9765C97.716 69.8171 97.8224 69.6755 97.9557 69.5619C98.1183 69.4236 98.2968 69.3053 98.4875 69.2094C98.7036 69.0933 98.9612 68.9772 99.2562 68.8528C99.4474 68.7781 99.6219 68.7035 99.7756 68.633C99.9217 68.5699 100.061 68.4921 100.191 68.4008C100.297 68.3245 100.386 68.227 100.453 68.1146C100.518 67.9968 100.55 67.8635 100.544 67.729C100.533 67.6584 100.507 67.5908 100.469 67.53C100.413 67.4149 100.35 67.3028 100.283 67.1941L100.029 66.7794L99.7507 66.3398L99.493 65.9251C99.4099 65.7966 99.3476 65.6929 99.3019 65.6059C99.1012 65.2439 98.9941 64.8377 98.9903 64.424C98.9895 64.2461 99.0048 64.0685 99.036 63.8933C99.0669 63.7034 99.117 63.5173 99.1856 63.3376C99.2573 63.0941 99.3667 62.8633 99.5097 62.6534C99.6533 62.4366 99.8205 62.2363 100.008 62.0562C100.176 61.8977 100.362 61.7586 100.561 61.6416C100.707 61.548 100.874 61.4937 101.047 61.484C101.198 61.4812 101.349 61.4965 101.496 61.5296C101.598 61.5513 101.691 61.602 101.765 61.6756C101.839 61.7492 101.89 61.8425 101.911 61.9443C101.938 62.0668 101.951 62.1921 101.949 62.3175C101.946 62.4431 101.915 62.5665 101.857 62.6783C101.795 62.7942 101.72 62.9027 101.633 63.0017C101.551 63.1046 101.459 63.1991 101.359 63.2837L101.109 63.5118L100.802 63.7854C100.722 63.8534 100.646 63.9254 100.573 64.0011C100.579 64.3103 100.66 64.6136 100.81 64.8843C100.889 65.0129 100.985 65.1787 101.097 65.3695L101.446 65.9583L101.787 66.5347L102.04 66.9494C102.155 66.893 102.265 66.8264 102.368 66.7504L102.879 66.3937L103.499 65.9251L104.167 65.3902C104.388 65.2078 104.583 65.0295 104.816 64.847C105.048 64.6645 105.21 64.4945 105.377 64.3328C105.543 64.1711 105.638 64.0799 105.734 63.9803C105.83 63.8808 105.908 63.802 105.975 63.7357C106.031 63.6836 106.091 63.6352 106.154 63.5905C106.204 63.5578 106.264 63.5405 106.324 63.5408C106.355 63.5398 106.386 63.546 106.414 63.559C106.442 63.5719 106.467 63.5913 106.486 63.6154C106.53 63.6608 106.566 63.7143 106.59 63.773C106.612 63.8268 106.63 63.8822 106.644 63.9389C106.615 64.0259 106.623 64.055 106.623 64.0674Z" fill="#2F404C"/>
<path d="M109.785 67.7871C109.785 68.054 109.734 68.3185 109.635 68.5667C109.536 68.8238 109.405 69.0676 109.245 69.2924C109.079 69.5229 108.89 69.7356 108.68 69.9268C108.475 70.1122 108.252 70.2775 108.015 70.4203C107.798 70.5515 107.569 70.6599 107.329 70.7437C107.124 70.8179 106.908 70.8571 106.69 70.8598C106.567 70.8709 106.444 70.8568 106.328 70.8183C106.211 70.7797 106.104 70.7177 106.012 70.6359C105.864 70.4701 105.786 70.2527 105.796 70.0305C105.796 69.9133 105.816 69.797 105.854 69.6863C105.889 69.579 105.945 69.4801 106.021 69.396C106.093 69.312 106.182 69.2441 106.282 69.197C106.394 69.149 106.514 69.125 106.636 69.1265H106.773C106.889 69.124 107.005 69.1087 107.118 69.0809C107.281 69.0296 107.431 68.9432 107.558 68.8279C107.703 68.714 107.815 68.5638 107.882 68.3925C107.945 68.2527 107.98 68.102 107.986 67.9488C107.985 67.8371 107.957 67.7273 107.903 67.6295C107.84 67.525 107.766 67.4276 107.683 67.3392C107.583 67.2367 107.476 67.1411 107.363 67.0531C107.246 66.9577 107.118 66.8623 106.989 66.767C106.86 66.6716 106.64 66.4974 106.465 66.3523C106.294 66.2103 106.134 66.055 105.987 65.8879C105.849 65.731 105.734 65.555 105.647 65.3654C105.559 65.1786 105.513 64.9746 105.514 64.7682C105.517 64.5396 105.557 64.313 105.63 64.0965C105.709 63.8559 105.812 63.6239 105.937 63.404C106.067 63.175 106.217 62.9585 106.386 62.7571C106.544 62.5636 106.718 62.3833 106.906 62.218C107.071 62.0715 107.254 61.9461 107.45 61.8448C107.608 61.7611 107.782 61.7143 107.961 61.7079C108.176 61.692 108.389 61.7605 108.555 61.8987C108.629 61.9812 108.684 62.0779 108.718 62.1828C108.753 62.2876 108.765 62.3984 108.755 62.5082C108.753 62.6522 108.719 62.7941 108.655 62.9229C108.582 63.0696 108.494 63.2085 108.393 63.3376C108.286 63.4754 108.169 63.6056 108.044 63.7274C107.915 63.8559 107.786 63.9721 107.666 64.0799C107.571 64.1659 107.469 64.2449 107.363 64.3162C107.271 64.3752 107.184 64.4403 107.101 64.5111C107.156 64.6113 107.223 64.7045 107.3 64.789C107.383 64.8862 107.471 64.9777 107.566 65.0627C107.662 65.1539 107.762 65.2368 107.861 65.3198L108.14 65.5478C108.327 65.7013 108.518 65.8588 108.709 66.0288C108.899 66.1906 109.077 66.3667 109.241 66.5555C109.394 66.7337 109.526 66.9301 109.631 67.1402C109.732 67.341 109.785 67.5625 109.785 67.7871Z" fill="#2F404C"/>
<path d="M60.3147 87.3764C60.2571 87.4538 60.1869 87.5211 60.107 87.5754C60.0253 87.6297 59.9391 87.6769 59.8493 87.7164C59.7591 87.7521 59.666 87.7798 59.571 87.7993C59.4873 87.8148 59.4025 87.8232 59.3175 87.8242H58.1665C57.9064 87.8261 57.6467 87.8469 57.3896 87.8864C57.107 87.9279 56.8245 87.9776 56.5336 88.0357C56.2428 88.0937 55.9561 88.1684 55.6694 88.243L54.8633 88.4545C54.4478 88.5748 54.0655 88.6743 53.7082 88.7614C53.4055 88.8405 53.0944 88.8837 52.7816 88.8899C52.5882 88.8942 52.3956 88.8647 52.2123 88.8028C52.0679 88.753 51.936 88.6724 51.8259 88.5665C51.729 88.471 51.6551 88.3547 51.6099 88.2264C51.5608 88.0938 51.5368 87.9532 51.5392 87.8118C51.5463 87.4989 51.5768 87.187 51.6306 86.8787C51.693 86.5138 51.7636 86.1323 51.8467 85.7342C51.8467 85.6264 51.9007 85.4232 51.9547 85.1164C52.0088 84.8095 52.0711 84.4529 52.1376 84.0465C52.204 83.6401 52.2788 83.2172 52.3536 82.7444C52.4284 82.2717 52.4949 81.8446 52.5614 81.4299C52.6279 81.0152 52.6819 80.642 52.7276 80.3144C52.7733 79.9868 52.8065 79.7546 52.819 79.6178C52.8439 79.369 52.8647 79.1326 52.8771 78.9087C52.8896 78.6848 52.9062 78.494 52.9312 78.2991C52.9515 78.1299 52.9834 77.9622 53.0267 77.7973C53.0635 77.6617 53.1271 77.5349 53.2137 77.4241C53.3017 77.3175 53.4164 77.2359 53.5461 77.1878C53.714 77.128 53.8915 77.0998 54.0697 77.1048C54.2334 77.0978 54.3963 77.132 54.5433 77.2043C54.6603 77.2663 54.7602 77.356 54.8342 77.4656C54.9072 77.5749 54.958 77.6975 54.9838 77.8264C55.0106 77.963 55.0246 78.1018 55.0253 78.241C55.0165 78.3593 55.0012 78.4769 54.9796 78.5935L54.855 79.2777C54.8051 79.5514 54.7469 79.8541 54.6846 80.1859C54.6223 80.5176 54.5558 80.8576 54.4893 81.2018C54.4228 81.546 54.3605 81.8819 54.3024 82.2136C54.2442 82.5454 54.1943 82.8398 54.1486 83.1011C54.1029 83.3623 54.053 83.6111 53.9907 83.8931C53.9284 84.175 53.8702 84.4653 53.8204 84.7556L53.7082 85.3983C53.6708 85.614 53.6375 85.813 53.6043 86.0079C53.571 86.2028 53.5503 86.377 53.5337 86.5387C53.517 86.7004 53.5087 86.829 53.5087 86.9285C53.5043 86.9809 53.5043 87.0336 53.5087 87.0861C53.5087 87.1358 53.542 87.1566 53.5711 87.1566C53.7108 87.1524 53.8498 87.1358 53.9866 87.1068C54.1569 87.0736 54.348 87.0322 54.5516 86.9824L55.1791 86.8165L55.7774 86.6424L56.035 86.5843L56.4838 86.4889L57.0239 86.3811L57.5641 86.2816L58.017 86.2111C58.1079 86.1981 58.1994 86.1898 58.2912 86.1862C58.422 86.1792 58.5524 86.1653 58.6818 86.1448C58.9023 86.1179 59.1244 86.1054 59.3466 86.1075C59.6492 86.0883 59.9521 86.1394 60.2316 86.2567C60.3229 86.3082 60.3973 86.3849 60.446 86.4776C60.4946 86.5703 60.5154 86.675 60.5058 86.7792C60.5052 86.8835 60.4884 86.987 60.456 87.0861C60.429 87.1914 60.381 87.2901 60.3147 87.3764Z" fill="#2F404C"/>
<path d="M68.5543 85.9209L68.0806 86.3936C67.931 86.5429 67.7773 86.6797 67.6277 86.8083L67.1665 87.1981C67.0086 87.3225 66.8466 87.451 66.6721 87.5754C66.3526 87.8143 66.0052 88.0134 65.6374 88.1684C65.331 88.2986 65.0023 88.369 64.6693 88.3757C64.3511 88.3841 64.035 88.3232 63.7427 88.1974C63.4879 88.0826 63.259 87.9175 63.0696 87.7123C62.8827 87.5008 62.7299 87.2615 62.6167 87.0032C62.4995 86.7355 62.4063 86.4579 62.3383 86.1738C62.2704 85.8775 62.2232 85.5768 62.1971 85.274C62.1721 84.9671 62.1597 84.681 62.1597 84.4073C62.1597 84.2995 62.168 84.146 62.1846 83.947C62.1846 83.7438 62.2178 83.5323 62.2469 83.3126C62.276 83.0928 62.3051 82.8979 62.3383 82.6698C62.363 82.5006 62.3977 82.3331 62.4422 82.168C62.4846 82.0318 62.5507 81.904 62.6375 81.7907C62.7323 81.6664 62.8442 81.5561 62.9699 81.4631C63.2157 81.2548 63.5283 81.1415 63.8508 81.1438C64.1832 81.1438 64.3494 81.3387 64.3494 81.7368C64.3464 81.8994 64.3311 82.0616 64.3037 82.222C64.2704 82.4086 64.2455 82.5993 64.2164 82.7942C64.1873 82.9891 64.1582 83.2089 64.1333 83.4038C64.1084 83.5987 64.0876 83.7479 64.071 83.8931C64.0544 84.0382 64.0378 84.1668 64.0294 84.2829C64.0234 84.3948 64.0234 84.5069 64.0294 84.6188C64.0302 84.835 64.0441 85.0511 64.071 85.2657C64.0974 85.4908 64.1391 85.7138 64.1957 85.9333C64.2423 86.113 64.3121 86.2858 64.4034 86.4475C64.4262 86.5054 64.4647 86.5558 64.5146 86.5932C64.5645 86.6305 64.6238 86.6533 64.6859 86.659C64.8646 86.656 65.0427 86.6365 65.2178 86.6009C65.441 86.5546 65.6546 86.4705 65.8494 86.3521C66.0654 86.2319 66.2649 86.0909 66.5183 85.9374C66.7661 85.7619 67.0047 85.5736 67.233 85.3735L67.9061 84.7805C68.1263 84.5815 68.3507 84.3658 68.5709 84.1336L68.8493 83.8433C68.9366 83.7562 69.0113 83.6733 69.082 83.5945L69.2939 83.3665L69.51 83.1342L69.5847 83.0472L69.6845 82.9476C69.7215 82.9177 69.7604 82.89 69.8008 82.8647C69.8377 82.8441 69.879 82.8327 69.9213 82.8315C69.9827 82.8323 70.0434 82.845 70.1 82.8688C70.1678 82.8987 70.2215 82.9537 70.2495 83.0223C70.283 83.087 70.3041 83.1573 70.3119 83.2296C70.3119 83.3001 70.3119 83.3582 70.3119 83.4038C70.2999 83.4904 70.2702 83.5737 70.2246 83.6484C70.1706 83.7645 70.0958 83.8972 70.0044 84.0631C69.913 84.229 69.805 84.3741 69.6845 84.5483C69.564 84.7224 69.4393 84.8925 69.3105 85.0666C69.1817 85.2408 69.057 85.4025 68.9282 85.5559C68.7994 85.7094 68.6665 85.813 68.5543 85.9209ZM65.5876 77.0965C65.5891 77.2589 65.5624 77.4202 65.5086 77.5734C65.4563 77.7218 65.3821 77.8616 65.2884 77.9881C65.1861 78.1262 65.0507 78.2365 64.8946 78.3089C64.7386 78.3813 64.5668 78.4136 64.3951 78.4028C64.256 78.4013 64.1171 78.3902 63.9796 78.3696C63.8373 78.35 63.6979 78.3138 63.5641 78.2618C63.4575 78.2196 63.3591 78.1593 63.2732 78.0835C63.237 78.0537 63.2079 78.0164 63.1878 77.9741C63.1677 77.9318 63.1571 77.8856 63.1569 77.8388C63.1603 77.6652 63.2044 77.4948 63.2857 77.3412C63.3696 77.1653 63.4757 77.0009 63.6015 76.8519C63.7195 76.7076 63.8597 76.5831 64.017 76.4828C64.1489 76.3907 64.3048 76.3389 64.4657 76.3335C64.6243 76.3307 64.7828 76.3418 64.9394 76.3667C65.0614 76.3858 65.1794 76.425 65.2884 76.4828C65.3828 76.538 65.4581 76.6204 65.5045 76.7192C65.5601 76.8372 65.5885 76.9661 65.5876 77.0965Z" fill="#2F404C"/>
<path d="M82.4073 82.8274C82.4059 82.9346 82.3877 83.0409 82.3532 83.1425C82.3188 83.2581 82.2743 83.3705 82.2203 83.4784C82.168 83.588 82.1097 83.6946 82.0458 83.7977C81.9905 83.8823 81.9308 83.9639 81.8671 84.0424C81.7051 84.2456 81.5222 84.457 81.3228 84.6893C81.1233 84.9215 80.9073 85.1454 80.6912 85.3693C80.4751 85.5933 80.2508 85.784 80.0223 86.0121C79.8061 86.2056 79.5771 86.3844 79.3367 86.547L78.8214 86.8871C78.6565 86.9893 78.4859 87.0821 78.3104 87.1649C78.1313 87.245 77.9448 87.3075 77.7536 87.3515C77.5423 87.3995 77.3262 87.4232 77.1095 87.422C76.7786 87.4355 76.4506 87.3565 76.1622 87.1939C75.9115 87.0425 75.7007 86.8335 75.5472 86.5843C75.3823 86.3145 75.2603 86.0207 75.1858 85.7135C75.1 85.3764 75.0348 85.0343 74.9905 84.6893C74.942 84.3034 74.8684 83.9211 74.7702 83.5448C74.6871 83.2683 74.5874 83.1301 74.4711 83.1301C74.3682 83.1308 74.2669 83.1564 74.1761 83.2047C74.0365 83.284 73.9126 83.388 73.8104 83.5116C73.6692 83.6692 73.4863 83.8972 73.262 84.1999C73.0376 84.5027 72.7551 84.9049 72.3977 85.4067C72.2772 85.5767 72.1276 85.7716 71.9531 85.9831C71.7786 86.1946 71.5916 86.3977 71.4005 86.5968C71.2186 86.781 71.0257 86.9541 70.8229 87.1151C70.6655 87.2462 70.4872 87.3499 70.2953 87.422C69.6554 87.281 69.3354 86.6673 69.3354 85.5891C69.3441 85.1842 69.3746 84.7799 69.4268 84.3783C69.4559 84.1419 69.4892 83.889 69.5266 83.6236C69.564 83.3582 69.6138 83.0969 69.672 82.8315C69.7302 82.5661 69.8008 82.3049 69.8839 82.0478C69.959 81.8029 70.0535 81.5644 70.1665 81.3345C70.2164 81.2277 70.2854 81.1307 70.3701 81.0484C70.4378 80.9816 70.5165 80.9269 70.6027 80.8867C70.6813 80.8502 70.7657 80.8277 70.852 80.8204C70.9378 80.814 71.0239 80.814 71.1096 80.8204C71.187 80.8189 71.2633 80.839 71.3299 80.8784C71.4045 80.9179 71.4697 80.9731 71.521 81.0401C71.5808 81.1169 71.6258 81.2041 71.654 81.2972C71.6888 81.4114 71.7056 81.5303 71.7038 81.6497C71.7048 81.7623 71.6951 81.8748 71.6747 81.9856C71.6747 82.0893 71.6249 82.2012 71.5916 82.3132L71.4794 82.6739C71.4421 82.8025 71.4005 82.9476 71.3631 83.1093C71.3257 83.2711 71.3008 83.354 71.2509 83.524C71.2011 83.694 71.1554 83.8641 71.1055 84.0465C71.0556 84.229 71.0141 84.4031 70.9725 84.5732C70.9373 84.7093 70.9123 84.8479 70.8978 84.9878C70.9892 84.88 71.093 84.7473 71.2135 84.5732C71.334 84.399 71.4587 84.2414 71.5916 84.0548C71.7246 83.8682 71.8576 83.6816 72.0071 83.4867C72.1567 83.2918 72.2814 83.1135 72.4227 82.9393C72.5639 82.7652 72.7758 82.5247 72.9503 82.309C73.1092 82.1208 73.2874 81.9499 73.4822 81.799C73.6711 81.6554 73.8796 81.5395 74.1013 81.4548C74.344 81.3689 74.6 81.3267 74.8575 81.3304C75.1404 81.3177 75.4207 81.3883 75.6636 81.5336C75.8791 81.671 76.053 81.8646 76.1664 82.0934C76.299 82.3549 76.3927 82.6343 76.4447 82.9228C76.5029 83.2504 76.5528 83.607 76.586 83.9926C76.586 84.1917 76.6359 84.4073 76.6691 84.6022C76.6986 84.795 76.7488 84.984 76.8187 85.1661C76.8736 85.3213 76.9615 85.4628 77.0763 85.5808C77.1288 85.6376 77.1934 85.682 77.2653 85.7107C77.3372 85.7394 77.4146 85.7517 77.4918 85.7467C77.7584 85.7394 78.0204 85.6758 78.2605 85.5601C78.5674 85.4173 78.8596 85.2451 79.1331 85.0459C79.4585 84.8088 79.7706 84.5541 80.0679 84.2829C80.3879 83.9968 80.712 83.6858 81.0319 83.3582C81.1316 83.2503 81.2314 83.1467 81.3228 83.0389C81.4142 82.931 81.5098 82.844 81.5929 82.761C81.6687 82.6832 81.7538 82.6149 81.8463 82.5578C81.9194 82.5106 82.0044 82.4847 82.0915 82.4832H82.1953C82.2362 82.4925 82.2754 82.5078 82.3117 82.5288C82.3541 82.5579 82.3877 82.598 82.4089 82.6448C82.4302 82.6915 82.4382 82.7432 82.4322 82.7942L82.4073 82.8274Z" fill="#2F404C"/>
<path d="M86.7782 82.7818C86.7782 83.043 86.7782 83.3664 86.7491 83.7438C86.72 84.1212 86.6993 84.5732 86.6577 85.0625C86.6328 85.3735 86.5954 85.7384 86.5497 86.1531C86.504 86.5677 86.4499 86.9824 86.3793 87.4344C86.3087 87.8864 86.2339 88.2887 86.1466 88.6785C86.0732 89.0424 85.976 89.4011 85.8558 89.7525C85.749 90.0436 85.6096 90.3218 85.4403 90.5818C85.2768 90.8474 85.0752 91.0877 84.842 91.2951C84.6095 91.5019 84.3422 91.6661 84.0525 91.7802C83.7418 91.9028 83.4101 91.9634 83.0761 91.9585C82.7658 91.9582 82.4569 91.9164 82.1578 91.8341C81.8566 91.7529 81.5643 91.6418 81.2852 91.5024C81.0183 91.3707 80.7638 91.2153 80.5248 91.038C80.3054 90.8724 80.101 90.6878 79.914 90.4864C79.7496 90.3189 79.6097 90.1291 79.4985 89.9225C79.4105 89.7633 79.3607 89.5858 79.3531 89.4041C79.3434 89.3439 79.348 89.2821 79.3665 89.224C79.3851 89.1658 79.4171 89.1127 79.46 89.0692C79.5028 89.0256 79.5553 88.9927 79.6133 88.9731C79.6712 88.9535 79.733 88.9477 79.7935 88.9563C79.8616 88.9537 79.929 88.9694 79.9888 89.0019C80.0451 89.0306 80.098 89.0653 80.1467 89.1056C80.1915 89.1467 80.2331 89.1911 80.2714 89.2383C80.3029 89.2783 80.3377 89.3158 80.3753 89.3502C80.5794 89.5425 80.8005 89.716 81.0359 89.8686C81.2405 90.0002 81.4576 90.1114 81.6841 90.2003C81.9005 90.2819 82.1246 90.3416 82.353 90.3786C82.5841 90.4137 82.8174 90.4317 83.0511 90.4325C83.3113 90.4425 83.5669 90.3619 83.7741 90.2045C83.9687 90.0425 84.1236 89.8382 84.227 89.6073C84.3492 89.3424 84.4398 89.064 84.4971 88.778C84.5608 88.4794 84.6148 88.185 84.6591 87.8947C84.7131 87.5298 84.763 87.1773 84.8045 86.8373C84.8461 86.4973 84.8793 86.1697 84.9043 85.8504C84.6941 86.0698 84.4584 86.2633 84.2021 86.4267C83.9276 86.6044 83.6385 86.7584 83.3378 86.8871C83.042 87.014 82.7363 87.1166 82.4237 87.1939C82.1516 87.2608 81.8729 87.297 81.5927 87.3017C81.4714 87.2994 81.3504 87.2869 81.2312 87.2644C81.0879 87.2409 80.9483 87.1991 80.8157 87.14C80.6881 87.0857 80.5734 87.0052 80.4791 86.9036C80.4324 86.8544 80.3958 86.7965 80.3716 86.7332C80.3473 86.6699 80.3359 86.6023 80.3379 86.5346C80.3433 86.1966 80.3921 85.8607 80.4833 85.5352C80.5831 85.1438 80.7066 84.7589 80.8531 84.3824C81.0085 84.0235 81.1833 83.6733 81.3766 83.3333C81.5345 83.0167 81.7194 82.7142 81.9293 82.4293C82.1685 82.1029 82.4354 81.7977 82.727 81.517C82.9986 81.2575 83.2919 81.0217 83.6037 80.812C83.8632 80.629 84.1419 80.4747 84.4347 80.3518C84.6643 80.2565 84.9092 80.2031 85.1577 80.1942C85.343 80.1959 85.5278 80.2125 85.7103 80.2439C85.9031 80.2752 86.0915 80.3295 86.2713 80.4057C86.4298 80.4796 86.5713 80.5855 86.6868 80.7167C86.8044 80.8489 86.8668 81.021 86.8613 81.1977C86.8613 81.2931 86.8613 81.405 86.8613 81.5294C86.8613 81.6538 86.8364 81.7865 86.8239 81.9234C86.8114 82.0602 86.8239 82.2053 86.7907 82.338C86.7574 82.4707 86.7782 82.6283 86.7782 82.7818ZM85.0497 83.9387C85.0497 83.8143 85.0912 83.6733 85.112 83.524C85.1328 83.3747 85.1577 83.1798 85.1744 82.9891C85.191 82.7983 85.2076 82.5744 85.2159 82.3837C85.2242 82.1929 85.2159 81.969 85.2159 81.7409C85.215 81.7118 85.2069 81.6833 85.1924 81.658C85.1779 81.6327 85.1575 81.6114 85.1328 81.5958C85.0746 81.5545 85.0048 81.5327 84.9334 81.5336C84.777 81.5667 84.6331 81.6428 84.5178 81.7534C84.2929 81.9367 84.0831 82.1378 83.8904 82.3546C83.6344 82.6368 83.3944 82.9331 83.1716 83.242C82.9223 83.5853 82.6974 83.9456 82.4985 84.3202C82.4333 84.4352 82.3791 84.5559 82.3364 84.681C82.2866 84.8178 82.2409 84.963 82.1993 85.0956C82.1578 85.2283 82.1245 85.3984 82.0954 85.5518C82.0664 85.7052 82.0497 85.8421 82.0331 85.9665C82.337 85.9014 82.6367 85.8183 82.9306 85.7177C83.2271 85.6204 83.5137 85.4955 83.7866 85.3444C83.9323 85.2584 84.0712 85.1613 84.2021 85.0542C84.337 84.945 84.4634 84.8258 84.5802 84.6976C84.6873 84.5779 84.7832 84.4489 84.8669 84.3119C84.9509 84.1996 85.0142 84.0732 85.0538 83.9387H85.0497Z" fill="#2F404C"/>
<path d="M102.206 82.1639C102.191 82.4984 102.087 82.8231 101.907 83.1052C101.681 83.4743 101.418 83.819 101.121 84.1336C100.783 84.4919 100.42 84.8272 100.037 85.1371C99.6562 85.4502 99.2566 85.7396 98.8403 86.0038C98.4789 86.2329 98.1012 86.4353 97.7101 86.6092C97.4322 86.7404 97.1319 86.8178 96.8251 86.8373C96.5335 86.8474 96.2452 86.774 95.9941 86.6258C95.7649 86.4871 95.5714 86.2968 95.429 86.0701C95.2727 85.825 95.1537 85.5581 95.0758 85.2781C94.9882 84.9781 94.9243 84.6717 94.8847 84.3617C94.7959 84.5654 94.6946 84.7634 94.5814 84.9547C94.4526 85.1703 94.3154 85.3693 94.1659 85.5891C94.0163 85.8089 93.8708 86.0038 93.7213 86.178C93.5717 86.3521 93.4346 86.5222 93.3058 86.6548C93.1214 86.8474 92.9258 87.0288 92.7199 87.1981C92.5053 87.3712 92.2759 87.5253 92.0343 87.6584C91.7876 87.7913 91.527 87.897 91.2573 87.9735C90.9871 88.0508 90.7074 88.0899 90.4263 88.0896C90.1966 88.0949 89.9694 88.0421 89.7656 87.9362C89.5788 87.8332 89.416 87.6918 89.2878 87.5215C89.1602 87.3476 89.0645 87.1524 89.0053 86.9451C88.9407 86.7341 88.9085 86.5147 88.9097 86.2941C88.9105 86.094 88.9271 85.8944 88.9596 85.6969C88.9928 85.4938 89.026 85.2823 89.0676 85.0749C89.1091 84.8676 89.1465 84.6603 89.1881 84.4488C89.2296 84.2373 89.2504 84.0341 89.267 83.8516C89.2836 83.6692 89.267 83.5489 89.2961 83.3789C89.3252 83.2089 89.3169 83.043 89.3294 82.873C89.3418 82.703 89.3294 82.533 89.3709 82.3671C89.4125 82.2012 89.4083 82.0353 89.4332 81.8902C89.4535 81.7856 89.4827 81.683 89.5205 81.5833C89.5605 81.4899 89.6168 81.4043 89.6867 81.3304C89.7625 81.2528 89.8548 81.1933 89.9568 81.1562C90.0892 81.1057 90.2307 81.0831 90.3723 81.0899C90.5002 81.0765 90.6294 81.0957 90.7479 81.1458C90.8663 81.1958 90.9701 81.275 91.0496 81.376C91.1955 81.639 91.2619 81.9386 91.2407 82.2385C91.2486 82.3766 91.2486 82.5151 91.2407 82.6532C91.2407 82.8066 91.2033 82.9642 91.1784 83.1301C91.1534 83.296 91.1243 83.4618 91.0911 83.6277C91.0579 83.7936 91.0205 83.9553 90.9831 84.1087C90.8958 84.4488 90.8127 84.7805 90.7379 85.0998C90.6668 85.3834 90.6277 85.6741 90.6216 85.9665C90.6142 86.1099 90.6443 86.2528 90.7088 86.3811C90.7273 86.4252 90.7576 86.4633 90.7965 86.4912C90.8354 86.519 90.8813 86.5355 90.929 86.5387C91.1696 86.5321 91.4043 86.4635 91.6105 86.3397C91.8568 86.1961 92.0879 86.028 92.3002 85.8379C92.5266 85.634 92.739 85.4151 92.9359 85.1827C93.1395 84.9464 93.3099 84.7308 93.4512 84.5317C93.6088 84.3187 93.7478 84.0925 93.8667 83.8558C94.0038 83.5862 94.1368 83.3043 94.2822 83.0264C94.4276 82.7486 94.5356 82.4376 94.6603 82.1432C94.7849 81.8487 94.8888 81.5958 94.9885 81.3719C95.0916 81.1121 95.2472 80.8764 95.4456 80.6794C95.5754 80.5363 95.7555 80.4487 95.9484 80.4347C96.096 80.4259 96.2423 80.4668 96.3639 80.5508C96.4161 80.6055 96.4554 80.671 96.4791 80.7428C96.5028 80.8145 96.5103 80.8905 96.501 80.9655C96.4983 81.0903 96.4886 81.2149 96.4719 81.3387C96.4719 81.5046 96.4303 81.6829 96.4054 81.8653C96.3805 82.0478 96.3556 82.2302 96.3348 82.4003C96.3178 82.5268 96.3081 82.6541 96.3057 82.7818C96.3057 82.8647 96.3057 82.9642 96.3057 83.0803C96.3057 83.1965 96.3057 83.3167 96.3057 83.4411C96.3057 83.5655 96.3057 83.6858 96.3348 83.8019C96.3639 83.918 96.3597 84.0175 96.3763 84.1004C96.3929 84.1834 96.4304 84.2953 96.4761 84.4363C96.5217 84.5789 96.5786 84.7175 96.6464 84.851C96.7105 84.9697 96.7856 85.0822 96.8708 85.1869C96.9021 85.227 96.9417 85.26 96.9868 85.2836C97.032 85.3072 97.0817 85.3209 97.1325 85.3237C97.421 85.3167 97.7045 85.2473 97.9636 85.1205C98.2842 84.9708 98.5902 84.7917 98.8777 84.5856C99.1851 84.3617 99.4968 84.1129 99.8084 83.835C100.12 83.5572 100.428 83.2752 100.723 83.0057L101.084 82.6532C101.193 82.5401 101.308 82.4335 101.429 82.3339C101.527 82.2485 101.631 82.1709 101.741 82.1017C101.815 82.0486 101.903 82.0171 101.994 82.0105C102.03 82.0088 102.066 82.0146 102.099 82.0275C102.133 82.0403 102.164 82.0599 102.189 82.0851C102.2 82.1101 102.205 82.1368 102.206 82.1639Z" fill="#2F404C"/>
<path d="M109.216 85.784C109.214 85.8925 109.195 86.0001 109.162 86.1033C109.121 86.2327 109.059 86.3546 108.979 86.4641C108.871 86.643 108.744 86.8099 108.601 86.9617C108.438 87.137 108.257 87.2941 108.061 87.4303C107.858 87.5733 107.637 87.689 107.404 87.7744C107.168 87.8646 106.917 87.9097 106.664 87.9071C106.391 87.9137 106.121 87.8509 105.879 87.7247C105.647 87.6017 105.444 87.4323 105.281 87.2271C105.105 87.007 104.965 86.7607 104.865 86.4972C104.763 86.216 104.695 85.9237 104.662 85.6264C104.443 85.9458 104.198 86.2468 103.93 86.5263C103.67 86.8057 103.385 87.061 103.079 87.2893C102.799 87.4979 102.497 87.6733 102.177 87.8118C101.903 87.9358 101.606 88.0022 101.304 88.0066C101.109 88.0085 100.917 87.963 100.743 87.874C100.564 87.7869 100.404 87.6641 100.274 87.5132C100.135 87.3582 100.026 87.1799 99.9499 86.9866C99.8664 86.7898 99.824 86.5782 99.8252 86.3645C99.8261 86.159 99.8428 85.9538 99.8751 85.7508C99.9125 85.5147 99.968 85.2818 100.041 85.0542C100.126 84.7725 100.226 84.4956 100.34 84.2248C100.465 83.9304 100.619 83.607 100.802 83.2586C101.01 82.863 101.258 82.4893 101.541 82.1432C101.813 81.8122 102.109 81.5017 102.426 81.2143C102.693 80.9731 102.984 80.7605 103.295 80.5798C103.501 80.4465 103.736 80.3654 103.98 80.3434C104.044 80.3436 104.107 80.3534 104.167 80.3725C104.238 80.3725 104.3 80.4098 104.363 80.4305L104.525 80.4969C104.553 80.5121 104.584 80.5219 104.616 80.5259L104.666 80.4969L104.782 80.4305C104.831 80.408 104.881 80.3886 104.932 80.3725C104.984 80.3528 105.038 80.343 105.094 80.3434C105.191 80.3463 105.287 80.3718 105.372 80.4181C105.476 80.4681 105.573 80.5323 105.659 80.6088C105.75 80.6866 105.832 80.7742 105.904 80.8701C105.97 80.9557 106.017 81.0548 106.041 81.1604C106.049 81.2031 106.061 81.2449 106.079 81.2848L106.108 81.3428C106.172 81.4004 106.226 81.4675 106.27 81.5419C106.314 81.6392 106.334 81.746 106.328 81.8529C106.321 81.963 106.305 82.0725 106.282 82.1805C106.249 82.3422 106.207 82.5246 106.166 82.7278C106.124 82.931 106.083 83.1425 106.049 83.3623C106.021 83.5629 106.006 83.7651 106.004 83.9677C105.998 84.3662 106.028 84.7644 106.091 85.1578C106.134 85.4258 106.209 85.6876 106.315 85.9374C106.384 86.0991 106.491 86.2415 106.627 86.3521C106.727 86.4294 106.849 86.473 106.976 86.4765C107.254 86.4854 107.53 86.4195 107.774 86.2858C108.001 86.1525 108.2 85.9765 108.36 85.7674C108.405 85.7135 108.443 85.6638 108.476 85.6181C108.506 85.5794 108.539 85.5433 108.576 85.5103C108.609 85.481 108.647 85.4572 108.688 85.4398C108.739 85.4257 108.793 85.4187 108.846 85.4191C108.933 85.4253 109.016 85.4587 109.083 85.5145C109.127 85.5437 109.162 85.584 109.186 85.6313C109.209 85.6787 109.219 85.7313 109.216 85.784ZM104.645 82.5205C104.657 82.2992 104.63 82.0775 104.566 81.8653C104.512 81.7285 104.45 81.6621 104.379 81.6621C104.279 81.6636 104.179 81.6862 104.088 81.7285C103.98 81.7697 103.878 81.8255 103.785 81.8943C103.689 81.9621 103.599 82.037 103.515 82.1183C103.439 82.1926 103.369 82.2716 103.303 82.3546L102.962 82.8564C102.833 83.043 102.705 83.2462 102.572 83.4577C102.439 83.6692 102.314 83.8723 102.189 84.1129C102.065 84.3534 101.953 84.5566 101.857 84.7722C101.766 84.9791 101.687 85.1909 101.62 85.4066C101.563 85.5836 101.532 85.7681 101.529 85.954C101.523 86.096 101.549 86.2376 101.604 86.3687C101.628 86.4193 101.667 86.4611 101.716 86.4885C101.766 86.516 101.822 86.5277 101.878 86.5221C101.997 86.5016 102.109 86.4501 102.202 86.3729C102.367 86.2533 102.525 86.1245 102.676 85.9872C102.846 85.8338 103.016 85.6637 103.182 85.4813C103.334 85.3166 103.473 85.1405 103.598 84.9546C103.718 84.7722 103.843 84.5773 103.964 84.37C104.084 84.1626 104.196 83.9553 104.3 83.7396C104.397 83.5359 104.479 83.3252 104.545 83.1093C104.609 82.9193 104.642 82.7207 104.645 82.5205Z" fill="#2F404C"/>
</g>
<defs>
<clipPath id="clip0">
<rect width="170" height="92" fill="white"/>
</clipPath>
</defs>
</svg>
