<svg width="1920" height="1016" viewBox="0 0 1920 1016" fill="none" xmlns="http://www.w3.org/2000/svg">
<path d="M1920 -64H-4V1090H1920V-64Z" fill="white"/>
<path fill-rule="evenodd" clip-rule="evenodd" d="M979.201 361.007C1409.52 416.551 1462.93 729.082 1923.04 430.245V-92H-1.00049C9.61999 -71.1133 8.61951 23.8962 81.2698 160.795C327.542 624.802 739.047 330.042 979.201 361.007Z" fill="url(#paint0_linear)"/>
<path fill-rule="evenodd" clip-rule="evenodd" d="M597.727 247.78C594.134 248.512 590.458 248.758 586.799 248.511C577.41 248.511 558.939 247.588 556.938 243.203C552.321 243.818 525 247.049 525 237.356C525 234.356 539.969 227.817 549.589 227.74C548.736 224.883 548.759 221.837 549.653 218.994C550.548 216.15 552.274 213.64 554.609 211.786C556.944 209.932 559.781 208.819 562.754 208.591C565.728 208.363 568.701 209.031 571.291 210.507C573.61 206.998 576.792 204.143 580.531 202.217C584.271 200.29 588.443 199.357 592.648 199.506C599.412 199.425 605.937 202.009 610.81 206.699C613.593 203.28 617.119 200.54 621.119 198.687C625.12 196.835 629.49 195.917 633.898 196.006C649.29 196.006 661.566 206.43 661.566 219.431C661.603 220.02 661.603 220.611 661.566 221.201C689.464 221.201 712.013 226.009 712.013 231.971C712.013 237.933 689.464 242.818 661.566 242.818C661.065 248.434 645.904 253.012 627.318 253.012C617.204 253.433 607.12 251.648 597.766 247.78H597.727Z" fill="#DBF0FC"/>
<path fill-rule="evenodd" clip-rule="evenodd" d="M1046.26 123.997C1013.59 123.997 987 128.805 987 134.805C987 140.806 1013.59 145.499 1046.26 145.499C1046.91 151.23 1064.61 155.769 1086.39 155.769C1106.67 155.769 1123.45 151.922 1126.22 146.768C1129.62 147.134 1133.04 147.314 1136.46 147.307C1149.69 147.307 1160.47 144.499 1160.47 141.037C1160.47 137.575 1149.81 134.805 1136.69 134.805C1138.29 133.633 1139.61 132.115 1140.55 130.364C1141.49 128.613 1142.02 126.674 1142.11 124.689C1142.11 116.034 1132.19 109.303 1119.91 109.303C1115.68 109.261 1111.5 110.126 1107.63 111.842C1104.12 107.625 1099.68 104.275 1094.67 102.054C1089.65 99.8319 1084.18 98.7981 1078.7 99.0326C1060.77 99.0326 1046.26 109.572 1046.26 122.458C1046.2 123.072 1046.2 123.69 1046.26 124.304V123.997Z" fill="#DBF0FC"/>
<path fill-rule="evenodd" clip-rule="evenodd" d="M1697.43 159.137C1660.18 159.137 1629.86 165.253 1629.86 172.907C1629.86 180.562 1660.18 186.601 1697.43 186.601C1698.2 193.871 1718.4 199.679 1743.26 199.679C1766.35 199.679 1785.59 194.679 1788.67 188.14C1792.5 188.611 1796.35 188.843 1800.21 188.832C1815.33 188.832 1827.61 185.216 1827.61 180.831C1827.61 176.446 1815.45 172.83 1800.48 172.83C1802.38 171.215 1803.92 169.213 1804.99 166.958C1806.05 164.703 1806.63 162.247 1806.68 159.752C1806.68 148.751 1795.36 139.943 1781.36 139.943C1776.5 139.882 1771.69 140.99 1767.35 143.174C1763.61 137.951 1758.64 133.728 1752.88 130.877C1747.13 128.027 1740.76 126.635 1734.33 126.826C1713.86 126.826 1697.28 140.289 1697.28 156.752C1697.2 157.519 1697.2 158.292 1697.28 159.06L1697.43 159.137Z" fill="#DBF0FC"/>
<g style="mix-blend-mode:multiply" opacity="0.1">
<path fill-rule="evenodd" clip-rule="evenodd" d="M1755.08 654.479C1755.08 669.407 1557.15 681.738 1313.04 681.738C1068.93 681.738 870.999 669.527 870.999 654.479C870.999 639.431 1068.93 627.25 1313.04 627.25C1557.15 627.25 1755.08 639.431 1755.08 654.479Z" fill="black"/>
</g>
<path fill-rule="evenodd" clip-rule="evenodd" d="M1419.91 370.009C1428.52 370.628 1436.75 373.787 1443.56 379.084C1450.38 384.381 1455.47 391.58 1458.19 399.769C1460.91 407.959 1461.14 416.77 1458.85 425.09C1456.56 433.41 1451.85 440.864 1445.32 446.508C1438.79 452.153 1430.73 455.736 1422.17 456.802C1413.6 457.869 1404.91 456.372 1397.2 452.501C1389.48 448.629 1383.09 442.558 1378.83 435.054C1374.57 427.55 1372.63 418.951 1373.25 410.345C1373.67 404.634 1375.2 399.06 1377.77 393.942C1380.34 388.824 1383.89 384.261 1388.22 380.516C1392.55 376.77 1397.58 373.914 1403.02 372.111C1408.46 370.308 1414.19 369.594 1419.91 370.009ZM1378.66 346.781C1378.08 354.674 1374.39 362.015 1368.39 367.188C1362.4 372.361 1354.6 374.943 1346.7 374.368C1345.04 374.239 1343.4 373.949 1341.8 373.502C1339.37 377.948 1337.37 382.617 1335.83 387.445C1338.41 388.984 1340.72 390.93 1342.67 393.207C1347.85 399.187 1350.45 406.98 1349.89 414.874C1349.33 422.768 1345.66 430.116 1339.68 435.305C1338.28 436.38 1336.87 437.425 1335.5 438.291C1336.91 443.058 1338.78 447.678 1341.09 452.084C1345.64 451.034 1350.38 451.068 1354.92 452.183C1359.46 453.299 1363.68 455.464 1367.23 458.505C1370.78 461.546 1373.57 465.378 1375.36 469.692C1377.16 474.006 1377.92 478.682 1377.58 483.344C1377.38 485.049 1377.09 486.743 1376.72 488.419C1381.13 490.768 1385.75 492.697 1390.52 494.182C1393.03 490.275 1396.41 487.003 1400.39 484.623C1404.38 482.243 1408.87 480.819 1413.5 480.463C1418.13 480.107 1422.78 480.829 1427.08 482.572C1431.39 484.315 1435.23 487.032 1438.31 490.509C1439.35 491.913 1440.4 493.316 1441.29 494.689C1446.12 493.28 1450.8 491.411 1455.27 489.106C1454.61 486.17 1454.37 483.152 1454.58 480.149C1455.17 472.289 1458.83 464.977 1464.79 459.809C1470.74 454.641 1478.5 452.036 1486.36 452.562C1488.12 452.68 1489.87 452.92 1491.59 453.278C1494.01 448.939 1496.01 444.381 1497.56 439.664C1494.98 438.059 1492.68 436.042 1490.75 433.693C1488.2 430.75 1486.25 427.331 1485.02 423.631C1483.79 419.932 1483.31 416.026 1483.6 412.14C1483.89 408.253 1484.95 404.463 1486.72 400.988C1488.48 397.512 1490.92 394.422 1493.89 391.894C1495.12 390.753 1496.47 389.751 1497.92 388.908C1496.52 384.08 1494.65 379.4 1492.34 374.935C1489.39 375.545 1486.38 375.786 1483.38 375.652C1479.45 375.396 1475.61 374.36 1472.08 372.604C1468.55 370.848 1465.41 368.408 1462.84 365.425C1460.27 362.443 1458.32 358.979 1457.1 355.234C1455.88 351.49 1455.42 347.54 1455.75 343.616C1455.81 341.905 1456.04 340.205 1456.44 338.54C1452.01 336.235 1447.39 334.308 1442.64 332.778C1441.02 335.289 1439.08 337.578 1436.87 339.585C1430.89 344.768 1423.09 347.365 1415.2 346.805C1407.3 346.246 1399.95 342.575 1394.76 336.6C1393.65 335.287 1392.66 333.89 1391.77 332.42C1386.94 333.903 1382.26 335.833 1377.79 338.182C1378.55 341.033 1378.78 343.997 1378.48 346.93L1378.66 346.781Z" fill="#CCCCCC"/>
<path fill-rule="evenodd" clip-rule="evenodd" d="M1149.04 388.85C1157.56 392.465 1164.3 399.309 1167.78 407.883C1171.26 416.456 1171.2 426.061 1167.61 434.59C1163.87 442.873 1157.02 449.362 1148.55 452.668C1140.08 455.975 1130.65 455.837 1122.28 452.284C1113.91 448.732 1107.26 442.046 1103.75 433.657C1100.25 425.268 1100.16 415.841 1103.52 407.391C1107.12 398.922 1113.93 392.22 1122.46 388.746C1130.98 385.273 1140.54 385.311 1149.04 388.85ZM1123.8 360.726C1122.6 363.61 1120.85 366.229 1118.64 368.432C1116.42 370.635 1113.79 372.378 1110.9 373.561C1108.01 374.743 1104.92 375.342 1101.79 375.322C1098.67 375.302 1095.58 374.664 1092.71 373.444C1091.42 372.788 1090.35 372.131 1089.06 371.504C1086.08 374.195 1083.4 377.198 1081.06 380.461C1082.65 382.202 1083.89 384.228 1084.73 386.432C1087.11 392.266 1087.08 398.803 1084.66 404.619C1082.24 410.434 1077.62 415.058 1071.8 417.483C1070.47 417.974 1069.1 418.334 1067.71 418.557C1067.68 422.554 1067.96 426.546 1068.54 430.5C1070.92 430.701 1073.25 431.286 1075.44 432.232C1081.25 434.728 1085.83 439.423 1088.18 445.287C1090.53 451.151 1090.46 457.707 1087.99 463.521C1087.49 464.716 1086.92 465.873 1086.26 466.984C1088.92 469.984 1091.93 472.66 1095.22 474.956C1097.09 473.404 1099.19 472.164 1101.46 471.284C1104.35 470.105 1107.44 469.511 1110.57 469.536C1113.69 469.561 1116.77 470.205 1119.65 471.429C1122.52 472.653 1125.12 474.434 1127.3 476.669C1129.48 478.904 1131.19 481.549 1132.34 484.45C1132.97 485.669 1133.4 486.979 1133.63 488.332C1137.62 488.446 1141.62 488.226 1145.57 487.675C1145.9 485.297 1146.55 482.977 1147.51 480.778C1148.69 477.875 1150.43 475.237 1152.64 473.018C1154.85 470.8 1157.48 469.046 1160.38 467.86C1163.27 466.675 1166.38 466.082 1169.51 466.116C1172.64 466.15 1175.73 466.811 1178.61 468.059C1179.93 468.487 1181.18 469.143 1182.28 470C1185.16 467.22 1187.83 464.226 1190.25 461.043C1188.72 459.258 1187.48 457.243 1186.58 455.072C1184.22 449.207 1184.28 442.646 1186.75 436.825C1189.22 431.005 1193.89 426.4 1199.75 424.021C1200.94 423.586 1202.16 423.227 1203.4 422.946C1203.61 418.954 1203.4 414.951 1202.77 411.004C1200.41 410.717 1198.09 410.135 1195.87 409.272C1190.08 406.769 1185.51 402.078 1183.17 396.221C1180.82 390.365 1180.89 383.819 1183.35 378.012C1183.79 376.791 1184.37 375.627 1185.09 374.549C1182.42 371.558 1179.41 368.883 1176.13 366.577C1174.23 368.084 1172.13 369.32 1169.88 370.25C1164.04 372.556 1157.52 372.467 1151.74 370.002C1145.96 367.538 1141.38 362.896 1139 357.083C1138.39 355.857 1137.96 354.55 1137.72 353.202C1133.72 352.981 1129.72 353.192 1125.77 353.829C1125.56 356.238 1124.9 358.586 1123.83 360.755L1123.8 360.726Z" fill="#CCCCCC"/>
<path d="M1282.28 344.064C1280.23 355.807 1280.51 367.839 1283.11 379.473C1283.81 374.134 1285.57 368.987 1288.28 364.336C1291.94 359.047 1296.51 354.447 1301.78 350.751C1306.47 362.127 1296.26 378.309 1283.86 382.22C1284.61 384.778 1285.56 387.274 1286.7 389.684C1289.19 394.961 1292.45 399.84 1296.38 404.164C1297.22 398.335 1299.38 392.772 1302.68 387.893C1306.61 382.84 1311.41 378.532 1316.86 375.174C1320.87 386.669 1310.03 402.045 1297.6 405.478C1303.95 411.949 1311.25 417.416 1319.25 421.69C1319.91 416.388 1321.71 411.293 1324.54 406.762C1328.09 402.061 1332.44 398.018 1337.38 394.819C1341.21 405.09 1332.16 418.913 1321.26 422.765C1324.09 424.377 1327.23 425.75 1330.45 427.273L1339.98 431.513C1343.27 432.886 1346.34 434.2 1347.12 434.498L1346.34 436.469C1345.66 436.26 1342.58 434.857 1339.15 433.483L1329.65 429.393C1325.88 427.721 1322.45 426.019 1319.13 424.168C1308.14 431.483 1288.58 428.706 1282.96 417.421C1289.2 415.823 1295.69 415.408 1302.08 416.196C1304.64 416.66 1307.14 417.38 1309.55 418.346C1303.5 414.33 1298.05 409.497 1293.33 403.985C1280.52 406.135 1264 396.252 1263.07 383.892C1269.44 384.739 1275.58 386.764 1281.2 389.863C1283.08 391.068 1284.86 392.427 1286.52 393.924C1285.89 392.83 1285.32 391.704 1284.82 390.55C1281.96 384.387 1280.11 377.804 1279.35 371.054C1266.24 368.755 1253.63 353.498 1256.95 341.197C1262.81 344.271 1268.06 348.378 1272.45 353.319C1275.35 357.004 1277.54 361.195 1278.9 365.68C1278.58 357.93 1279.04 350.168 1280.28 342.511C1274.75 329.524 1279.74 310.027 1292.04 305.131C1293.2 312.18 1293.09 319.378 1291.72 326.389C1289.92 332.871 1286.7 338.87 1282.28 343.944V344.064Z" fill="#006A84"/>
<path d="M1245.18 401.806C1251.91 411.632 1260.49 420.05 1270.45 426.587C1267.23 422.283 1264.91 417.38 1263.61 412.167C1262.55 405.834 1262.63 399.362 1263.85 393.058C1275.14 397.955 1279.05 416.615 1272.99 428.05C1280.49 432.091 1288.77 434.473 1297.27 435.036C1293.88 430.238 1291.55 424.773 1290.43 419.004C1289.73 412.608 1290.16 406.14 1291.71 399.896C1302.65 405.419 1305.54 423.99 1299.03 435.096C1308.11 435.325 1317.18 434.167 1325.91 431.663C1322.71 427.411 1320.49 422.508 1319.4 417.302C1318.64 411.437 1318.92 405.483 1320.24 399.716C1330.06 404.404 1333.29 420.616 1328.06 431.036C1331.23 430.14 1334.51 429.125 1337.83 427.901L1347.66 424.199L1354.94 421.452L1355.72 423.452C1355.09 423.751 1351.87 424.915 1348.43 426.438C1343.95 428.05 1339.29 429.812 1338.58 430.11C1334.75 431.513 1330.99 432.648 1327.47 433.663C1324.48 446.561 1308.65 458.145 1296.73 453.995C1300.15 448.523 1304.52 443.709 1309.64 439.784C1311.79 438.349 1314.08 437.138 1316.47 436.171C1309.34 437.479 1302.05 437.821 1294.82 437.186C1287.14 447.606 1268.33 452.114 1259.13 443.784C1264.33 440.015 1270.18 437.232 1276.39 435.574C1278.6 435.133 1280.84 434.873 1283.08 434.798C1281.86 434.409 1280.69 434.021 1279.47 433.573C1273.11 431.153 1267.2 427.704 1261.97 423.363C1250.92 430.886 1231.26 428.737 1225.11 417.6C1231.46 415.732 1238.1 415.034 1244.7 415.54C1249.36 416.146 1253.86 417.625 1257.96 419.899C1252.32 414.57 1247.23 408.689 1242.76 402.344C1229.8 396.88 1219.73 379.384 1225.11 367.322C1230.9 371.57 1235.86 376.83 1239.77 382.848C1243.01 388.722 1244.87 395.257 1245.21 401.956L1245.18 401.806Z" fill="#A8CE3C"/>
<path fill-rule="evenodd" clip-rule="evenodd" d="M1619.16 566.223C1613.89 567.388 1608.75 569.058 1603.8 571.209L1596.34 618.263L1613.27 609.604L1620.35 565.984L1619.16 566.223ZM1617.24 607.574L1619.57 606.41L1626.23 565.029C1624.65 565.029 1623.04 565.447 1621.51 565.745L1617.24 607.574ZM1623.78 604.26L1653.65 588.974L1658.82 568.761C1649.27 565.293 1639.08 563.929 1628.95 564.76L1623.78 604.26ZM1658.37 586.555L1672.53 579.33L1675.28 577.569C1671.15 574.448 1666.65 571.869 1661.87 569.895L1658.37 586.555ZM1666.7 584.346L1677.52 587.332C1677.2 584.533 1676.7 581.759 1675.99 579.031L1666.7 584.346ZM1662.11 586.884L1638.21 600.11L1673.72 612.948C1676.73 606.028 1678.13 598.514 1677.82 590.974L1662.11 586.884ZM1634.18 602.319L1630.36 604.439L1670.44 619.367C1671.21 618.024 1671.93 616.74 1672.62 615.367L1634.18 602.319ZM1626.32 606.738L1612.58 614.322L1663.9 627.936C1665.78 625.84 1667.52 623.626 1669.12 621.308L1626.32 606.738ZM1608.07 616.919L1601.56 620.502L1582.69 629.907L1638.39 645.163C1646.78 641.939 1654.47 637.124 1661.03 630.982L1608.07 616.919ZM1578.21 632.176L1574.5 634.027L1615.09 650.328C1622.09 649.877 1629 648.471 1635.61 646.149L1578.21 632.176ZM1570.44 635.997L1568.41 637.042C1581.22 646.231 1596.71 650.905 1612.47 650.328L1570.44 635.997ZM1569.6 632.116L1575.19 629.13L1574.35 594.348C1566.93 604.789 1563.73 617.652 1565.39 630.355L1569.6 632.116ZM1579.01 627.279L1585.58 623.935L1593.14 576.882C1587.06 580.627 1581.64 585.348 1577.1 590.855L1579.01 627.279ZM1590.15 621.577L1592.39 620.472L1602.1 571.926C1600.52 572.612 1599.11 573.389 1597.47 574.195L1590.15 621.577Z" fill="#87A02B"/>
<path fill-rule="evenodd" clip-rule="evenodd" d="M1573.22 518.338C1569.78 522.373 1566.78 526.756 1564.26 531.415L1591.14 575.304L1598.66 558.136L1573.75 517.412C1573.49 517.702 1573.25 518.011 1573.04 518.338H1573.22ZM1600.63 554.165L1601.68 551.777L1578.2 513.173C1577.04 514.277 1575.87 515.352 1574.83 516.546L1600.63 554.165ZM1603.62 547.537L1617.03 517.293L1606.94 497.319C1597.02 499.905 1587.82 504.725 1580.06 511.411L1603.62 547.537ZM1619.12 512.486L1625.45 498.155L1626.44 495.169C1621.01 494.958 1615.58 495.44 1610.28 496.602L1619.12 512.486ZM1624.26 505.738L1635.19 502.096C1632.96 499.968 1630.61 497.974 1628.14 496.125L1624.26 505.738ZM1622.35 510.545L1612.37 535.625L1649.89 525.682C1647.46 517.937 1643.38 510.808 1637.94 504.783L1622.35 510.545ZM1610.64 539.864L1609.06 543.865L1651.71 532.848C1651.47 531.266 1651.05 529.862 1650.66 528.19L1610.64 539.864ZM1607.35 548.105L1601.59 562.495L1652.51 543.955C1652.6 541.101 1652.45 538.244 1652.07 535.416L1607.35 548.105ZM1599.68 567.392L1596.93 574.229L1588.33 593.068L1643.91 573.453C1648.45 565.754 1651.28 557.171 1652.22 548.284L1599.68 567.392ZM1586.21 597.666L1584.48 601.368L1628.98 591.247C1634.28 586.808 1638.88 581.582 1642.6 575.752L1586.21 597.666ZM1582.62 605.399L1581.7 607.489C1597.99 607.971 1613.95 602.802 1626.86 592.859L1582.62 605.399ZM1579.19 602.622L1581.7 596.95L1556.67 568.288C1558.2 581.87 1564.64 594.428 1574.77 603.608L1579.19 602.622ZM1583.43 593.098L1586.42 586.5L1559.54 542.581C1557.23 549.351 1556.17 556.482 1556.4 563.63L1583.43 593.098ZM1588.39 581.842L1589.4 579.633L1563.45 533.027C1562.73 534.52 1561.99 536.013 1561.33 537.625L1588.39 581.842Z" fill="#A8CE3C"/>
<path d="M1148.86 650.03V600.528H1048.35V559.416L1154.95 402.79H1194.65V559.237H1225.23V600.528H1194.65V650.03H1148.86ZM1148.86 559.237V475.192L1092.53 559.237H1148.86ZM1341.83 402.521C1365.73 402.521 1384.22 411.12 1397.81 428.108C1413.73 448.291 1421.7 481.849 1421.7 528.575C1421.7 575.3 1413.67 609.008 1397.57 629.4C1384.15 646.199 1365.55 654.598 1341.78 654.598C1330.61 654.94 1319.52 652.603 1309.44 647.783C1299.35 642.962 1290.58 635.799 1283.83 626.892C1269.23 608.53 1261.61 575.509 1261.61 528.127C1261.61 481.641 1269.85 448.201 1285.95 427.839C1299.18 410.851 1317.76 402.432 1341.75 402.432L1341.83 402.521ZM1341.83 441.693C1336.36 441.695 1331.06 443.654 1326.9 447.216C1322.42 450.799 1319.02 457.427 1316.51 466.891C1313.31 479.043 1311.7 499.733 1311.7 528.575C1311.7 557.416 1313.13 577.539 1316 588.466C1318.87 599.394 1322.6 606.38 1326.9 610.082C1331.13 613.586 1336.46 615.487 1341.96 615.455C1347.45 615.422 1352.76 613.457 1356.95 609.903C1361.22 606.35 1364.8 599.722 1367.13 590.258C1370.36 578.315 1371.97 557.754 1371.97 528.575C1371.97 499.793 1370.54 479.76 1367.67 469.041C1364.8 458.323 1361.22 450.799 1356.77 447.216C1352.61 443.654 1347.31 441.695 1341.83 441.693ZM1549.09 650.12V600.528H1448.58V559.416L1555.18 402.79H1594.87V559.237H1625.46V600.528H1594.87V650.03L1549.09 650.12ZM1549.09 559.327V475.192L1492.76 559.237L1549.09 559.327Z" fill="#114251"/>
<path fill-rule="evenodd" clip-rule="evenodd" d="M1335.44 657.646C1337.24 655.14 1338.45 652.263 1338.99 649.227H1344.79L1344.61 652.212C1342.97 656.243 1336.19 660.303 1335.44 657.706V657.646Z" fill="#FBCCBA"/>
<path fill-rule="evenodd" clip-rule="evenodd" d="M1343.68 661.588H1345.36L1345.54 657.468C1345.88 656.592 1345.98 655.637 1345.82 654.709C1345.66 653.781 1345.24 652.917 1344.61 652.213C1342.59 654.685 1340.09 656.717 1337.26 658.184C1336.19 658.184 1335.56 658.184 1335.44 657.647C1334.16 657.91 1332.95 658.429 1331.88 659.173C1330.8 659.917 1329.89 660.871 1329.2 661.976L1339.47 661.767C1340.45 660.085 1341.79 658.638 1343.39 657.527C1343.56 660.244 1343.68 661.588 1343.68 661.588Z" fill="#3D3938"/>
<path fill-rule="evenodd" clip-rule="evenodd" d="M1357.18 657.646C1359.02 655.161 1360.24 652.275 1360.74 649.227H1366.71L1366.44 652.212C1364.8 656.243 1358.02 660.303 1357.27 657.706L1357.18 657.646Z" fill="#FBCCBA"/>
<path fill-rule="evenodd" clip-rule="evenodd" d="M1365.37 661.588H1367.01C1367.01 658.841 1367.25 657.468 1367.25 657.468C1367.59 656.587 1367.68 655.628 1367.51 654.7C1367.33 653.772 1366.9 652.91 1366.26 652.213C1364.28 654.701 1361.78 656.737 1358.95 658.184C1357.84 658.184 1357.21 658.184 1357.09 657.647C1355.82 657.911 1354.62 658.431 1353.56 659.175C1352.49 659.92 1351.59 660.872 1350.91 661.976L1361.13 661.767C1362.14 660.104 1363.48 658.663 1365.07 657.527C1365.25 660.244 1365.37 661.588 1365.37 661.588Z" fill="#3D3938"/>
<path fill-rule="evenodd" clip-rule="evenodd" d="M1354.59 598.199C1355.39 603.304 1351.6 624.413 1345.18 650.029H1338.37C1338.7 646.327 1340.1 629.757 1342.67 599.274C1339.41 569.955 1339.68 550.16 1342.85 530.156C1346.4 542.517 1348.67 575.239 1353.66 589.869C1354.17 592.855 1354.17 595.422 1354.59 598.229V598.199Z" fill="#102962"/>
<path fill-rule="evenodd" clip-rule="evenodd" d="M1331.14 507.647C1332.39 506.142 1333.44 504.487 1334.28 502.721C1334.94 504.651 1336.23 506.301 1337.95 507.408L1337.32 508.991C1335.26 508.423 1333.05 508.184 1331.14 507.647Z" fill="#FFB9A5"/>
<path fill-rule="evenodd" clip-rule="evenodd" d="M1324.66 512.005C1328.23 514.068 1332.25 515.245 1336.37 515.439C1332.25 520.126 1312 518.424 1300.68 515.439C1297.14 515.061 1293.62 514.453 1290.16 513.617C1289.59 513.617 1289.3 512.931 1290.16 512.811C1296.58 513.349 1299.33 512.333 1301.18 512.632C1309.01 513.189 1316.88 512.959 1324.66 511.945V512.005Z" fill="#FFB9A5"/>
<path fill-rule="evenodd" clip-rule="evenodd" d="M1351.21 481.67C1349.48 481.277 1347.7 481.247 1345.96 481.581C1344.22 481.915 1342.57 482.606 1341.11 483.611C1341.34 480.824 1341.26 478.02 1340.87 475.251C1340.05 475.689 1339.11 475.877 1338.18 475.792C1337.24 475.707 1336.35 475.353 1335.62 474.773C1333.17 472.176 1331.35 465.607 1332.63 457.068C1333.5 458.756 1334.77 460.202 1336.33 461.275C1337.9 462.349 1339.71 463.017 1341.59 463.219C1341.81 462.886 1342.12 462.626 1342.49 462.471C1342.86 462.317 1343.26 462.276 1343.65 462.353C1344.08 462.41 1344.48 462.59 1344.81 462.87C1345.14 463.151 1345.38 463.521 1345.5 463.935C1345.86 465.966 1345.5 473.549 1346.22 477.938H1350.58L1351.21 481.67Z" fill="#FFC8B7"/>
<path fill-rule="evenodd" clip-rule="evenodd" d="M1344.85 465.457C1344.99 465.244 1345.09 465.004 1345.13 464.753C1345.18 464.501 1345.17 464.243 1345.12 463.994C1345.04 463.591 1344.85 463.219 1344.56 462.927C1344.27 462.634 1343.9 462.434 1343.5 462.352C1343.11 462.274 1342.71 462.316 1342.34 462.47C1341.97 462.624 1341.66 462.884 1341.44 463.217C1339.27 463.017 1337.21 462.191 1335.5 460.839C1333.79 459.488 1332.52 457.669 1331.82 455.604C1332.85 453.512 1334.51 451.791 1336.56 450.68C1338.61 449.57 1340.95 449.125 1343.27 449.407C1345.58 449.689 1347.75 450.685 1349.47 452.255C1351.2 453.826 1352.39 455.894 1352.88 458.172C1354.67 464.602 1355.9 471.175 1356.55 477.817C1349.57 477.817 1345.65 477.817 1345.65 477.817C1345.23 475.1 1343.44 467.606 1344.85 465.337V465.457Z" fill="#37383F"/>
<path fill-rule="evenodd" clip-rule="evenodd" d="M1338.81 507.825C1333.92 505.257 1331.71 501.017 1334.84 496.211C1337.46 492.174 1339.58 487.833 1341.14 483.283L1342.1 482.566C1343.46 481.434 1345.03 480.586 1346.72 480.073C1348.42 479.56 1350.2 479.393 1351.96 479.581C1358.31 480.994 1361.84 491.035 1362.56 509.706C1362.29 515.378 1362.92 523.828 1363.16 529.053C1356.58 531.045 1349.62 531.464 1342.85 530.277C1342.49 522.902 1341.8 509.825 1338.81 507.884V507.825Z" fill="#CCA01A"/>
<path fill-rule="evenodd" clip-rule="evenodd" d="M1344.55 472.771C1344.24 473.601 1343.77 474.358 1343.16 474.995C1342.55 475.632 1341.81 476.136 1340.99 476.474L1340.81 475.25C1342.24 474.742 1343.52 473.891 1344.55 472.771Z" fill="#FF9D81"/>
<path fill-rule="evenodd" clip-rule="evenodd" d="M1360.17 650.028C1359.3 638.414 1357.03 621.425 1353.93 601.72C1353.48 598.914 1353 596.107 1352.55 593.181C1347.57 578.701 1345.71 561.355 1342.91 530.214C1349.68 531.402 1356.64 530.982 1363.22 528.99C1371.1 541.41 1371.22 551.741 1364.86 583.777C1364.56 585.09 1364.32 586.434 1364.02 587.837C1368.98 602.765 1370.44 623.426 1366.65 650.028H1360.17Z" fill="#16347D"/>
<path fill-rule="evenodd" clip-rule="evenodd" d="M1337.32 508.989L1341.26 498.748L1351.78 502.779C1337.53 529.5 1328.51 510.571 1312.5 506.302C1311.1 507.25 1309.51 507.873 1307.84 508.123C1306.01 507.765 1304.34 506.846 1303.06 505.496C1299.15 507.884 1297.57 508.302 1298.28 506.839C1301.64 503.735 1305.92 501.816 1310.47 501.375C1322.42 504.361 1328.6 506.541 1337.35 508.989H1337.32Z" fill="#FFC8B7"/>
<path fill-rule="evenodd" clip-rule="evenodd" d="M1353.3 489.104C1359.78 493.194 1353.3 507.316 1341.86 517.407C1341.86 516.691 1341.86 515.944 1341.68 515.288C1345.24 513.138 1348.97 508.51 1353.18 499.882C1355.45 494.149 1355.45 490.566 1353.18 489.104H1353.3Z" fill="#A87F1A"/>
<path fill-rule="evenodd" clip-rule="evenodd" d="M1245.36 455.009C1241.86 455.716 1238.29 456.016 1234.73 455.905C1234.53 456.843 1234.19 457.748 1233.74 458.592C1232.89 459.217 1231.94 459.692 1230.93 459.995C1231.17 462.742 1230.93 464.145 1230.01 464.205C1229.88 463.825 1229.66 463.485 1229.36 463.219C1229.07 462.952 1228.7 462.769 1228.31 462.687C1227.92 462.606 1227.52 462.628 1227.14 462.753C1226.76 462.878 1226.42 463.101 1226.15 463.399C1225.46 465.389 1226.68 466.972 1229.83 468.146C1229.78 469.288 1229.65 470.426 1229.44 471.549C1227.6 470.407 1226.02 468.903 1224.78 467.128C1223.55 465.354 1222.69 463.347 1222.26 461.229C1221.82 459.111 1221.83 456.928 1222.26 454.811C1222.7 452.694 1223.57 450.69 1224.81 448.918C1229.38 443.455 1247.06 443.305 1249.09 451.098C1249.26 451.728 1249.19 452.396 1248.89 452.978C1248.6 453.56 1248.11 454.016 1247.51 454.263C1246.82 454.597 1246.1 454.848 1245.36 455.009Z" fill="#42445C"/>
<path fill-rule="evenodd" clip-rule="evenodd" d="M1264.14 472.713C1262.68 472.713 1262.26 472.235 1261.46 470.951C1260.65 469.667 1260.92 468.264 1262.68 467.428C1268.92 464.442 1273.76 467.159 1269.52 473.758L1269.16 476.534L1264.59 477.161C1264.59 476.176 1264.23 473.877 1264.17 473.011V472.653L1264.14 472.713Z" fill="#FFC8B7"/>
<path fill-rule="evenodd" clip-rule="evenodd" d="M1253.57 648.389L1244.88 649.284L1245.57 656.838L1254.32 656.062L1253.57 648.389Z" fill="#FFC8B7"/>
<path fill-rule="evenodd" clip-rule="evenodd" d="M1223.76 649.851L1214.89 649.045L1214.09 656.001L1222.99 656.778L1223.76 649.851Z" fill="#FFC8B7"/>
<path fill-rule="evenodd" clip-rule="evenodd" d="M1235.65 578.643L1241.78 536.844H1251.24L1254.56 650.268L1243.18 650.447L1235.65 578.643Z" fill="#608079"/>
<path fill-rule="evenodd" clip-rule="evenodd" d="M1220.3 536.844H1242.85L1224.39 651.313L1213.55 650.567L1215.34 552.548L1221.2 552.488L1220.3 536.844Z" fill="#70958E"/>
<path fill-rule="evenodd" clip-rule="evenodd" d="M1214.39 551.441L1219.91 551.143C1219.91 552.068 1219.91 552.904 1219.91 553.591C1221.23 554.497 1222.27 555.761 1222.9 557.233C1223.38 558.577 1223.94 559.861 1223.38 559.95C1222.81 560.04 1222.6 559.413 1222.3 558.696C1222 557.98 1220.63 556.875 1220.45 558.159V558.457C1221.08 560.769 1221.9 563.025 1222.9 565.205C1222.94 565.34 1222.94 565.487 1222.88 565.618C1222.83 565.75 1222.73 565.857 1222.6 565.921C1222.54 565.959 1222.47 565.985 1222.4 565.996C1222.33 566.008 1222.26 566.005 1222.19 565.989C1222.12 565.972 1222.05 565.942 1222 565.899C1221.94 565.857 1221.89 565.804 1221.85 565.742C1221.01 564.338 1220.32 562.847 1219.79 561.294C1219.79 561.294 1219.58 561.294 1219.46 561.294C1219.43 561.342 1219.42 561.4 1219.42 561.458C1219.42 561.516 1219.43 561.573 1219.46 561.622C1220 563.418 1220.64 565.182 1221.38 566.907C1221.4 566.973 1221.42 567.045 1221.42 567.117C1221.42 567.19 1221.41 567.262 1221.38 567.329C1221.35 567.396 1221.31 567.456 1221.26 567.507C1221.21 567.558 1221.14 567.597 1221.08 567.623C1220.95 567.677 1220.81 567.682 1220.69 567.638C1220.56 567.593 1220.45 567.503 1220.39 567.384C1219.53 565.784 1218.8 564.117 1218.21 562.398C1218.17 562.345 1218.12 562.301 1218.07 562.27C1218.01 562.239 1217.95 562.222 1217.88 562.219C1217.83 562.247 1217.78 562.29 1217.75 562.343C1217.72 562.396 1217.7 562.456 1217.7 562.518C1218.07 564.21 1218.67 565.846 1219.46 567.384C1219.47 567.508 1219.44 567.631 1219.38 567.737C1219.31 567.844 1219.22 567.929 1219.11 567.982C1219.05 568.006 1218.99 568.019 1218.93 568.02C1218.87 568.022 1218.81 568.011 1218.76 567.989C1218.7 567.966 1218.65 567.933 1218.61 567.891C1218.56 567.849 1218.53 567.798 1218.51 567.743C1217.59 566.315 1216.92 564.74 1216.54 563.085C1216.52 563.051 1216.5 563.02 1216.48 562.994C1216.45 562.969 1216.42 562.948 1216.39 562.934C1216.36 562.92 1216.32 562.913 1216.28 562.913C1216.25 562.914 1216.21 562.921 1216.18 562.936C1216.18 562.936 1215.94 563.205 1216 563.324C1216.25 564.463 1216.64 565.567 1217.16 566.608C1217.13 566.679 1217.07 566.739 1217 566.781C1216.93 566.823 1216.86 566.846 1216.78 566.847C1216.7 566.857 1216.62 566.838 1216.55 566.795C1216.49 566.751 1216.44 566.684 1216.42 566.608C1213.43 562.16 1214.39 558.875 1214.57 554.188C1214.57 554.188 1214.57 553.143 1214.39 551.441Z" fill="#FFC8B7"/>
<path fill-rule="evenodd" clip-rule="evenodd" d="M1249.66 503.139C1250.02 510.633 1251.48 533.742 1251.48 543.176H1220.63L1221.2 552.492H1215.22H1212.53C1208.81 533.981 1206.98 521.103 1207.04 513.857C1207.84 507.02 1212.62 479.403 1220.69 477.164C1229.84 474.835 1239.45 474.979 1248.52 477.582C1254.29 479.164 1260.29 494.122 1263.16 500.153L1263.4 476.119L1271.07 475.821C1272.36 487.196 1275.76 512.036 1268.09 515.5C1259.58 515.32 1252.56 506.543 1249.81 503.02L1249.66 503.139Z" fill="#0B456F"/>
<path fill-rule="evenodd" clip-rule="evenodd" d="M1221.26 517.257C1222.03 526.393 1223.2 539.888 1223.65 543.173H1220.66L1219.14 517.377L1222.45 498.627L1221.26 517.257Z" fill="#1F2B52"/>
<path fill-rule="evenodd" clip-rule="evenodd" d="M1249.66 503.135C1249.39 497.462 1249.22 495.223 1248.74 490.715C1250.35 495.31 1251.18 500.145 1251.19 505.016C1250.08 503.732 1250.08 503.553 1249.66 503.135Z" fill="#1F2B52"/>
<path fill-rule="evenodd" clip-rule="evenodd" d="M1245.36 455.008C1245.66 465.517 1244.08 471.598 1240.64 473.25V478.505C1238.65 479.332 1236.46 479.564 1234.34 479.171C1232.22 478.779 1230.26 477.78 1228.69 476.295C1229.06 474.73 1229.34 473.145 1229.53 471.548C1229.74 470.503 1229.53 469.369 1229.74 468.145C1229.09 468.149 1228.45 467.996 1227.88 467.697C1227.3 467.398 1226.81 466.963 1226.44 466.43C1226.07 465.897 1225.84 465.283 1225.76 464.64C1225.69 463.996 1225.77 463.345 1226 462.741C1226.25 462.417 1226.57 462.169 1226.95 462.026C1227.33 461.883 1227.74 461.85 1228.13 461.931C1228.53 462.013 1228.89 462.205 1229.18 462.486C1229.47 462.767 1229.67 463.125 1229.77 463.517C1230.63 463.517 1230.93 461.994 1230.69 459.247C1231.63 458.991 1232.48 458.482 1233.15 457.777C1233.82 457.072 1234.28 456.196 1234.49 455.247C1238.14 455.472 1241.81 455.393 1245.45 455.008H1245.36Z" fill="#FFC8B7"/>
<path fill-rule="evenodd" clip-rule="evenodd" d="M1240.7 474.771C1239.19 475.166 1237.6 475.065 1236.16 474.484C1234.72 473.903 1233.5 472.873 1232.69 471.547C1235.98 473.667 1238.67 474.294 1240.7 473.249V474.771Z" fill="#FF9D81"/>
<path fill-rule="evenodd" clip-rule="evenodd" d="M1214.15 654.596C1212.77 656.765 1212.13 659.32 1212.33 661.881L1236.67 662.09C1236.67 657.193 1229.68 658.238 1223.14 655.193C1221.76 656.004 1220.16 656.381 1218.57 656.275C1216.97 656.168 1215.44 655.583 1214.18 654.596H1214.15Z" fill="#42445C"/>
<path fill-rule="evenodd" clip-rule="evenodd" d="M1212.32 661.881C1212.32 662.329 1212.5 662.806 1212.56 663.224H1236.46C1236.52 662.849 1236.52 662.466 1236.46 662.09L1212.32 661.881Z" fill="white"/>
<path fill-rule="evenodd" clip-rule="evenodd" d="M1245.36 654.539C1243.9 656.7 1243.22 659.287 1243.42 661.884L1267.7 662.093C1267.7 657.196 1260.71 658.241 1254.17 655.196C1252.81 656.003 1251.23 656.373 1249.66 656.255C1248.08 656.138 1246.58 655.539 1245.36 654.539Z" fill="#42445C"/>
<path fill-rule="evenodd" clip-rule="evenodd" d="M1243.42 661.881C1243.45 662.332 1243.51 662.781 1243.6 663.224H1267.49C1267.55 662.849 1267.55 662.466 1267.49 662.09L1243.42 661.881Z" fill="white"/>
<path fill-rule="evenodd" clip-rule="evenodd" d="M1264.09 472.713V473.072C1265.63 473.013 1267.1 472.434 1268.27 471.43C1267.01 472.161 1265.6 472.599 1264.15 472.713C1264.12 472.727 1264.09 472.734 1264.06 472.734C1264.03 472.734 1264 472.727 1263.97 472.713H1264.09Z" fill="#FF9D81"/>
<path d="M1223.47 435.274L1217.52 423.361L1214.3 425.123L1221.08 436.558L1223.47 435.274Z" fill="#333333"/>
<path d="M1218.45 445.695C1218.87 445.322 1219.12 444.798 1219.16 444.239C1219.19 443.679 1219 443.129 1218.63 442.709C1218.46 442.486 1218.24 442.301 1218 442.164C1217.75 442.027 1217.48 441.942 1217.2 441.915C1216.92 441.887 1216.64 441.916 1216.37 442.001C1216.1 442.087 1215.85 442.226 1215.64 442.41C1215.43 442.588 1215.25 442.808 1215.12 443.056C1214.99 443.303 1214.91 443.574 1214.89 443.853C1214.87 444.131 1214.9 444.411 1214.99 444.676C1215.08 444.941 1215.22 445.186 1215.4 445.396C1215.79 445.842 1216.33 446.122 1216.91 446.178C1217.5 446.233 1218.08 446.06 1218.54 445.695H1218.45Z" fill="#333333"/>
<path d="M1215.67 439.841L1215.25 439.423C1214.79 438.895 1214.44 438.28 1214.22 437.613C1213.99 436.946 1213.91 436.241 1213.97 435.541C1214.22 433.661 1213.79 431.753 1212.74 430.167C1212.32 429.68 1211.8 429.289 1211.21 429.022C1210.62 428.754 1209.99 428.615 1209.34 428.615C1208.69 428.615 1208.06 428.754 1207.47 429.022C1206.88 429.289 1206.36 429.68 1205.93 430.167C1204.72 431.167 1203.8 432.478 1203.28 433.959L1205.52 435.302C1205.79 434.311 1206.38 433.432 1207.19 432.795C1207.38 432.588 1207.61 432.424 1207.87 432.311C1208.12 432.198 1208.4 432.14 1208.68 432.14C1208.96 432.14 1209.24 432.198 1209.5 432.311C1209.75 432.424 1209.99 432.588 1210.18 432.795C1210.85 433.925 1211.14 435.248 1210.98 436.556C1210.92 437.409 1211.03 438.264 1211.32 439.071C1211.6 439.877 1212.04 440.617 1212.62 441.244L1213.19 441.811L1215.67 439.841Z" fill="#333333"/>
<path d="M1225.29 441.602C1225.56 441.479 1225.8 441.299 1225.99 441.075C1226.18 440.852 1226.32 440.59 1226.4 440.307C1226.49 440.024 1226.51 439.727 1226.46 439.435C1226.42 439.143 1226.32 438.864 1226.16 438.617C1226.03 438.354 1225.85 438.12 1225.62 437.93C1225.4 437.74 1225.14 437.597 1224.86 437.51C1224.58 437.424 1224.29 437.395 1224 437.426C1223.71 437.457 1223.42 437.547 1223.17 437.691C1222.66 437.976 1222.27 438.454 1222.11 439.02C1221.95 439.585 1222.02 440.192 1222.3 440.707C1222.59 441.221 1223.07 441.602 1223.63 441.764C1224.2 441.927 1224.81 441.858 1225.32 441.573L1225.29 441.602Z" fill="#333333"/>
<path fill-rule="evenodd" clip-rule="evenodd" d="M1678.53 640.504L1686.5 641.28L1686 647.55L1677.99 646.774L1678.53 640.504Z" fill="#FFC8B7"/>
<path fill-rule="evenodd" clip-rule="evenodd" d="M1686.24 645.554C1686.61 648.993 1686.73 652.456 1686.59 655.914C1686.59 655.914 1685.01 655.914 1681.52 655.914C1681.37 654.926 1681.31 653.927 1681.34 652.928C1679.64 654.217 1677.74 655.225 1675.72 655.914H1663.78C1663.52 655.709 1663.32 655.448 1663.19 655.153C1663.06 654.858 1662.99 654.536 1663 654.212C1662.99 653.887 1663.05 653.564 1663.18 653.268C1663.32 652.972 1663.52 652.713 1663.78 652.51C1671.99 651.286 1675.16 649.077 1677.87 645.793C1680.58 646.559 1683.47 646.455 1686.12 645.494L1686.24 645.554Z" fill="#3D3938"/>
<path fill-rule="evenodd" clip-rule="evenodd" d="M1710.55 642.683L1718.55 641.967L1719.3 648.237L1711.3 648.953L1710.55 642.683Z" fill="#FFC8B7"/>
<path fill-rule="evenodd" clip-rule="evenodd" d="M1719.27 646.265C1719.64 649.705 1719.77 653.167 1719.66 656.625C1719.66 656.625 1718.13 656.625 1714.58 656.625C1714.4 655.641 1714.33 654.639 1714.37 653.639C1712.69 654.959 1710.79 655.969 1708.76 656.625C1708.76 656.625 1706.37 656.625 1696.96 656.625C1696.7 656.42 1696.5 656.16 1696.36 655.866C1696.22 655.571 1696.15 655.249 1696.15 654.923C1696.15 654.598 1696.22 654.276 1696.36 653.982C1696.5 653.688 1696.71 653.428 1696.96 653.221C1705.2 651.997 1708.34 649.758 1711.03 646.533C1713.74 647.275 1716.62 647.16 1719.27 646.205V646.265Z" fill="#3D3938"/>
<path fill-rule="evenodd" clip-rule="evenodd" d="M1696.72 568.015L1690.89 524.156H1681.07L1677.54 642.387H1687.55L1696.72 568.015Z" fill="#102962"/>
<path fill-rule="evenodd" clip-rule="evenodd" d="M1713.29 524.156H1688.74L1709.98 643.432L1719.54 642.925L1718.43 540.518H1712.37L1713.29 524.156Z" fill="#16347D"/>
<path fill-rule="evenodd" clip-rule="evenodd" d="M1719.39 539.385L1713.72 539.057C1713.72 540.042 1713.72 540.878 1713.54 541.624C1712.25 542.626 1711.22 543.927 1710.55 545.416C1710.07 546.849 1709.53 548.133 1710.13 548.252C1710.73 548.372 1710.94 547.715 1711.24 546.969C1711.53 546.222 1712.94 545.028 1713.15 546.371V546.73C1712.47 549.126 1711.62 551.471 1710.61 553.746C1710.55 553.892 1710.55 554.056 1710.61 554.202C1710.67 554.347 1710.79 554.463 1710.94 554.522C1711 554.557 1711.07 554.579 1711.14 554.586C1711.21 554.593 1711.28 554.585 1711.35 554.563C1711.42 554.54 1711.48 554.504 1711.53 554.455C1711.58 554.407 1711.63 554.349 1711.65 554.283C1712.58 552.845 1713.3 551.289 1713.8 549.656C1713.86 549.627 1713.92 549.612 1713.98 549.612C1714.05 549.612 1714.11 549.627 1714.16 549.656C1714.19 549.71 1714.21 549.772 1714.21 549.835C1714.21 549.898 1714.19 549.959 1714.16 550.014C1713.63 551.835 1712.94 553.746 1712.22 555.508C1712.17 555.645 1712.16 555.796 1712.21 555.937C1712.25 556.078 1712.34 556.2 1712.46 556.284C1712.59 556.341 1712.74 556.348 1712.88 556.304C1713.02 556.26 1713.13 556.168 1713.21 556.045C1714.13 554.382 1714.88 552.631 1715.45 550.82C1715.49 550.76 1715.55 550.712 1715.62 550.681C1715.69 550.65 1715.76 550.636 1715.84 550.641C1715.9 550.668 1715.96 550.719 1715.99 550.786C1716.03 550.852 1716.04 550.928 1716.02 550.999C1715.58 552.722 1714.96 554.394 1714.16 555.985C1714.16 556.124 1714.19 556.263 1714.26 556.384C1714.33 556.505 1714.43 556.605 1714.55 556.672C1714.68 556.715 1714.81 556.711 1714.93 556.661C1715.05 556.612 1715.15 556.52 1715.21 556.403C1716.12 554.888 1716.8 553.248 1717.24 551.537C1717.25 551.5 1717.27 551.466 1717.29 551.437C1717.32 551.408 1717.35 551.384 1717.38 551.367C1717.41 551.35 1717.45 551.34 1717.49 551.339C1717.53 551.337 1717.56 551.344 1717.6 551.357C1717.78 551.357 1717.84 551.596 1717.78 551.775C1717.54 552.965 1717.13 554.112 1716.55 555.179C1716.59 555.263 1716.66 555.332 1716.74 555.38C1716.82 555.428 1716.91 555.451 1717 555.448C1717.08 555.45 1717.16 555.425 1717.23 555.376C1717.29 555.327 1717.34 555.258 1717.36 555.179C1720.35 550.581 1719.42 547.178 1719.24 542.221C1719.24 542.221 1719.24 541.147 1719.42 539.385H1719.39Z" fill="#FFC8B7"/>
<path fill-rule="evenodd" clip-rule="evenodd" d="M1680.92 525.859H1713.23L1712.37 540.518H1718.34H1721.15C1725.06 521.231 1726.97 507.676 1726.97 500.242C1726.11 492.957 1721.21 464.146 1712.76 461.966C1703.13 458.979 1692.8 459.146 1683.28 462.444C1680.29 463.609 1677.09 470.864 1666.13 489.703C1661.47 504.989 1675.09 507.915 1681.37 494.838C1680.59 506.781 1680.83 513.767 1680.83 525.799L1680.92 525.859Z" fill="#DF2E03"/>
<path d="M1710.04 525.857C1710.46 522.393 1711.44 513.257 1712.31 503.703L1711.02 484.297L1714.52 503.823L1713.23 525.857H1710.04Z" fill="#B72E13"/>
<path d="M1681.46 494.746C1685.31 484.476 1688.74 473.847 1692.6 464.89L1691.49 463.935L1693.4 465.039L1681.46 494.746Z" fill="#B72E13"/>
<path fill-rule="evenodd" clip-rule="evenodd" d="M1692.84 436.646C1690.27 447.365 1690.51 453.874 1693.64 456.322L1692.6 461.606C1694.36 463.067 1696.57 463.9 1698.86 463.975C1701.15 464.051 1703.4 463.365 1705.26 462.024C1705.26 460.681 1705.26 459.039 1705.26 456.979C1705.26 455.874 1705.71 454.799 1705.89 453.515C1706.55 453.646 1707.24 453.615 1707.88 453.427C1708.53 453.239 1709.13 452.899 1709.62 452.434C1710.11 451.97 1710.48 451.395 1710.71 450.757C1710.93 450.119 1711 449.437 1710.91 448.768C1710.7 448.403 1710.41 448.098 1710.05 447.883C1709.7 447.668 1709.29 447.551 1708.87 447.544C1708.46 447.533 1708.05 447.636 1707.68 447.841C1707.32 448.046 1707.02 448.346 1706.81 448.708C1705.95 448.47 1705.95 447.007 1706.81 444.26C1705.93 443.752 1705.19 443.027 1704.67 442.155C1704.15 441.282 1703.86 440.29 1703.83 439.274C1700.06 438.725 1696.35 437.846 1692.75 436.646H1692.84Z" fill="#FFC8B7"/>
<path fill-rule="evenodd" clip-rule="evenodd" d="M1692.84 436.648C1696.28 438.132 1699.88 439.233 1703.56 439.932C1703.57 440.945 1703.85 441.938 1704.38 442.805C1704.9 443.671 1705.65 444.381 1706.55 444.858C1705.71 447.605 1705.71 449.128 1706.55 449.366C1706.76 449.003 1707.07 448.699 1707.43 448.485C1707.8 448.271 1708.21 448.153 1708.64 448.142C1709.05 448.16 1709.46 448.288 1709.81 448.514C1710.16 448.739 1710.45 449.054 1710.64 449.426C1710.91 451.695 1709.29 453.009 1705.89 453.457C1705.71 454.741 1705.71 454.741 1705.56 455.756C1715.48 453.516 1715.92 439.872 1714.19 438.349C1713.3 430.079 1697.67 428.736 1694.06 424.914C1694.06 424.914 1688.74 434.408 1692.9 436.648H1692.84Z" fill="#42445C"/>
<path fill-rule="evenodd" clip-rule="evenodd" d="M1693.35 457.903C1694.81 458.624 1696.47 458.859 1698.08 458.575C1699.7 458.29 1701.17 457.501 1702.31 456.32C1698.45 457.753 1695.56 457.753 1693.73 456.32L1693.35 457.903Z" fill="#FF9D81"/>
<path fill-rule="evenodd" clip-rule="evenodd" d="M1686.47 461.305C1689.46 462.888 1691.61 464.082 1691.61 464.082C1692.01 463.019 1692.56 462.014 1693.22 461.096C1694.24 460.529 1694.57 459.066 1694.99 457.185C1697.38 455.782 1696.63 452.199 1694.99 451.96C1694.01 451.792 1693 451.949 1692.11 452.407C1691.23 452.865 1690.52 453.599 1690.09 454.498C1688.96 455.824 1688.15 457.385 1687.7 459.066C1687.32 459.87 1686.89 460.648 1686.42 461.395L1686.47 461.305Z" fill="#FFC8B7"/>
<path d="M1710.96 427.094C1711.35 427.204 1711.76 427.197 1712.15 427.073C1712.53 426.949 1712.87 426.714 1713.12 426.397C1713.37 426.081 1713.52 425.697 1713.55 425.295C1713.58 424.894 1713.49 424.492 1713.29 424.141C1713.09 423.791 1712.79 423.507 1712.43 423.326C1712.07 423.146 1711.67 423.077 1711.27 423.128C1710.87 423.178 1710.49 423.347 1710.19 423.612C1709.88 423.877 1709.66 424.226 1709.56 424.616C1709.48 424.87 1709.45 425.139 1709.48 425.405C1709.51 425.671 1709.59 425.929 1709.72 426.161C1709.85 426.394 1710.03 426.597 1710.25 426.757C1710.46 426.918 1710.7 427.032 1710.96 427.094Z" fill="#FEFEFE"/>
<path d="M1713.89 421.987V421.509C1714.05 420.884 1714.33 420.296 1714.72 419.783C1715.11 419.27 1715.6 418.841 1716.16 418.524C1717.73 417.766 1718.96 416.444 1719.6 414.822C1720.14 412.791 1719.24 410.552 1716.04 409.686C1714.65 409.329 1713.19 409.329 1711.8 409.686L1711.95 412.134C1712.85 411.864 1713.8 411.864 1714.7 412.134C1716.1 412.552 1716.52 413.418 1716.28 414.493C1716.04 415.568 1715.12 416.195 1713.83 417.061C1713.16 417.471 1712.58 418.009 1712.12 418.644C1711.66 419.28 1711.33 420 1711.15 420.763V421.45L1713.89 421.987Z" fill="#FEFEFE"/>
<path d="M1717.87 428.856C1718.08 429.016 1718.33 429.129 1718.59 429.188C1718.85 429.248 1719.11 429.252 1719.38 429.202C1719.64 429.151 1719.89 429.046 1720.1 428.894C1720.32 428.742 1720.51 428.546 1720.65 428.319C1720.83 428.097 1720.96 427.839 1721.04 427.561C1721.11 427.283 1721.12 426.993 1721.08 426.71C1721.03 426.426 1720.92 426.157 1720.76 425.919C1720.6 425.682 1720.38 425.482 1720.14 425.333C1719.69 425.106 1719.17 425.051 1718.68 425.179C1718.2 425.307 1717.77 425.61 1717.49 426.029C1717.21 426.448 1717.1 426.955 1717.17 427.454C1717.24 427.953 1717.49 428.409 1717.87 428.737V428.856Z" fill="#FEFEFE"/>
<path d="M1722.35 425.035L1722.59 424.558C1723.34 423.458 1724.48 422.689 1725.78 422.408C1727.49 422.202 1729.06 421.36 1730.17 420.049C1730.49 419.56 1730.71 419.007 1730.8 418.428C1730.89 417.849 1730.86 417.257 1730.7 416.692C1730.55 416.127 1730.27 415.601 1729.9 415.151C1729.52 414.7 1729.06 414.334 1728.53 414.078C1727.35 413.222 1725.95 412.715 1724.5 412.615L1723.87 415.004C1724.79 414.998 1725.68 415.268 1726.44 415.78C1727.66 416.646 1727.78 417.601 1727.19 418.527C1726.36 419.412 1725.25 419.991 1724.05 420.169C1723.28 420.348 1722.55 420.677 1721.91 421.139C1721.27 421.6 1720.73 422.184 1720.32 422.856L1719.96 423.393L1722.35 425.035Z" fill="#FEFEFE"/>
<path fill-rule="evenodd" clip-rule="evenodd" d="M1599.35 466.116L1590.51 463.906L1588.66 470.803L1597.5 472.953L1599.35 466.116Z" fill="#FFC8B7"/>
<path fill-rule="evenodd" clip-rule="evenodd" d="M1588.96 468.682C1588 472.484 1587.28 476.343 1586.81 480.236C1586.81 480.236 1588.6 480.415 1592.54 481.132C1592.87 480.081 1593.09 479.001 1593.2 477.907C1594.95 479.613 1596.97 481.024 1599.17 482.087C1599.17 482.087 1601.86 482.445 1612.43 484.058C1613.03 483.634 1613.44 482.99 1613.57 482.266C1613.62 481.896 1613.6 481.518 1613.49 481.157C1613.39 480.797 1613.21 480.463 1612.97 480.176C1604.01 477.489 1600.73 474.444 1598.28 470.324C1595.12 470.743 1591.92 470.169 1589.11 468.682H1588.96Z" fill="#3D3938"/>
<path fill-rule="evenodd" clip-rule="evenodd" d="M1627.55 466.801L1618.68 469.966L1621.36 476.534L1630 473.727L1627.55 466.801Z" fill="#FFC8B7"/>
<path fill-rule="evenodd" clip-rule="evenodd" d="M1620.5 474.561C1621.66 478.295 1623.08 481.945 1624.74 485.488C1624.74 485.488 1626.35 484.712 1630.06 483.279C1629.8 482.251 1629.44 481.251 1628.98 480.293C1631.33 480.854 1633.75 481.016 1636.15 480.771L1648.42 475.516C1648.57 475.188 1648.65 474.832 1648.65 474.471C1648.65 474.111 1648.57 473.755 1648.42 473.426C1648.28 473.079 1648.07 472.769 1647.79 472.52C1647.51 472.272 1647.17 472.091 1646.81 471.993C1637.7 474.382 1633.4 473.486 1629.16 471.307C1626.66 473.287 1623.62 474.463 1620.44 474.68L1620.5 474.561Z" fill="#3D3938"/>
<path fill-rule="evenodd" clip-rule="evenodd" d="M1571.36 321.908C1571.78 320.713 1572.32 319.34 1572.92 318.026C1578.68 319.877 1582.5 311.428 1585.55 301.575C1582.97 302.141 1580.28 301.976 1577.79 301.098C1575.87 302.232 1574.8 303.068 1575.4 305.218C1575.4 305.636 1573.51 306.591 1573.45 304.74C1573.48 304.482 1573.48 304.222 1573.45 303.964C1572.14 299.127 1565.87 304.442 1569.39 306.949C1567.24 312.622 1565.39 313.637 1561.39 313.697C1561.09 315.668 1559.36 322.982 1558.76 324.893C1562.44 325.407 1566.15 325.726 1569.87 325.849L1571.48 321.908H1571.36Z" fill="#FFC8B7"/>
<path fill-rule="evenodd" clip-rule="evenodd" d="M1568.14 316.684C1569.26 317.951 1570.74 318.855 1572.38 319.281C1572.54 318.873 1572.71 318.474 1572.92 318.087C1571.24 318.003 1569.6 317.522 1568.14 316.684Z" fill="#FF9D81"/>
<path fill-rule="evenodd" clip-rule="evenodd" d="M1561.27 313.76C1564.74 314.477 1568.98 313.581 1570.23 307.192C1565.57 303.609 1572.68 299.31 1573.04 305.639C1572.14 307.968 1568.68 314.925 1569.57 317.403C1577.61 321.791 1579.04 317.612 1580.66 312.984C1580.47 312.717 1580.19 312.519 1579.88 312.422C1579.57 312.325 1579.23 312.334 1578.92 312.446C1576.47 313.7 1575.13 312.626 1574.56 311.491C1572.98 308.505 1576.53 301.818 1577.55 301.161C1580.04 302.039 1582.73 302.204 1585.31 301.638C1593.98 299.429 1595.23 291.159 1588.84 291.696C1581.49 292.234 1574.17 283.874 1566.17 288.173C1558.1 293.786 1557.21 304.684 1560.97 313.76H1561.27Z" fill="#3D3938"/>
<path fill-rule="evenodd" clip-rule="evenodd" d="M1594.87 369.679L1593.26 375.472H1593.44C1596.01 377.146 1598.95 378.17 1602.01 378.457C1602.97 378.636 1604.52 377.86 1607.03 375.83L1608.64 379.651C1608.64 380.428 1609.06 380.667 1609.84 380.249L1608.82 373.62L1604.22 370.097C1603.27 369.133 1602.04 368.506 1600.7 368.312C1599.36 368.118 1598 368.368 1596.81 369.023C1596.18 369.245 1595.53 369.425 1594.87 369.56V369.679Z" fill="#FFC8B7"/>
<path fill-rule="evenodd" clip-rule="evenodd" d="M1549.77 382.486C1557.27 385.472 1568.91 385.173 1584.59 381.74C1584.36 379.471 1584.12 377.202 1583.94 375.052C1587.82 375.589 1591.11 375.888 1593.14 376.067L1595.08 369.26L1582.74 364.722C1578.44 330.506 1571.3 316.952 1562.7 318.683C1552.7 321.967 1547.02 343.136 1549.77 382.486Z" fill="#00C364"/>
<path fill-rule="evenodd" clip-rule="evenodd" d="M1563.27 356.331C1568.29 344.985 1569.6 336.357 1567.09 330.445C1568.47 333.968 1568.11 340.686 1564.52 349.882L1563.03 354.121C1562.88 354.479 1562.82 354.87 1562.86 355.257C1562.9 355.644 1563.04 356.014 1563.27 356.331Z" fill="#009251"/>
<path fill-rule="evenodd" clip-rule="evenodd" d="M1583.94 375.054C1570.65 373.203 1550.49 368.904 1549.65 359.439C1549.11 367.889 1560.61 373.442 1584.06 376.069C1584.03 375.732 1584.03 375.392 1584.06 375.054H1583.94Z" fill="#009251"/>
<path fill-rule="evenodd" clip-rule="evenodd" d="M1584.6 381.621C1568.92 385.055 1557.27 385.293 1549.77 382.368C1546.97 394.31 1553.17 402.192 1568.38 406.014L1599.62 409.208L1589.74 466.234L1600.46 469.22L1608.88 443.155L1617.04 418.046L1624.56 394.609C1626.55 388.637 1613.25 384.348 1584.66 381.741L1584.6 381.621Z" fill="#42445C"/>
<path fill-rule="evenodd" clip-rule="evenodd" d="M1617 418.045L1608.88 443.274L1619.21 472.294L1630.11 469.01L1617 418.045Z" fill="#36374A"/>
<path d="M1592.48 382.131C1592.29 382.108 1592.1 382.043 1591.94 381.942C1591.77 381.84 1591.63 381.704 1591.52 381.542C1591.41 381.38 1591.34 381.197 1591.31 381.004C1591.28 380.812 1591.29 380.616 1591.35 380.429C1591.38 380.239 1591.46 380.058 1591.56 379.897C1591.67 379.736 1591.81 379.598 1591.97 379.492C1592.13 379.386 1592.31 379.314 1592.5 379.28C1592.7 379.246 1592.89 379.251 1593.08 379.294L1621.87 384.459L1639.79 357.171C1639.89 357 1640.02 356.85 1640.17 356.73C1640.33 356.61 1640.5 356.523 1640.69 356.473C1640.88 356.422 1641.08 356.411 1641.27 356.438C1641.47 356.466 1641.66 356.532 1641.82 356.633C1642.15 356.847 1642.38 357.177 1642.46 357.554C1642.55 357.931 1642.49 358.328 1642.3 358.664L1624.38 387.803L1623.84 388.699L1622.83 388.46L1592.48 382.131Z" fill="#393B47"/>
<path d="M1623.01 384.995C1623.18 385.017 1623.36 385.076 1623.51 385.169C1623.67 385.261 1623.8 385.385 1623.9 385.532C1624.1 385.832 1624.18 386.192 1624.14 386.548C1624.08 386.904 1623.89 387.225 1623.6 387.443C1623.3 387.64 1622.94 387.724 1622.59 387.682C1622.23 387.625 1621.91 387.432 1621.69 387.145C1621.5 386.845 1621.41 386.486 1621.45 386.13C1621.51 385.773 1621.7 385.452 1621.99 385.234C1622.29 385.037 1622.65 384.953 1623.01 384.995ZM1623.48 385.831C1623.36 385.647 1623.17 385.518 1622.95 385.473C1622.83 385.457 1622.71 385.464 1622.6 385.495C1622.49 385.526 1622.38 385.579 1622.29 385.652C1622.1 385.778 1621.98 385.971 1621.93 386.189C1621.93 386.421 1621.99 386.649 1622.11 386.846C1622.24 387.03 1622.43 387.159 1622.65 387.204C1622.88 387.21 1623.11 387.147 1623.3 387.025C1623.49 386.899 1623.62 386.707 1623.66 386.488C1623.69 386.372 1623.69 386.251 1623.66 386.136C1623.63 386.02 1623.57 385.916 1623.48 385.831Z" fill="#878788"/>
<path fill-rule="evenodd" clip-rule="evenodd" d="M1556.13 288.26L1545.56 280.11C1543.3 278.079 1541.79 275.343 1541.29 272.347L1538.51 262.703C1537.08 257.747 1542.72 253.388 1547.89 253.328L1577.76 253C1582.89 253.358 1588.39 257.389 1587.13 262.375L1585.1 270.466C1583.82 275.482 1580.86 279.423 1575.72 279.841L1555.15 281.722L1556.13 288.26Z" fill="#FD5126"/>
<path d="M1548.64 262.196C1548 262.241 1547.37 262.42 1546.81 262.719C1546.24 263.019 1545.74 263.433 1545.34 263.936C1544.94 264.438 1544.65 265.018 1544.49 265.638C1544.33 266.259 1544.3 266.907 1544.4 267.54C1544.38 268.164 1544.5 268.785 1544.74 269.361C1544.98 269.938 1545.34 270.458 1545.79 270.888C1546.24 271.318 1546.78 271.649 1547.37 271.859C1547.96 272.069 1548.58 272.154 1549.21 272.108C1549.85 272.077 1550.49 271.907 1551.06 271.61C1551.64 271.312 1552.15 270.895 1552.55 270.386C1552.95 269.877 1553.24 269.287 1553.39 268.657C1553.55 268.027 1553.57 267.371 1553.45 266.734C1553.46 266.111 1553.35 265.492 1553.1 264.916C1552.86 264.341 1552.51 263.823 1552.05 263.395C1551.6 262.967 1551.06 262.639 1550.47 262.433C1549.88 262.226 1549.26 262.145 1548.64 262.196ZM1548.64 263.629C1550.4 263.629 1551.42 265.122 1551.63 266.943C1551.83 268.764 1550.94 270.585 1549.24 270.705C1547.53 270.824 1546.46 269.331 1546.25 267.391C1546.04 265.45 1546.94 263.718 1548.67 263.629H1548.64ZM1557.81 264.196C1557.32 264.22 1556.85 264.345 1556.42 264.562C1555.99 264.78 1555.61 265.086 1555.3 265.46C1554.99 265.834 1554.77 266.268 1554.64 266.734C1554.51 267.201 1554.48 267.689 1554.55 268.167C1554.55 268.639 1554.65 269.106 1554.85 269.537C1555.04 269.968 1555.32 270.354 1555.67 270.669C1556.03 270.984 1556.44 271.222 1556.89 271.367C1557.34 271.512 1557.82 271.561 1558.29 271.511C1558.77 271.491 1559.25 271.369 1559.69 271.153C1560.12 270.937 1560.51 270.633 1560.82 270.259C1561.13 269.885 1561.37 269.45 1561.5 268.982C1561.63 268.513 1561.67 268.022 1561.6 267.54C1561.6 267.068 1561.5 266.601 1561.31 266.17C1561.11 265.739 1560.83 265.353 1560.48 265.038C1560.13 264.723 1559.71 264.485 1559.26 264.34C1558.81 264.195 1558.34 264.146 1557.87 264.196H1557.81ZM1557.81 265.51C1559 265.51 1559.57 266.614 1559.66 267.719C1559.75 268.824 1559.12 270.137 1558.14 270.227C1557.15 270.317 1556.34 269.302 1556.22 267.988C1556.11 266.674 1556.55 265.599 1557.81 265.51ZM1563.36 273.81H1565.1L1564.86 270.197C1565.1 270.489 1565.42 270.716 1565.77 270.857C1566.12 270.998 1566.51 271.048 1566.89 271.003C1567.35 270.966 1567.81 270.83 1568.21 270.606C1568.62 270.382 1568.98 270.073 1569.26 269.701C1569.55 269.329 1569.75 268.902 1569.85 268.447C1569.96 267.992 1569.96 267.52 1569.87 267.062C1569.72 264.853 1568.29 263.599 1566.68 263.718C1566.21 263.756 1565.76 263.902 1565.36 264.146C1564.96 264.39 1564.63 264.724 1564.38 265.122L1564.23 264.047H1562.65C1562.65 264.704 1562.83 265.42 1562.89 266.346L1563.36 273.81ZM1564.65 266.883C1564.62 266.735 1564.62 266.583 1564.65 266.435C1564.7 266.071 1564.87 265.735 1565.14 265.481C1565.4 265.227 1565.75 265.068 1566.11 265.032C1567.25 265.032 1567.93 265.898 1568.02 267.122C1568.11 268.346 1567.51 269.481 1566.41 269.54C1566.05 269.576 1565.69 269.485 1565.39 269.284C1565.09 269.082 1564.87 268.782 1564.77 268.436V267.958L1564.65 266.883ZM1571.04 270.078C1571.72 270.367 1572.46 270.48 1573.19 270.406C1575.04 270.406 1575.97 269.301 1575.88 268.077C1575.79 266.853 1575.16 266.435 1573.85 266.047C1572.53 265.659 1572.62 265.629 1572.59 265.181C1572.56 264.733 1572.86 264.405 1573.52 264.375C1574.02 264.341 1574.53 264.444 1574.98 264.674L1575.25 263.42C1574.66 263.169 1574.01 263.067 1573.37 263.121C1571.79 263.121 1570.83 264.256 1570.92 265.48C1571.01 266.704 1571.61 267.032 1572.98 267.391C1573.85 267.6 1574.15 267.839 1574.21 268.316C1574.26 268.794 1573.88 269.122 1573.13 269.182C1572.5 269.19 1571.88 269.058 1571.31 268.794L1571.04 270.078ZM1578.77 266.913L1578.54 260.255H1576.68L1577.43 266.913H1578.77ZM1578.3 270.078C1578.56 270.02 1578.8 269.868 1578.96 269.651C1579.13 269.434 1579.21 269.165 1579.19 268.894C1579.17 268.623 1579.05 268.367 1578.86 268.173C1578.67 267.979 1578.42 267.861 1578.15 267.839C1578 267.85 1577.86 267.89 1577.73 267.956C1577.6 268.022 1577.49 268.113 1577.39 268.224C1577.3 268.335 1577.23 268.464 1577.18 268.603C1577.14 268.741 1577.12 268.888 1577.13 269.033C1577.14 269.179 1577.17 269.323 1577.23 269.457C1577.29 269.59 1577.38 269.709 1577.49 269.807C1577.6 269.904 1577.73 269.979 1577.86 270.026C1578 270.072 1578.15 270.09 1578.3 270.078ZM1582.33 266.644L1582.15 259.986H1580.27L1581.01 266.585L1582.33 266.644ZM1581.88 269.809C1582.17 269.809 1582.46 269.693 1582.66 269.485C1582.87 269.278 1582.99 268.997 1582.99 268.704C1582.99 268.411 1582.87 268.13 1582.66 267.923C1582.46 267.716 1582.17 267.6 1581.88 267.6C1581.59 267.6 1581.31 267.716 1581.1 267.923C1580.89 268.13 1580.78 268.411 1580.78 268.704C1580.78 268.997 1580.89 269.278 1581.1 269.485C1581.31 269.693 1581.59 269.809 1581.88 269.809Z" fill="#EDEDED"/>
<path fill-rule="evenodd" clip-rule="evenodd" d="M961.347 635.071C967.978 612.858 970.307 594.706 980.373 599.512C991.693 603.543 1012.93 616.202 1026.16 624.233C1025.77 626.055 1020.37 625.846 1020.19 627.518L993.604 631.399L980.791 620.681C979.626 623.965 977.804 629.936 976.43 633.31L961.347 635.071Z" fill="#102962"/>
<path fill-rule="evenodd" clip-rule="evenodd" d="M962.243 651.7L974.578 652.029L1014.87 653.133C1037.13 654.885 1049.86 651.262 1053.07 642.266C1048.11 642.982 1030.88 628.263 1024.73 622.77L1023.05 624.979L1018.93 626.979L912.782 641.669V650.327L962.243 651.7Z" fill="#16347D"/>
<path d="M982.912 558.578C982.798 558.423 982.629 558.318 982.44 558.285C982.251 558.251 982.056 558.292 981.896 558.399C981.808 558.444 981.731 558.508 981.67 558.586C981.609 558.664 981.566 558.755 981.543 558.851C981.52 558.948 981.519 559.048 981.539 559.145C981.558 559.242 981.599 559.334 981.657 559.414L990.618 572.64C990.671 572.72 990.741 572.788 990.821 572.84C990.902 572.893 990.993 572.928 991.087 572.945C991.182 572.962 991.279 572.959 991.373 572.938C991.467 572.916 991.555 572.876 991.633 572.819C991.72 572.768 991.794 572.699 991.852 572.617C991.911 572.535 991.951 572.442 991.971 572.343C991.99 572.245 991.989 572.143 991.967 572.045C991.945 571.947 991.902 571.855 991.842 571.774L982.912 558.578Z" fill="#97FFFF"/>
<path fill-rule="evenodd" clip-rule="evenodd" d="M1029.89 555.417C1029.36 554.282 1028.61 552.969 1027.89 551.715C1022.73 552.491 1017.56 548.013 1013.53 536.966C1016.14 537.217 1018.77 536.731 1021.11 535.562C1022.1 535.994 1022.91 536.743 1023.42 537.691C1023.93 538.638 1024.11 539.728 1023.92 540.787C1023.92 541.265 1026.01 541.952 1025.83 540.16V539.354C1026.58 534.398 1031.81 537.891 1028.64 540.758C1030.73 546.908 1034.17 548.699 1038.86 546.102C1039.39 548.013 1041.84 555.059 1042.71 556.85C1039.15 557.788 1035.54 558.525 1031.9 559.059L1029.89 555.417Z" fill="#FFC8B7"/>
<path fill-rule="evenodd" clip-rule="evenodd" d="M1032.4 549.775C1031.46 551.15 1030.11 552.195 1028.55 552.76C1028.31 552.372 1028.13 552.014 1027.89 551.655C1029.53 551.396 1031.08 550.728 1032.4 549.715V549.775Z" fill="#FF9D81"/>
<path fill-rule="evenodd" clip-rule="evenodd" d="M1020.04 620.471C1021.11 603.244 1020.51 578.016 1023.02 568.432C1026.52 555.414 1032.49 550.518 1039.48 552.787C1049.43 557.176 1056.27 594.228 1052.98 642.177C1038.88 647.044 1022.19 625.368 1019.95 620.471H1020.04Z" fill="#72EDE8"/>
<path fill-rule="evenodd" clip-rule="evenodd" d="M1034.28 588.138C1031.56 606.917 1026.7 605.753 1022.13 603.932C1012.78 599.334 1006.45 599.453 991.631 580.972C986.195 576.195 983.746 572.911 984.343 571.179C984.478 569.367 984.418 567.545 984.164 565.745C983.768 564.8 983.694 563.751 983.955 562.76L985.777 565.477C987.36 567.716 991.751 574.434 989.182 567.746C989.182 565.566 990.227 565.477 991.87 567.985C993.963 570.571 995.111 573.794 995.126 577.121C1004.83 584.764 1016.03 591.75 1020.87 592.945C1021.66 590.429 1022.17 587.837 1022.39 585.212C1026.45 585.889 1030.44 586.888 1034.34 588.197L1034.28 588.138Z" fill="#FFC8B7"/>
<path fill-rule="evenodd" clip-rule="evenodd" d="M1040.02 574.821C1039.94 580.421 1038.83 585.958 1036.73 591.152C1036.04 594.625 1034.75 597.95 1032.91 600.975C1031.95 602.35 1030.66 603.451 1029.14 604.169C1028.61 604.415 1028.03 604.576 1027.44 604.647C1030.07 603.722 1032.61 599.094 1034.28 588.137L1035.87 588.704H1036.1V588.465C1037.68 583.624 1038.69 578.613 1039.09 573.537C1039.25 570.981 1038.84 568.422 1037.9 566.043C1039.55 568.59 1040.33 571.611 1040.11 574.642L1040.02 574.821Z" fill="#16C4BC"/>
<path fill-rule="evenodd" clip-rule="evenodd" d="M910.751 650.508C909.739 649.264 909.124 647.746 908.985 646.149C908.847 644.552 909.192 642.95 909.975 641.551L912.961 641.79L913.29 650.448L910.751 650.508Z" fill="#FFC8B7"/>
<path fill-rule="evenodd" clip-rule="evenodd" d="M910.753 650.507C908.613 651.929 906.057 652.592 903.495 652.388L902.838 628.234C907.676 628.234 906.78 635.101 909.976 641.52C909.193 642.919 908.849 644.521 908.987 646.118C909.126 647.715 909.741 649.234 910.753 650.477V650.507Z" fill="#F94C28"/>
<path fill-rule="evenodd" clip-rule="evenodd" d="M903.493 652.388C903.032 652.36 902.573 652.3 902.119 652.209C901.94 642.685 901.731 634.743 901.642 628.324C902.039 628.28 902.439 628.28 902.836 628.324L903.493 652.388Z" fill="#7285A0"/>
<path fill-rule="evenodd" clip-rule="evenodd" d="M1019.68 519.976C1022.22 517.439 1024.49 517.528 1026.43 520.305C1028.85 519.29 1030.52 519.797 1031.48 521.798C1034.76 522.066 1036.05 523.141 1035.36 524.992C1038.79 525.44 1039.75 527.022 1038.35 529.71C1041.33 531.143 1041.87 532.874 1039.81 534.964C1042.05 536.248 1042.14 537.95 1040.05 539.861C1040.55 540.249 1040.93 540.772 1041.15 541.369C1041.37 541.967 1041.41 542.614 1041.27 543.234C1039.78 548.28 1031 550.46 1028.67 540.756C1031.92 537.771 1026.61 534.397 1025.86 539.353V540.159C1026.04 541.951 1023.92 541.264 1023.95 540.786C1024.13 539.727 1023.96 538.637 1023.45 537.689C1022.94 536.742 1022.13 535.993 1021.14 535.561C1016.15 537.83 1011.88 538.995 1009.19 535.293C1007.13 532.576 1007.55 530.486 1010.39 528.993C1009.34 525.53 1010.39 523.738 1013.38 523.679C1014.72 518.961 1016.9 517.707 1019.86 519.976H1019.68Z" fill="black"/>
<path fill-rule="evenodd" clip-rule="evenodd" d="M1002.3 516.363L991.723 508.242C989.457 506.216 987.95 503.477 987.452 500.479L984.675 490.836C983.241 485.879 988.886 481.52 994.053 481.461L1024.07 481.162C1029.21 481.491 1034.7 485.551 1033.45 490.537L1031.42 498.598C1030.13 503.644 1027.18 507.555 1022.04 508.003L1001.46 509.854L1002.3 516.363Z" fill="#FD5126"/>
<path d="M994.801 490.176C994.159 490.218 993.533 490.393 992.963 490.691C992.394 490.989 991.893 491.403 991.493 491.907C991.094 492.411 990.804 492.992 990.643 493.615C990.482 494.237 990.454 494.886 990.56 495.52C990.545 496.145 990.662 496.765 990.902 497.342C991.142 497.918 991.5 498.438 991.952 498.869C992.405 499.299 992.943 499.629 993.531 499.84C994.12 500.05 994.745 500.134 995.368 500.088C996.017 500.057 996.65 499.887 997.227 499.59C997.804 499.293 998.311 498.876 998.713 498.366C999.115 497.857 999.403 497.268 999.557 496.638C999.712 496.008 999.73 495.352 999.61 494.714C999.624 494.091 999.508 493.472 999.267 492.897C999.027 492.322 998.669 491.803 998.216 491.375C997.762 490.948 997.224 490.62 996.636 490.413C996.047 490.207 995.422 490.126 994.801 490.176ZM994.801 491.579C996.533 491.43 997.579 493.072 997.788 494.893C997.997 496.715 997.131 498.566 995.428 498.655C993.726 498.745 992.65 497.312 992.441 495.341C992.232 493.371 993.128 491.699 994.861 491.579H994.801ZM1003.97 492.177C1003.48 492.188 1003 492.303 1002.57 492.514C1002.13 492.725 1001.74 493.027 1001.42 493.399C1001.11 493.772 1000.88 494.207 1000.75 494.676C1000.61 495.144 1000.58 495.636 1000.65 496.118C1000.65 496.591 1000.75 497.06 1000.94 497.494C1001.13 497.927 1001.41 498.315 1001.77 498.631C1002.12 498.947 1002.54 499.184 1002.99 499.328C1003.44 499.471 1003.92 499.517 1004.39 499.462C1004.87 499.441 1005.35 499.32 1005.78 499.106C1006.22 498.892 1006.6 498.59 1006.91 498.22C1007.22 497.849 1007.46 497.418 1007.59 496.953C1007.73 496.489 1007.77 496.001 1007.7 495.52C1007.7 495.048 1007.6 494.581 1007.41 494.15C1007.21 493.719 1006.93 493.334 1006.58 493.019C1006.23 492.703 1005.81 492.466 1005.37 492.32C1004.92 492.175 1004.44 492.126 1003.97 492.177ZM1003.97 493.49C1005.16 493.49 1005.73 494.595 1005.82 495.7C1005.91 496.804 1005.28 498.118 1004.3 498.178C1003.31 498.237 1002.51 497.282 1002.39 495.938C1002.27 494.595 1002.72 493.58 1003.97 493.49ZM1009.53 501.79L1011.26 501.641L1011.02 498.028C1011.26 498.325 1011.57 498.555 1011.93 498.696C1012.29 498.837 1012.67 498.885 1013.05 498.835C1013.52 498.797 1013.97 498.662 1014.38 498.437C1014.79 498.213 1015.14 497.905 1015.43 497.532C1015.71 497.16 1015.91 496.733 1016.01 496.278C1016.12 495.823 1016.13 495.352 1016.04 494.893C1016.06 494.461 1016 494.027 1015.85 493.62C1015.7 493.213 1015.46 492.842 1015.17 492.528C1014.87 492.214 1014.5 491.966 1014.1 491.797C1013.7 491.629 1013.27 491.545 1012.84 491.55C1012.37 491.59 1011.92 491.741 1011.52 491.99C1011.12 492.239 1010.78 492.579 1010.54 492.983V491.908H1008.96C1008.96 492.565 1009.14 493.311 1009.2 494.207L1009.53 501.79ZM1010.81 494.834C1010.78 494.686 1010.78 494.534 1010.81 494.386C1010.86 494.023 1011.03 493.688 1011.3 493.438C1011.56 493.187 1011.91 493.037 1012.27 493.013C1013.41 493.013 1014.1 493.878 1014.19 495.102C1014.27 496.327 1013.68 497.461 1012.57 497.491C1012.22 497.523 1011.86 497.434 1011.56 497.239C1011.27 497.044 1011.04 496.754 1010.93 496.416V495.909L1010.81 494.834ZM1017.2 498.028C1017.89 498.333 1018.64 498.456 1019.38 498.387C1021.2 498.237 1022.1 497.282 1022.04 496.028C1021.98 494.774 1021.32 494.386 1020.01 494.028C1018.7 493.669 1018.78 493.58 1018.75 493.132C1018.72 492.684 1019.02 492.386 1019.68 492.356C1020.18 492.329 1020.68 492.421 1021.14 492.624L1021.41 491.37C1020.82 491.136 1020.17 491.044 1019.53 491.102C1017.95 491.102 1016.99 492.236 1017.08 493.46C1017.17 494.685 1017.74 494.983 1019.14 495.341C1020.01 495.58 1020.31 495.819 1020.37 496.297C1020.43 496.774 1020.04 497.073 1019.29 497.133C1018.67 497.135 1018.05 497.013 1017.47 496.774L1017.2 498.028ZM1024.91 494.864L1024.7 488.206H1022.85L1023.59 494.834L1024.91 494.864ZM1024.46 498.028C1024.6 498.025 1024.75 497.992 1024.88 497.93C1025.01 497.868 1025.13 497.78 1025.22 497.67C1025.32 497.561 1025.39 497.432 1025.43 497.294C1025.48 497.155 1025.49 497.008 1025.48 496.864C1025.46 496.645 1025.38 496.434 1025.25 496.259C1025.12 496.085 1024.94 495.953 1024.73 495.882C1024.52 495.811 1024.3 495.803 1024.09 495.86C1023.87 495.917 1023.68 496.036 1023.54 496.201C1023.39 496.367 1023.3 496.571 1023.28 496.789C1023.25 497.007 1023.29 497.228 1023.38 497.424C1023.48 497.62 1023.64 497.782 1023.83 497.89C1024.02 497.998 1024.24 498.046 1024.46 498.028ZM1028.49 494.625L1028.31 487.967H1026.43L1027.18 494.595L1028.49 494.625ZM1028.04 497.79C1028.31 497.732 1028.55 497.58 1028.71 497.363C1028.87 497.146 1028.95 496.877 1028.93 496.606C1028.92 496.334 1028.8 496.079 1028.61 495.885C1028.42 495.691 1028.17 495.573 1027.89 495.55C1027.75 495.557 1027.61 495.594 1027.48 495.66C1027.34 495.725 1027.23 495.817 1027.14 495.929C1027.04 496.042 1026.98 496.172 1026.94 496.313C1026.9 496.453 1026.89 496.6 1026.91 496.745C1026.9 496.891 1026.93 497.037 1026.99 497.172C1027.04 497.307 1027.13 497.429 1027.24 497.528C1027.34 497.628 1027.47 497.702 1027.61 497.747C1027.75 497.793 1027.9 497.807 1028.04 497.79Z" fill="#EDEDED"/>
<defs>
<linearGradient id="paint0_linear" x1="1137.05" y1="-534.583" x2="892.103" y2="445.405" gradientUnits="userSpaceOnUse">
<stop stop-color="#201F6E"/>
<stop offset="0.16" stop-color="#222473"/>
<stop offset="0.35" stop-color="#2A3181"/>
<stop offset="0.55" stop-color="#364799"/>
<stop offset="0.76" stop-color="#4666BA"/>
<stop offset="0.98" stop-color="#5C8DE4"/>
<stop offset="1" stop-color="#5E91E9"/>
</linearGradient>
</defs>
</svg>
